{"glyphs":{"0":{"ha":794,"x_min":56,"x_max":739,"o":"m 739 398 q 739 304 739 398 q 646 97 739 210 q 395 -17 553 -17 q 147 96 238 -17 q 56 414 56 208 q 147 699 56 583 q 399 815 238 815 q 650 701 561 815 q 739 398 739 586 m 532 414 q 397 788 532 788 q 263 414 263 788 q 292 113 263 214 q 399 11 321 11 q 504 111 476 11 q 532 414 532 211 z "},"1":{"ha":524,"x_min":56,"x_max":482,"o":"m 385 28 l 482 28 l 482 0 l 65 0 l 65 28 l 176 28 l 176 696 l 64 653 l 56 679 l 335 808 l 385 808 l 385 28 z "},"2":{"ha":733,"x_min":42,"x_max":664,"o":"m 664 197 q 623 48 664 110 q 503 -14 582 -14 q 321 38 425 -14 q 171 90 217 90 q 69 0 89 90 l 42 0 q 119 199 50 106 q 319 411 167 261 q 392 507 360 451 q 424 626 424 563 q 386 736 424 690 q 275 782 349 782 q 189 764 228 782 q 150 723 150 746 q 169 689 150 700 q 209 672 188 678 q 249 643 231 665 q 268 583 268 621 q 241 519 268 546 q 167 493 214 493 q 89 528 119 493 q 58 617 58 563 q 131 758 58 701 q 335 815 204 815 q 558 758 467 815 q 650 601 650 701 q 612 463 650 519 q 515 376 574 406 q 394 326 456 347 q 273 276 332 304 q 189 210 214 247 q 275 238 222 238 q 395 219 328 238 q 501 201 463 201 q 565 206 540 201 q 613 229 590 210 q 639 285 635 249 l 653 285 q 664 197 664 240 z "},"3":{"ha":731,"x_min":56,"x_max":675,"o":"m 308 815 q 625 624 625 815 q 565 494 625 547 q 392 436 504 442 q 597 379 518 435 q 675 228 675 324 q 580 44 675 110 q 311 -22 485 -22 q 123 31 190 -22 q 56 174 56 85 q 85 264 56 229 q 164 299 115 299 q 240 272 213 299 q 267 208 267 246 q 246 147 267 169 q 200 119 225 125 q 135 76 135 104 q 174 29 135 47 q 265 11 214 11 q 396 69 346 11 q 446 227 446 128 q 402 374 446 326 q 243 421 358 421 l 221 421 l 221 449 l 243 449 q 371 502 332 449 q 410 624 410 556 q 371 738 410 692 q 272 783 332 783 q 182 764 213 783 q 151 723 151 744 q 169 692 151 701 q 208 677 186 682 q 247 653 229 672 q 264 600 264 633 q 240 543 264 567 q 174 519 217 519 q 103 550 131 519 q 75 633 75 581 q 138 763 75 710 q 308 815 201 815 z "},"4":{"ha":738,"x_min":14,"x_max":682,"o":"m 650 318 l 682 318 l 682 104 l 650 104 l 650 199 l 547 199 l 547 28 l 638 28 l 638 0 l 249 0 l 249 28 l 339 28 l 339 199 l 14 199 l 14 226 l 408 808 l 547 808 l 547 226 l 650 226 l 650 318 m 339 226 l 339 656 l 50 226 l 339 226 z "},"5":{"ha":715,"x_min":42,"x_max":660,"o":"m 397 769 q 511 778 478 769 q 560 806 544 788 q 590 857 576 825 l 604 857 q 615 763 615 814 q 572 615 615 672 q 446 558 529 558 q 169 689 293 558 l 140 426 q 326 482 199 482 q 577 420 494 482 q 660 243 660 358 q 567 57 660 128 q 297 -14 475 -14 q 109 40 176 -14 q 42 182 42 93 q 72 272 42 238 q 150 307 101 307 q 226 281 199 307 q 253 216 253 254 q 232 156 253 178 q 186 128 211 133 q 121 84 121 113 q 160 38 121 56 q 251 19 200 19 q 431 246 431 19 q 399 390 431 339 q 276 442 368 442 q 128 372 183 442 l 104 378 l 151 801 q 397 769 231 769 z "},"6":{"ha":765,"x_min":42,"x_max":710,"o":"m 263 407 q 442 463 328 463 q 633 405 556 463 q 710 235 710 347 q 628 53 710 122 q 400 -17 547 -17 q 42 394 42 -17 q 142 705 42 593 q 436 817 243 817 q 578 781 507 817 q 672 676 650 746 q 679 581 692 626 q 625 517 667 535 q 547 512 583 500 q 496 557 511 524 q 494 635 476 611 q 537 687 511 660 q 556 735 563 714 q 513 770 550 757 q 442 783 475 783 q 385 777 408 783 q 345 763 363 771 q 315 737 328 756 q 292 705 301 718 q 278 662 283 692 q 269 615 272 632 q 264 558 265 597 q 263 500 263 518 l 263 407 m 401 11 q 515 228 515 11 q 481 367 515 315 q 382 418 447 418 q 263 368 317 418 q 298 97 264 182 q 401 11 332 11 z "},"7":{"ha":656,"x_min":14,"x_max":628,"o":"m 381 589 q 251 605 336 589 q 129 621 165 621 q 69 592 93 621 q 42 517 44 563 l 26 517 q 14 642 14 564 q 54 772 14 721 q 172 822 94 822 q 367 782 249 822 q 524 742 486 742 q 579 765 563 742 q 604 832 596 788 l 628 832 q 551 567 628 674 q 486 482 519 522 q 410 267 410 388 q 422 189 410 238 q 435 102 435 140 q 399 24 435 64 q 305 -17 364 -17 q 213 26 246 -17 q 179 139 179 68 q 209 270 179 210 q 286 374 239 331 q 384 456 333 417 q 487 551 435 494 q 568 674 539 608 l 564 678 q 381 589 511 589 z "},"8":{"ha":736,"x_min":42,"x_max":694,"o":"m 694 213 q 601 47 694 111 q 372 -17 507 -17 q 139 33 236 -17 q 42 196 42 82 q 90 317 42 264 q 221 393 139 369 q 103 608 103 492 q 171 754 103 694 q 369 814 239 814 q 580 762 499 814 q 661 636 661 710 q 507 468 661 517 q 694 213 694 344 m 504 639 q 460 744 504 703 q 357 786 417 786 q 266 760 297 786 q 235 689 235 735 q 286 608 235 649 q 392 538 331 574 q 476 488 454 501 q 504 639 504 539 m 213 189 q 213 149 213 189 q 269 60 213 110 q 388 11 325 11 q 491 46 451 11 q 531 139 531 81 q 494 208 531 175 q 374 292 457 242 q 254 368 290 342 q 213 189 213 268 z "},"9":{"ha":765,"x_min":56,"x_max":724,"o":"m 365 817 q 724 406 724 817 q 623 95 724 207 q 329 -17 522 -17 q 187 19 258 -17 q 93 124 115 54 q 86 219 74 174 q 140 283 99 265 q 218 288 182 300 q 269 243 254 276 q 272 165 289 189 q 228 113 254 140 q 209 65 203 86 q 253 30 215 43 q 324 17 290 17 q 380 23 357 17 q 420 37 403 29 q 451 63 438 44 q 473 95 464 82 q 488 138 482 108 q 497 185 493 168 q 501 242 500 203 q 503 300 503 282 l 503 393 q 324 338 438 338 q 133 395 210 338 q 56 565 56 453 q 137 747 56 678 q 365 817 218 817 m 250 572 q 284 433 250 485 q 383 382 318 382 q 503 432 449 382 q 467 703 501 618 q 364 789 433 789 q 250 572 250 789 z "},"\u0000":{"ha":0,"x_min":0,"x_max":0,"o":""},"\r":{"ha":0,"x_min":0,"x_max":0,"o":""}," ":{"ha":299,"x_min":0,"x_max":0,"o":""},"!":{"ha":433,"x_min":63,"x_max":371,"o":"m 158 428 q 140 460 158 428 q 92 542 122 493 q 63 647 63 592 q 100 746 63 701 q 217 790 138 790 q 333 746 296 790 q 371 647 371 701 q 342 544 371 593 q 276 428 313 494 q 228 288 240 363 l 206 288 q 158 428 194 363 m 219 -29 q 192 -29 219 -29 q 128 8 165 -29 q 90 99 90 46 q 128 190 90 153 q 219 228 165 228 q 310 190 272 228 q 347 99 347 153 q 310 8 347 46 q 219 -29 272 -29 z "},"\"":{"ha":364,"x_min":21,"x_max":349,"o":"m 244 731 q 236 762 244 731 q 217 836 228 793 q 207 909 207 879 q 226 964 207 939 q 278 989 246 989 q 330 964 311 989 q 349 910 349 939 q 340 840 349 881 q 312 731 331 799 q 285 626 293 664 l 271 626 q 244 731 261 669 m 58 731 q 50 762 58 731 q 31 836 42 793 q 21 909 21 879 q 40 964 21 939 q 92 989 60 989 q 144 964 125 989 q 163 910 163 939 q 153 840 163 881 q 126 731 144 799 q 99 626 107 664 l 85 626 q 58 731 75 669 z "},"#":{"ha":696,"x_min":28,"x_max":686,"o":"m 686 518 l 540 518 l 465 274 l 622 274 l 622 246 l 457 246 l 383 10 l 354 10 l 428 246 l 192 246 l 119 13 l 90 13 l 163 246 l 28 246 l 28 274 l 171 274 l 247 518 l 85 518 l 85 546 l 256 546 l 331 789 l 360 789 l 285 546 l 519 546 l 594 786 l 624 786 l 549 546 l 686 546 l 686 518 m 436 274 l 511 518 l 276 518 l 200 274 l 436 274 z "},"$":{"ha":761,"x_min":69,"x_max":711,"o":"m 425 -21 l 408 -21 l 408 -71 l 381 -71 l 381 -18 q 238 22 311 -11 q 149 56 164 56 q 97 0 97 56 l 69 0 l 69 324 l 97 324 q 178 115 97 203 q 381 13 260 26 l 381 275 q 167 385 215 347 q 91 561 81 451 q 174 731 101 671 q 347 792 246 792 q 381 790 369 792 l 381 879 l 408 879 l 408 788 q 515 763 460 782 q 583 743 569 743 q 611 792 611 743 l 639 792 l 639 538 l 611 538 q 556 683 611 624 q 408 758 500 743 l 408 515 q 425 508 414 513 q 444 499 436 503 q 483 481 453 494 q 528 460 514 467 q 568 440 542 454 q 608 415 594 426 q 642 388 621 404 q 672 353 663 371 q 692 314 682 336 q 706 210 711 269 q 622 38 694 97 q 425 -21 549 -21 m 349 764 q 268 734 297 764 q 239 657 239 704 q 274 583 239 610 q 381 526 308 556 l 381 763 q 349 764 371 764 m 408 10 l 419 10 q 509 42 475 10 q 543 123 543 75 q 510 200 543 171 q 408 261 476 229 l 408 10 z "},"%":{"ha":875,"x_min":56,"x_max":819,"o":"m 626 324 q 558 170 558 324 q 628 17 558 17 q 692 179 692 17 q 676 290 692 256 q 626 324 661 324 m 626 351 q 672 351 626 351 q 768 304 717 351 q 819 176 819 257 q 769 42 819 94 q 623 -10 719 -10 q 479 40 526 -10 q 432 169 432 89 q 484 301 432 250 q 626 351 536 351 m 217 3 l 622 788 l 647 775 l 240 -10 l 217 3 m 250 764 q 182 610 182 764 q 251 457 182 457 q 315 619 315 457 q 300 730 315 696 q 250 764 285 764 m 250 792 q 295 792 250 792 q 392 744 340 792 q 443 616 443 697 q 393 483 443 535 q 247 431 343 431 q 103 480 150 431 q 56 610 56 529 q 108 741 56 690 q 250 792 160 792 z "},"&":{"ha":1189,"x_min":36,"x_max":1175,"o":"m 1175 300 l 1175 282 q 1128 110 1175 193 q 1081 48 1108 74 q 1006 4 1053 22 q 900 -14 958 -14 q 615 83 747 -14 q 509 8 572 28 q 358 -12 446 -12 q 206 15 271 -12 q 105 87 142 43 q 52 185 68 131 q 44 293 36 240 q 83 394 51 346 q 174 475 115 442 q 315 513 232 508 q 308 581 308 550 q 390 768 308 694 q 605 842 472 842 q 802 782 738 842 q 867 643 867 722 q 805 510 867 564 q 640 457 743 457 l 633 479 q 689 544 668 492 q 710 664 710 597 q 601 814 710 814 q 525 777 554 814 q 496 677 496 740 q 535 517 496 614 q 689 290 582 397 q 830 453 742 411 q 1014 464 918 496 q 1089 403 1063 447 q 1096 311 1115 358 q 1038 248 1076 264 q 961 247 999 232 q 909 288 924 263 q 894 336 894 314 q 869 408 894 397 q 791 385 832 424 q 715 264 750 346 q 961 146 840 146 q 1047 162 1010 146 q 1101 200 1083 178 q 1144 283 1140 249 l 1147 300 l 1175 300 m 265 224 q 351 117 292 165 q 474 59 410 68 q 588 106 539 50 q 476 214 531 151 q 321 486 356 349 q 249 381 267 453 q 265 224 231 310 z "},"'":{"ha":251,"x_min":61,"x_max":203,"o":"m 99 731 q 90 762 99 731 q 72 836 82 793 q 61 909 61 879 q 81 964 61 939 q 133 989 100 989 q 184 964 165 989 q 203 910 203 939 q 194 840 203 881 q 166 731 185 799 q 139 626 147 664 l 125 626 q 99 731 115 669 z "},"(":{"ha":443,"x_min":56,"x_max":429,"o":"m 172 47 q 114 118 172 47 q 56 396 56 189 q 172 744 56 603 q 429 906 289 886 l 429 878 q 297 712 344 838 q 250 396 250 586 q 297 80 250 206 q 429 -86 344 -46 l 429 -114 q 172 47 289 -94 z "},")":{"ha":443,"x_min":14,"x_max":388,"o":"m 271 744 q 329 674 271 744 q 388 396 388 603 q 271 47 388 189 q 14 -114 154 -94 l 14 -86 q 146 80 99 -46 q 193 396 193 206 q 146 712 193 586 q 14 878 99 838 l 14 906 q 271 744 154 886 z "},"*":{"ha":456,"x_min":7,"x_max":450,"o":"m 289 475 q 227 404 289 404 q 165 475 165 404 q 192 535 165 499 q 219 610 219 572 q 169 549 188 592 q 129 494 151 507 q 36 514 68 460 q 67 601 7 568 q 133 609 88 614 q 210 622 179 604 q 133 635 179 640 q 67 643 88 631 q 36 731 7 676 q 129 750 68 785 q 169 695 151 738 q 219 635 188 653 q 192 708 219 672 q 165 769 165 744 q 227 840 165 840 q 289 769 289 840 q 262 708 289 744 q 235 635 235 671 q 284 695 265 653 q 326 750 303 738 q 419 731 388 785 q 388 643 450 676 q 322 635 367 631 q 244 622 276 640 q 322 609 276 604 q 388 601 368 614 q 419 514 450 568 q 326 494 388 460 q 284 549 303 507 q 235 610 265 592 q 262 537 235 574 q 289 475 289 500 z "},"+":{"ha":674,"x_min":28,"x_max":646,"o":"m 350 336 l 646 336 l 646 308 l 350 308 l 350 13 l 322 13 l 322 308 l 28 308 l 28 336 l 322 336 l 322 631 l 350 631 l 350 336 z "},",":{"ha":403,"x_min":51,"x_max":321,"o":"m 213 7 l 156 -1 q 83 26 115 -1 q 51 106 51 54 q 85 193 51 158 q 181 228 119 228 q 282 181 243 228 q 321 74 321 133 q 265 -85 321 -12 q 103 -206 208 -158 l 93 -181 q 238 -17 238 -96 q 213 7 238 7 z "},"-":{"ha":349,"x_min":56,"x_max":293,"o":"m 56 275 l 56 381 l 293 381 l 293 275 l 56 275 z "},".":{"ha":354,"x_min":50,"x_max":307,"o":"m 178 -29 q 152 -29 178 -29 q 88 8 125 -29 q 50 99 50 46 q 88 190 50 153 q 178 228 125 228 q 269 190 232 228 q 307 99 307 153 q 269 8 307 46 q 178 -29 232 -29 z "},"/":{"ha":367,"x_min":56,"x_max":311,"o":"m 56 1 l 286 783 l 311 776 l 82 -7 l 56 1 z "},":":{"ha":367,"x_min":50,"x_max":307,"o":"m 178 -29 q 152 -29 178 -29 q 88 8 125 -29 q 50 99 50 46 q 88 190 50 153 q 178 228 125 228 q 269 190 232 228 q 307 99 307 153 q 269 8 307 46 q 178 -29 232 -29 m 178 392 q 152 392 178 392 q 88 429 125 392 q 50 520 50 467 q 88 611 50 574 q 178 649 125 649 q 269 611 232 649 q 307 520 307 574 q 269 429 307 467 q 178 392 232 392 z "},";":{"ha":367,"x_min":50,"x_max":321,"o":"m 178 392 q 152 392 178 392 q 88 429 125 392 q 50 520 50 467 q 88 611 50 574 q 178 649 125 649 q 269 611 232 649 q 307 520 307 574 q 269 429 307 467 q 178 392 232 392 m 213 7 l 156 -1 q 83 26 115 -1 q 51 106 51 54 q 85 193 51 158 q 181 228 119 228 q 282 181 243 228 q 321 74 321 133 q 265 -85 321 -12 q 103 -206 208 -158 l 93 -181 q 238 -17 238 -96 q 213 7 238 7 z "},"<":{"ha":671,"x_min":42,"x_max":629,"o":"m 629 63 l 629 31 l 42 328 l 42 346 l 629 640 l 629 610 l 85 336 l 629 63 z "},"=":{"ha":646,"x_min":42,"x_max":604,"o":"m 604 231 l 604 201 l 42 201 l 42 231 l 604 231 m 604 446 l 604 418 l 42 418 l 42 446 l 604 446 z "},">":{"ha":671,"x_min":42,"x_max":629,"o":"m 42 31 l 42 63 l 586 336 l 42 610 l 42 640 l 629 346 l 629 328 l 42 31 z "},"?":{"ha":626,"x_min":14,"x_max":590,"o":"m 282 792 q 544 708 463 792 q 585 595 590 660 q 543 491 579 531 q 460 433 507 451 q 369 397 414 414 q 288 271 268 357 l 264 271 q 186 400 176 321 q 218 465 190 435 q 276 513 246 494 q 335 558 307 531 q 371 614 364 585 q 350 720 388 686 q 261 754 313 754 q 163 735 210 754 q 115 698 115 715 q 129 669 115 681 q 160 650 143 657 q 190 624 176 643 q 204 573 204 604 q 178 517 204 542 q 113 492 151 492 q 44 524 74 492 q 14 603 14 556 q 88 737 14 682 q 282 792 163 792 m 281 -29 q 255 -29 281 -29 q 190 8 228 -29 q 153 99 153 46 q 190 190 153 153 q 281 228 228 228 q 372 190 335 228 q 410 99 410 153 q 372 8 410 46 q 281 -29 335 -29 z "},"@":{"ha":1389,"x_min":176,"x_max":1136,"o":"m 908 163 q 974 97 908 97 q 1061 178 1022 97 q 1100 344 1100 258 q 987 650 1100 536 q 667 764 874 764 q 337 640 461 764 q 213 320 213 517 q 337 11 213 124 q 654 -101 461 -101 q 731 -94 689 -101 l 731 -132 q 656 -137 699 -137 q 312 -15 447 -137 q 176 319 176 108 q 312 665 176 531 q 668 799 447 799 q 1013 674 889 799 q 1136 344 1136 550 q 1116 210 1136 268 q 1072 118 1096 151 q 1003 62 1047 85 q 913 39 960 39 q 835 47 865 39 q 788 67 804 56 q 740 118 754 92 q 601 53 700 53 q 437 122 501 53 q 372 324 372 190 q 439 536 372 458 q 604 614 506 614 q 740 538 703 614 l 742 603 l 964 603 l 964 581 l 908 581 l 908 163 m 740 201 l 740 490 q 663 551 711 551 q 578 493 614 551 q 543 332 543 435 q 663 125 543 125 q 717 144 693 125 q 740 201 740 163 z "},"A":{"ha":893,"x_min":14,"x_max":879,"o":"m 879 28 l 879 0 l 514 0 l 514 28 l 596 28 l 503 221 l 222 221 l 142 28 l 251 28 l 251 0 l 14 0 l 14 28 l 107 28 l 425 792 l 460 792 l 813 28 l 879 28 m 235 250 l 489 250 l 353 533 l 235 250 z "},"B":{"ha":828,"x_min":56,"x_max":800,"o":"m 333 425 l 376 425 q 544 585 544 425 q 376 750 544 750 l 333 750 l 333 425 m 333 28 l 411 28 q 543 71 494 28 q 592 196 592 114 q 535 354 592 311 q 378 397 478 397 l 333 397 l 333 28 m 56 0 l 56 28 l 125 28 l 125 750 l 56 750 l 56 778 l 406 778 q 659 725 578 778 q 740 581 740 672 q 692 460 740 507 q 564 414 644 414 l 564 406 q 732 352 664 406 q 800 200 800 299 q 721 51 800 101 q 494 0 642 0 l 56 0 z "},"C":{"ha":778,"x_min":35,"x_max":743,"o":"m 729 468 l 701 468 q 631 674 701 579 q 428 768 560 768 q 306 682 354 768 q 258 388 258 596 q 306 93 258 179 q 456 7 354 7 q 628 71 558 7 q 715 251 699 135 l 743 251 q 647 47 724 114 q 463 -21 569 -21 q 145 78 256 -21 q 35 390 35 178 q 142 699 35 601 q 428 796 250 796 q 614 744 524 796 q 662 726 643 726 q 692 744 681 726 q 703 778 703 761 l 729 778 l 729 468 z "},"D":{"ha":854,"x_min":56,"x_max":826,"o":"m 403 0 l 56 0 l 56 28 l 125 28 l 125 750 l 56 750 l 56 778 l 403 778 q 588 744 506 778 q 722 654 671 710 q 826 393 826 539 q 722 98 826 196 q 403 0 618 0 m 333 28 q 550 109 483 28 q 617 374 617 190 q 544 654 617 558 q 333 750 472 750 l 333 28 z "},"E":{"ha":757,"x_min":56,"x_max":708,"o":"m 472 28 q 681 264 681 28 l 708 264 l 708 0 l 56 0 l 56 28 l 125 28 l 125 750 l 56 750 l 56 778 l 694 778 l 694 542 l 667 542 q 617 708 667 665 q 458 750 568 750 l 333 750 l 333 417 l 389 417 q 515 442 489 417 q 542 542 542 467 l 569 542 l 569 264 l 542 264 q 515 365 542 342 q 389 389 489 389 l 333 389 l 333 28 l 472 28 z "},"F":{"ha":736,"x_min":56,"x_max":694,"o":"m 694 778 l 694 542 l 667 542 q 617 708 667 665 q 458 750 568 750 l 333 750 l 333 386 l 389 386 q 515 411 489 386 q 542 511 542 436 l 569 511 l 569 233 l 542 233 q 515 335 542 311 q 389 358 489 358 l 333 358 l 333 28 l 417 28 l 417 0 l 56 0 l 56 28 l 125 28 l 125 750 l 56 750 l 56 778 l 694 778 z "},"G":{"ha":844,"x_min":42,"x_max":817,"o":"m 725 0 q 707 53 725 32 q 660 75 689 75 q 602 51 632 75 q 533 3 572 28 q 438 -21 493 -21 q 145 76 249 -21 q 42 375 42 174 q 435 796 42 796 q 580 761 506 796 q 671 726 654 726 q 699 744 688 726 q 710 778 710 761 l 736 778 l 736 496 l 708 496 q 626 685 708 601 q 435 768 543 768 q 308 678 351 768 q 265 383 265 589 q 309 92 265 176 q 438 7 353 7 q 571 244 571 7 l 571 347 l 483 347 l 483 375 l 817 375 l 817 347 l 751 347 l 751 0 l 725 0 z "},"H":{"ha":913,"x_min":42,"x_max":871,"o":"m 871 750 l 801 750 l 801 28 l 871 28 l 871 0 l 524 0 l 524 28 l 593 28 l 593 400 l 319 400 l 319 28 l 389 28 l 389 0 l 42 0 l 42 28 l 111 28 l 111 750 l 42 750 l 42 778 l 389 778 l 389 750 l 319 750 l 319 428 l 593 428 l 593 750 l 524 750 l 524 778 l 871 778 l 871 750 z "},"I":{"ha":458,"x_min":56,"x_max":403,"o":"m 403 0 l 56 0 l 56 28 l 125 28 l 125 750 l 56 750 l 56 778 l 403 778 l 403 750 l 333 750 l 333 28 l 403 28 l 403 0 z "},"J":{"ha":694,"x_min":14,"x_max":653,"o":"m 256 0 q 80 50 146 0 q 14 194 14 100 q 47 284 14 246 q 125 322 79 322 q 198 294 171 322 q 225 222 225 265 q 153 132 225 154 q 130 126 144 129 q 108 119 115 122 q 90 93 90 115 q 127 51 90 71 q 210 32 164 32 q 375 274 375 32 l 375 750 l 306 750 l 306 778 l 653 778 l 653 750 l 583 750 l 583 286 q 501 76 583 151 q 256 0 419 0 z "},"K":{"ha":889,"x_min":56,"x_max":875,"o":"m 875 28 l 875 0 l 514 0 l 514 28 l 576 28 l 392 365 l 333 292 l 333 28 l 403 28 l 403 0 l 56 0 l 56 28 l 125 28 l 125 750 l 56 750 l 56 778 l 403 778 l 403 750 l 333 750 l 333 340 l 656 750 l 528 750 l 528 778 l 811 778 l 811 750 l 693 750 l 529 542 l 815 28 l 875 28 z "},"L":{"ha":722,"x_min":56,"x_max":708,"o":"m 681 264 l 708 264 l 708 0 l 56 0 l 56 28 l 125 28 l 125 750 l 56 750 l 56 778 l 417 778 l 417 750 l 333 750 l 333 28 l 472 28 q 551 35 519 28 q 615 64 582 42 q 681 264 681 107 z "},"M":{"ha":1089,"x_min":42,"x_max":1047,"o":"m 1047 750 l 978 750 l 978 28 l 1047 28 l 1047 0 l 700 0 l 700 28 l 769 28 l 769 699 l 494 -14 l 463 -14 l 154 718 l 154 28 l 265 28 l 265 0 l 43 0 l 43 28 l 126 28 l 126 750 l 42 750 l 42 778 l 351 778 l 568 257 l 769 778 l 1047 778 l 1047 750 z "},"N":{"ha":831,"x_min":28,"x_max":803,"o":"m 139 28 l 250 28 l 250 0 l 28 0 l 28 28 l 111 28 l 111 689 q 28 750 67 750 l 28 778 l 288 778 l 678 315 l 678 750 l 567 750 l 567 778 l 803 778 l 803 750 l 706 750 l 706 -14 l 678 -14 l 139 654 l 139 28 z "},"O":{"ha":864,"x_min":28,"x_max":836,"o":"m 613 390 q 565 667 613 568 q 433 767 517 767 q 300 667 349 767 q 251 388 251 567 q 298 111 251 208 q 432 14 344 14 q 613 390 613 14 m 836 383 q 836 287 836 383 q 724 89 836 192 q 431 -14 611 -14 q 139 88 250 -14 q 28 381 28 190 q 139 683 28 572 q 434 794 250 794 q 727 684 618 794 q 836 383 836 574 z "},"P":{"ha":782,"x_min":56,"x_max":740,"o":"m 333 750 l 333 297 q 489 347 447 297 q 531 519 531 396 q 489 697 531 643 q 333 750 447 750 m 403 28 l 403 0 l 56 0 l 56 28 l 125 28 l 125 750 l 56 750 l 56 778 l 332 778 q 740 515 740 797 q 638 325 740 390 q 333 269 535 260 l 333 28 l 403 28 z "},"Q":{"ha":950,"x_min":42,"x_max":975,"o":"m 347 -101 q 592 -126 461 -94 q 799 -157 724 -157 q 910 -125 874 -157 q 947 -44 947 -93 l 975 -44 q 932 -284 975 -204 q 775 -364 889 -364 q 586 -281 679 -364 q 508 -211 547 -246 q 324 -128 415 -128 q 203 -176 265 -128 l 188 -151 q 275 -95 232 -112 q 336 -72 318 -78 q 429 -46 361 -62 q 667 383 667 25 q 608 667 667 569 q 460 764 549 764 q 319 666 372 764 q 267 397 267 568 q 312 133 267 226 q 446 39 357 39 l 446 11 q 150 104 258 11 q 42 378 42 197 q 157 675 42 558 q 461 792 272 792 q 771 675 650 792 q 892 382 892 558 q 849 196 892 279 q 731 56 807 113 q 347 -96 579 -57 l 347 -101 z "},"R":{"ha":879,"x_min":42,"x_max":865,"o":"m 319 750 l 319 392 q 506 432 458 392 q 553 567 553 472 q 504 706 553 661 q 319 750 456 750 m 865 -14 l 804 -14 q 563 61 631 -14 q 489 215 508 119 q 471 289 481 256 q 381 364 449 364 l 319 364 l 319 28 l 389 28 l 389 0 l 42 0 l 42 28 l 111 28 l 111 750 l 42 750 l 42 778 l 407 778 q 761 571 761 778 q 701 438 761 489 q 549 386 642 386 l 549 376 q 742 193 688 376 q 798 55 769 96 q 865 14 826 14 l 865 -14 z "},"S":{"ha":775,"x_min":83,"x_max":725,"o":"m 111 0 l 83 0 l 83 324 l 111 324 q 205 101 111 193 q 433 10 299 10 q 523 42 489 10 q 557 129 557 75 q 478 233 557 190 q 329 303 435 256 q 181 385 224 351 q 105 561 94 451 q 188 731 115 671 q 351 792 260 792 q 515 767 442 792 q 597 743 588 743 q 625 792 625 743 l 653 792 l 653 538 l 625 538 q 551 701 625 638 q 363 764 478 764 q 282 734 311 764 q 253 668 253 704 q 263 613 253 632 q 297 577 272 593 q 339 551 321 561 q 397 525 357 542 q 451 501 436 508 q 542 460 528 467 q 582 440 556 454 q 622 415 608 426 q 656 388 635 404 q 686 353 676 371 q 706 314 696 336 q 719 210 725 269 q 635 38 708 97 q 439 -21 563 -21 q 218 36 328 -21 q 163 56 181 56 q 111 0 111 56 z "},"T":{"ha":790,"x_min":28,"x_max":763,"o":"m 735 542 q 694 708 735 665 q 540 750 653 750 l 499 750 l 499 28 l 596 28 l 596 0 l 193 0 l 193 28 l 290 28 l 290 750 l 249 750 q 97 708 138 750 q 56 542 56 665 l 28 542 l 28 778 l 763 778 l 763 542 l 735 542 z "},"U":{"ha":840,"x_min":28,"x_max":826,"o":"m 757 339 q 454 -21 757 -21 q 192 65 286 -21 q 97 325 97 151 l 97 750 l 28 750 l 28 778 l 389 778 l 389 750 l 319 750 l 319 310 q 514 19 319 19 q 658 98 593 19 q 722 311 722 176 l 722 750 l 613 750 l 613 778 l 826 778 l 826 750 l 757 750 l 757 339 z "},"V":{"ha":869,"x_min":14,"x_max":856,"o":"m 856 778 l 856 750 l 761 750 l 465 0 l 429 0 l 81 750 l 14 750 l 14 778 l 407 778 l 407 750 l 339 750 l 542 285 l 725 750 l 614 750 l 614 778 l 856 778 z "},"W":{"ha":1276,"x_min":14,"x_max":1263,"o":"m 14 750 l 14 778 l 421 778 l 421 750 l 353 750 l 543 321 l 632 542 l 539 750 l 486 750 l 486 778 l 867 778 l 867 750 l 801 750 l 988 326 l 1135 750 l 1024 750 l 1024 778 l 1263 778 l 1263 750 l 1168 750 l 908 0 l 875 0 l 881 15 l 874 0 l 650 503 l 449 0 l 415 0 l 81 750 l 14 750 z "},"X":{"ha":868,"x_min":14,"x_max":854,"o":"m 854 28 l 854 0 l 472 0 l 472 28 l 542 28 l 349 344 l 151 28 l 264 28 l 264 0 l 14 0 l 14 28 l 114 28 l 331 375 l 103 750 l 29 750 l 29 778 l 417 778 l 417 750 l 353 750 l 501 504 l 667 750 l 556 750 l 556 778 l 806 778 l 806 750 l 704 750 l 518 475 l 788 28 l 854 28 z "},"Y":{"ha":856,"x_min":14,"x_max":842,"o":"m 599 0 l 279 0 l 279 28 l 335 28 l 335 321 l 86 750 l 14 750 l 14 778 l 403 778 l 403 750 l 335 750 l 529 400 l 710 750 l 599 750 l 599 778 l 842 778 l 842 750 l 744 750 l 543 358 l 543 28 l 599 28 l 599 0 z "},"Z":{"ha":735,"x_min":42,"x_max":679,"o":"m 651 292 l 679 292 l 679 0 l 42 0 l 42 28 l 435 750 l 346 750 q 164 704 217 750 q 111 514 111 658 l 83 514 l 83 778 l 669 778 l 669 750 l 271 28 l 417 28 q 522 37 482 28 q 594 72 563 46 q 651 292 651 122 z "},"[":{"ha":375,"x_min":69,"x_max":361,"o":"m 69 -79 l 69 857 l 361 857 l 361 829 l 242 829 l 242 -51 l 361 -51 l 361 -79 l 69 -79 z "},"\\":{"ha":367,"x_min":56,"x_max":311,"o":"m 81 783 l 311 1 l 285 -7 l 56 776 l 81 783 z "},"]":{"ha":375,"x_min":14,"x_max":306,"o":"m 306 -79 l 14 -79 l 14 -51 l 133 -51 l 133 829 l 14 829 l 14 857 l 306 857 l 306 -79 z "},"^":{"ha":475,"x_min":42,"x_max":433,"o":"m 238 632 l 65 275 l 42 286 l 229 679 l 246 679 l 433 286 l 408 275 l 238 632 z "},"_":{"ha":725,"x_min":42,"x_max":683,"o":"m 42 -89 l 42 -61 l 683 -61 l 683 -89 l 42 -89 z "},"`":{"ha":749,"x_min":272,"x_max":471,"o":"m 471 710 l 451 696 q 369 749 425 733 q 293 793 314 764 q 279 856 272 822 q 315 903 286 890 q 367 909 338 917 q 415 874 396 901 q 441 796 435 847 q 471 710 447 744 z "},"a":{"ha":757,"x_min":56,"x_max":729,"o":"m 729 28 q 676 3 715 14 q 586 -7 638 -7 q 443 61 472 -7 q 231 -11 374 -11 q 105 24 154 -11 q 56 129 56 60 q 128 273 56 222 q 381 344 200 324 l 436 351 l 436 419 q 418 582 436 540 q 347 624 400 624 q 278 609 293 624 q 267 576 263 594 q 281 526 271 557 q 290 478 290 496 q 260 405 290 435 q 188 375 231 375 q 115 405 146 375 q 85 478 85 435 q 158 599 85 549 q 376 650 231 650 q 583 593 521 650 q 644 392 644 536 l 644 142 q 663 49 644 68 q 729 42 681 31 l 729 28 m 249 157 q 288 76 256 104 q 362 47 319 47 q 436 89 404 47 l 436 325 l 386 318 q 283 269 322 310 q 249 157 243 229 z "},"b":{"ha":775,"x_min":14,"x_max":733,"o":"m 292 217 q 315 65 292 111 q 391 18 339 18 q 483 97 443 18 q 524 317 524 175 q 481 536 524 460 q 382 613 439 613 q 292 547 325 613 l 292 217 m 618 49 q 592 32 618 49 q 518 1 567 15 q 423 -12 469 -12 q 338 5 376 -12 q 276 42 299 22 q 225 80 253 63 q 172 97 197 97 q 128 69 147 97 q 110 0 110 42 l 83 0 l 83 903 l 14 903 l 14 931 l 292 931 l 292 589 q 365 648 314 626 q 471 669 415 669 q 655 577 576 669 q 733 319 733 485 q 701 153 733 222 q 618 49 669 83 z "},"c":{"ha":699,"x_min":42,"x_max":674,"o":"m 42 319 q 138 568 42 483 q 381 653 233 653 q 601 578 529 653 q 653 425 674 504 q 606 362 642 382 q 529 351 571 342 q 442 453 442 372 q 447 516 442 474 q 450 578 451 558 q 442 608 449 597 q 376 626 428 632 q 251 320 251 607 q 456 33 251 33 q 551 58 503 33 q 624 118 600 83 l 643 104 q 547 19 611 51 q 404 -12 483 -12 q 42 319 42 -12 z "},"d":{"ha":817,"x_min":42,"x_max":775,"o":"m 318 -17 q 124 72 206 -17 q 42 324 42 161 q 122 578 42 486 q 318 669 203 669 q 425 646 375 669 q 497 575 475 622 l 497 903 l 428 903 l 428 931 l 706 931 l 706 28 l 775 28 l 775 0 l 497 0 l 497 64 q 318 -17 460 -17 m 497 304 l 497 533 q 399 608 460 608 q 296 539 339 608 q 253 319 253 469 q 297 99 253 168 q 404 39 342 29 q 457 61 439 44 q 497 304 497 100 z "},"e":{"ha":715,"x_min":42,"x_max":669,"o":"m 669 278 l 250 278 q 440 33 264 33 q 548 56 488 33 q 636 118 608 78 l 656 104 q 551 19 625 53 q 405 -14 478 -14 q 274 1 332 -14 q 160 50 215 15 q 73 154 104 85 q 42 322 42 224 q 135 572 42 490 q 360 653 228 653 q 581 564 493 653 q 669 278 669 475 m 249 306 l 475 306 q 448 529 475 433 q 361 625 421 625 q 275 533 301 625 q 249 321 249 440 l 249 306 z "},"f":{"ha":600,"x_min":42,"x_max":600,"o":"m 403 0 l 56 0 l 56 28 l 125 28 l 125 611 l 42 611 l 42 639 l 125 639 q 400 944 125 944 q 549 903 497 944 q 600 808 600 863 q 578 756 600 775 q 528 738 557 738 q 453 827 453 738 q 400 917 453 917 q 347 849 361 917 q 333 639 333 782 l 514 639 l 514 611 l 333 611 l 333 28 l 403 28 l 403 0 z "},"g":{"ha":768,"x_min":39,"x_max":740,"o":"m 222 129 q 272 85 222 90 l 511 85 q 683 32 635 85 q 717 -99 732 -21 q 622 -242 703 -176 q 400 -307 542 -307 q 67 -231 140 -307 q 43 -159 39 -200 q 74 -92 47 -118 q 133 -57 100 -67 q 89 36 89 -19 q 123 135 89 92 q 201 206 157 179 q 42 415 42 264 q 145 590 42 528 q 379 651 249 651 q 504 632 442 651 q 472 735 472 675 q 513 834 472 794 q 616 874 554 874 q 709 841 678 874 q 740 768 740 808 q 716 700 740 728 q 652 672 692 672 q 589 699 613 672 q 565 752 565 725 q 576 799 565 779 q 586 822 586 819 q 558 835 582 844 q 517 795 535 825 q 500 726 500 765 q 568 604 500 650 q 688 419 688 538 q 589 241 688 301 q 356 181 490 181 q 240 194 290 181 q 222 129 222 164 m 479 419 q 479 478 479 419 q 451 581 479 538 q 369 624 424 624 q 289 580 314 624 q 264 419 264 536 q 290 256 264 303 q 370 208 317 208 q 451 254 424 208 q 479 419 479 300 m 503 -96 l 269 -96 q 157 -72 203 -96 q 208 -226 138 -172 q 400 -279 278 -279 q 603 -218 522 -279 q 644 -162 640 -190 q 613 -115 649 -135 q 503 -96 576 -96 z "},"h":{"ha":896,"x_min":56,"x_max":854,"o":"m 785 28 l 854 28 l 854 0 l 507 0 l 507 28 l 576 28 l 576 417 q 547 557 576 515 q 460 599 518 599 q 333 515 381 599 l 333 28 l 403 28 l 403 0 l 56 0 l 56 28 l 125 28 l 125 903 l 56 903 l 56 931 l 333 931 l 333 567 q 415 629 360 604 q 538 654 471 654 q 785 386 785 654 l 785 28 z "},"i":{"ha":444,"x_min":56,"x_max":403,"o":"m 333 28 l 403 28 l 403 0 l 56 0 l 56 28 l 125 28 l 125 611 l 69 611 l 69 639 l 333 639 l 333 28 m 346 823 q 346 798 346 823 q 310 737 346 772 q 224 701 275 701 q 138 737 174 701 q 101 823 101 772 q 138 910 101 874 q 224 946 174 946 q 310 910 275 946 q 346 823 346 874 z "},"j":{"ha":461,"x_min":-128,"x_max":364,"o":"m 139 0 l 139 611 l 69 611 l 69 639 l 347 639 l 347 0 q 72 -306 347 -306 q -81 -266 -33 -306 q -128 -169 -128 -226 q -106 -117 -128 -136 q -56 -99 -85 -99 q 19 -188 19 -99 q 72 -278 19 -278 q 125 -210 111 -278 q 139 0 139 -143 m 242 946 q 268 946 242 946 q 328 910 293 946 q 364 823 364 874 q 328 737 364 772 q 242 701 293 701 q 156 737 192 701 q 119 823 119 772 q 156 910 119 874 q 242 946 192 946 z "},"k":{"ha":858,"x_min":56,"x_max":844,"o":"m 844 28 l 844 0 q 583 27 656 0 q 439 163 510 54 l 351 297 l 333 281 l 333 28 l 403 28 l 403 0 l 56 0 l 56 28 l 125 28 l 125 903 l 56 903 l 56 931 l 333 931 l 333 322 l 624 611 l 511 611 l 511 639 l 775 639 l 775 611 l 665 611 l 499 446 l 665 196 q 844 28 778 28 z "},"l":{"ha":444,"x_min":56,"x_max":403,"o":"m 333 28 l 403 28 l 403 0 l 56 0 l 56 28 l 125 28 l 125 903 l 56 903 l 56 931 l 333 931 l 333 28 z "},"m":{"ha":1333,"x_min":56,"x_max":1292,"o":"m 1222 28 l 1292 28 l 1292 0 l 944 0 l 944 28 l 1014 28 l 1014 417 q 985 557 1014 515 q 897 599 956 599 q 828 579 864 599 q 768 525 792 560 q 785 386 785 475 l 785 28 l 854 28 l 854 0 l 493 0 l 493 28 l 576 28 l 576 417 q 547 557 576 515 q 460 599 518 599 q 333 515 381 599 l 333 28 l 403 28 l 403 0 l 56 0 l 56 28 l 125 28 l 125 611 l 56 611 l 56 639 l 333 639 l 333 567 q 416 628 360 603 q 538 654 472 654 q 753 561 703 654 q 849 630 789 606 q 975 654 908 654 q 1222 386 1222 654 l 1222 28 z "},"n":{"ha":896,"x_min":56,"x_max":854,"o":"m 785 28 l 854 28 l 854 0 l 507 0 l 507 28 l 576 28 l 576 417 q 547 557 576 515 q 460 599 518 599 q 333 515 381 599 l 333 28 l 403 28 l 403 0 l 56 0 l 56 28 l 125 28 l 125 611 l 56 611 l 56 639 l 333 639 l 333 567 q 416 628 360 603 q 538 654 472 654 q 785 386 785 654 l 785 28 z "},"o":{"ha":783,"x_min":42,"x_max":742,"o":"m 285 84 q 300 49 285 84 q 390 14 315 14 q 497 85 465 14 q 529 319 529 156 q 497 553 529 482 q 390 625 465 625 q 285 553 315 625 q 254 318 254 482 q 285 84 254 154 m 388 -14 q 322 -14 388 -14 q 149 72 256 -14 q 42 317 42 158 q 73 468 42 401 q 156 574 104 535 q 268 633 208 613 q 390 653 328 653 q 513 633 453 653 q 626 574 574 613 q 710 468 678 535 q 742 318 742 401 q 710 169 742 235 q 625 65 678 104 q 388 -14 519 -14 z "},"p":{"ha":803,"x_min":28,"x_max":761,"o":"m 306 335 l 306 106 q 403 31 343 31 q 507 100 464 31 q 550 323 550 169 q 517 538 550 476 q 415 600 483 600 q 326 544 347 600 q 306 335 306 489 m 306 575 q 475 656 353 656 q 679 567 597 656 q 761 315 761 478 q 681 61 761 153 q 485 -31 600 -31 q 378 -7 428 -31 q 306 64 328 17 l 306 -264 l 375 -264 l 375 -292 l 97 -292 l 97 611 l 28 611 l 28 639 l 306 639 l 306 575 z "},"q":{"ha":803,"x_min":42,"x_max":775,"o":"m 497 639 l 775 639 l 775 611 l 706 611 l 706 -264 l 775 -264 l 775 -292 l 428 -292 l 428 -264 l 497 -264 l 497 64 q 425 -7 475 17 q 318 -31 375 -31 q 122 61 203 -31 q 42 315 42 153 q 124 567 42 478 q 328 656 206 656 q 497 575 450 656 l 497 639 m 497 335 q 476 544 497 489 q 388 600 456 600 q 286 538 319 600 q 253 323 253 476 q 296 100 253 169 q 399 31 339 31 q 497 106 460 31 l 497 335 z "},"r":{"ha":671,"x_min":56,"x_max":665,"o":"m 403 0 l 56 0 l 56 28 l 125 28 l 125 611 l 56 611 l 56 639 l 333 639 l 333 474 q 378 585 346 542 q 451 642 411 628 q 527 656 490 656 q 598 642 564 656 q 649 590 632 629 q 650 510 665 550 q 597 454 635 471 q 526 450 558 438 q 481 484 494 463 q 461 525 467 506 q 424 576 447 576 q 365 485 397 576 q 333 293 333 394 l 333 28 l 403 28 l 403 0 z "},"s":{"ha":660,"x_min":36,"x_max":633,"o":"m 361 11 q 506 90 506 11 q 456 163 506 135 q 335 210 406 192 q 195 251 264 228 q 81 326 126 275 q 44 461 36 378 q 130 599 53 544 q 320 653 207 653 q 503 617 433 653 q 581 519 572 581 q 569 450 586 482 q 512 417 551 418 q 447 438 472 415 q 422 489 421 460 q 444 541 424 518 q 465 578 465 564 q 420 613 465 601 q 316 625 375 625 q 219 599 257 625 q 182 533 182 572 q 228 467 182 494 q 342 422 275 439 q 474 383 408 404 q 587 314 540 361 q 633 194 633 267 q 565 41 633 99 q 360 -17 497 -17 q 137 25 222 -17 q 43 132 51 67 q 56 201 38 169 q 113 235 74 233 q 177 214 151 236 q 201 163 203 192 q 179 110 200 133 q 158 74 158 88 q 223 28 158 46 q 361 11 288 11 z "},"t":{"ha":501,"x_min":0,"x_max":488,"o":"m 311 611 l 311 272 q 321 127 311 153 q 342 83 331 101 q 415 47 363 47 q 488 61 467 47 l 488 33 q 342 -14 421 -14 q 164 42 225 -14 q 103 240 103 97 l 103 611 l 0 611 l 0 639 l 103 639 q 221 703 169 650 q 292 851 272 757 l 311 851 l 311 639 l 472 639 l 472 611 l 311 611 z "},"u":{"ha":854,"x_min":14,"x_max":813,"o":"m 535 0 l 535 74 q 452 10 508 36 q 331 -15 396 -15 q 83 253 83 -15 l 83 611 l 14 611 l 14 639 l 292 639 l 292 222 q 321 82 292 124 q 408 40 350 40 q 535 124 486 40 l 535 611 l 465 611 l 465 639 l 743 639 l 743 28 l 813 28 l 813 0 l 535 0 z "},"v":{"ha":744,"x_min":14,"x_max":731,"o":"m 731 639 l 731 611 l 663 611 l 403 0 l 378 0 l 69 611 l 14 611 l 14 639 l 375 639 l 375 611 l 306 611 l 478 250 l 632 611 l 522 611 l 522 639 l 731 639 z "},"w":{"ha":1153,"x_min":14,"x_max":1139,"o":"m 14 611 l 14 639 l 389 639 l 389 611 l 315 611 l 465 275 l 556 501 l 510 611 l 458 611 l 458 639 l 806 639 l 806 611 l 744 611 l 894 275 l 1024 611 l 913 611 l 913 639 l 1139 639 l 1139 611 l 1056 611 l 821 0 l 792 0 l 572 460 l 390 0 l 361 0 l 79 611 l 14 611 z "},"x":{"ha":800,"x_min":0,"x_max":786,"o":"m 253 0 l 18 0 l 18 28 l 101 28 l 297 288 l 56 611 l 0 611 l 0 639 l 365 639 l 365 611 l 296 611 l 454 399 l 624 611 l 513 611 l 513 639 l 746 639 l 746 611 l 663 611 l 471 375 l 731 28 l 786 28 l 786 0 l 422 0 l 422 28 l 492 28 l 317 261 l 140 28 l 253 28 l 253 0 z "},"y":{"ha":781,"x_min":0,"x_max":767,"o":"m 350 -154 q 271 -270 313 -235 q 160 -306 229 -306 q 51 -276 90 -306 q 13 -197 13 -246 q 41 -118 13 -147 q 110 -89 69 -89 q 178 -104 150 -89 q 217 -137 206 -119 q 274 -186 247 -186 q 322 -139 301 -186 l 381 -1 l 56 611 l 0 611 l 0 639 l 374 639 l 374 611 l 304 611 l 490 244 l 650 611 l 539 611 l 539 639 l 767 639 l 767 611 l 683 611 l 350 -154 z "},"z":{"ha":697,"x_min":14,"x_max":642,"o":"m 14 0 l 14 21 l 407 611 l 325 611 q 79 382 79 611 l 57 382 l 57 639 l 642 639 l 642 622 l 253 28 l 338 28 q 458 36 413 28 q 542 69 504 44 q 614 276 614 118 l 633 276 l 633 0 l 14 0 z "},"{":{"ha":400,"x_min":42,"x_max":386,"o":"m 201 378 q 300 340 265 375 q 335 263 335 306 q 316 138 335 219 q 297 10 297 56 q 316 -58 297 -35 q 386 -81 335 -81 l 386 -108 l 294 -108 q 175 -67 225 -108 q 125 61 125 -25 q 144 171 125 99 q 164 265 164 243 q 42 368 164 368 l 42 389 q 164 492 164 389 q 144 586 164 514 q 125 696 125 658 q 176 828 125 782 q 294 874 226 874 l 386 874 l 386 846 q 317 819 336 846 q 297 747 297 793 q 316 619 297 701 q 335 496 335 538 q 299 416 335 454 q 201 378 263 378 z "},"|":{"ha":194,"x_min":83,"x_max":111,"o":"m 83 -137 l 83 813 l 111 813 l 111 -137 l 83 -137 z "},"}":{"ha":400,"x_min":14,"x_max":358,"o":"m 103 10 q 103 33 103 10 q 84 138 103 56 q 65 263 65 219 q 100 340 65 306 q 199 378 135 375 q 101 416 138 378 q 65 496 65 454 q 84 619 65 538 q 103 747 103 701 q 83 819 103 793 q 14 846 64 846 l 14 874 l 106 874 q 224 828 174 874 q 275 696 275 782 q 256 586 275 658 q 236 492 236 514 q 358 389 236 389 l 358 368 q 236 265 236 368 q 256 171 236 243 q 275 61 275 99 q 225 -67 275 -25 q 106 -108 175 -108 l 14 -108 l 14 -81 q 84 -58 65 -81 q 103 10 103 -35 z "},"~":{"ha":672,"x_min":42,"x_max":631,"o":"m 42 268 q 96 388 42 339 q 219 438 150 438 q 385 397 289 438 q 524 357 482 357 q 583 376 567 357 q 600 425 600 396 l 599 450 l 621 450 q 631 388 631 424 q 576 268 631 318 q 451 218 521 218 q 284 258 381 218 q 147 299 188 299 q 90 279 107 299 q 72 231 72 260 l 74 206 l 51 206 q 42 268 42 236 z "},"¡":{"ha":350,"x_min":49,"x_max":301,"o":"m 186 533 q 251 313 200 444 q 301 125 301 182 q 269 28 301 68 q 175 -11 236 -11 q 81 28 114 -11 q 49 125 49 67 q 100 313 49 183 q 164 533 151 443 l 186 533 m 69 685 q 69 707 69 685 q 101 759 69 728 q 174 790 132 790 q 248 759 217 790 q 279 685 279 728 q 248 611 279 642 q 174 581 217 581 q 101 612 132 581 q 69 685 69 643 z "},"¢":{"ha":576,"x_min":56,"x_max":521,"o":"m 300 228 q 388 197 338 197 q 468 230 439 197 q 504 310 497 263 l 521 310 q 465 176 521 229 q 313 124 408 124 q 249 129 275 124 l 200 38 l 175 50 l 221 136 q 99 218 143 157 q 56 375 56 279 q 126 543 56 471 q 322 615 197 615 q 453 576 403 615 l 497 661 l 521 650 l 472 557 q 504 476 504 521 q 483 408 504 432 q 433 385 461 385 q 388 394 404 385 l 300 228 m 367 413 q 357 453 357 432 q 371 488 357 474 q 400 507 385 503 q 444 539 444 518 q 422 575 444 560 q 361 590 399 590 q 269 531 303 590 q 236 385 236 472 q 279 247 236 297 l 367 413 z "},"£":{"ha":699,"x_min":61,"x_max":656,"o":"m 656 196 q 615 47 656 108 q 489 -15 574 -15 q 377 15 431 -15 q 277 74 324 44 q 191 103 231 103 q 125 74 151 103 q 89 -1 99 44 l 61 -1 q 88 117 61 67 q 142 209 115 167 q 169 296 169 251 q 157 378 169 340 l 64 378 l 64 406 l 146 406 q 132 431 143 413 q 117 460 121 450 q 106 489 113 471 q 93 572 93 521 q 174 749 93 682 q 374 817 256 817 q 558 762 493 817 q 624 618 624 707 q 593 529 624 564 q 515 494 563 494 q 441 521 468 494 q 414 585 414 547 q 434 644 414 622 q 478 672 454 667 q 543 719 543 689 q 510 763 543 743 q 420 783 478 783 q 326 736 363 783 q 289 628 289 689 q 313 506 289 568 q 338 406 336 443 l 528 406 l 528 378 l 336 378 q 179 188 324 271 l 183 179 q 274 208 228 208 q 387 190 319 208 q 500 172 454 172 q 585 200 546 172 q 631 283 624 228 l 644 283 q 656 196 656 239 z "},"¤":{"ha":622,"x_min":56,"x_max":567,"o":"m 206 227 q 228 205 206 227 q 311 183 250 183 q 416 227 372 183 q 460 332 460 271 q 416 436 460 393 q 311 479 372 479 q 206 436 250 479 q 163 332 163 393 q 206 227 163 271 m 446 446 q 488 329 488 394 q 442 214 488 264 l 567 89 l 547 69 l 421 194 q 311 156 372 156 q 200 194 250 156 l 75 69 l 56 89 l 181 214 q 135 330 135 264 q 176 444 135 396 l 56 567 l 75 586 l 196 465 q 310 507 244 507 q 425 465 376 507 l 547 586 l 567 567 l 446 446 z "},"¥":{"ha":856,"x_min":14,"x_max":842,"o":"m 633 0 l 243 0 l 243 28 l 335 28 l 335 257 l 126 257 l 126 285 l 335 285 l 335 321 l 279 417 l 126 417 l 126 444 l 264 444 l 86 750 l 14 750 l 14 778 l 403 778 l 403 750 l 335 750 l 529 400 l 710 750 l 599 750 l 599 778 l 842 778 l 842 750 l 744 750 l 588 444 l 758 444 l 758 417 l 572 417 l 543 358 l 543 285 l 758 285 l 758 257 l 543 257 l 543 28 l 633 28 l 633 0 z "},"¦":{"ha":194,"x_min":83,"x_max":111,"o":"m 83 463 l 83 778 l 111 778 l 111 463 l 83 463 m 83 0 l 83 315 l 111 315 l 111 0 l 83 0 z "},"§":{"ha":540,"x_min":22,"x_max":521,"o":"m 265 -14 q 169 6 218 -14 q 110 25 121 25 q 85 -4 85 25 l 63 -4 l 63 168 l 90 168 q 265 14 136 14 q 337 32 317 14 q 344 74 357 50 q 296 117 332 99 l 139 190 q 50 267 78 219 q 28 361 22 315 q 69 446 35 407 q 158 499 104 485 q 76 660 61 558 q 135 755 86 718 q 265 792 183 792 q 356 772 304 792 q 418 753 407 753 q 447 781 447 753 l 468 781 l 468 622 l 440 622 q 371 729 418 694 q 275 764 324 764 q 209 746 226 764 q 203 703 192 728 q 250 663 215 679 l 406 588 q 494 510 468 558 q 512 415 521 461 q 465 331 503 369 q 369 279 426 293 q 454 118 469 222 q 397 22 446 58 q 265 -14 349 -14 m 199 356 l 336 296 q 398 323 382 300 q 396 374 414 346 q 333 421 378 403 l 192 482 q 133 454 147 478 q 136 403 118 431 q 199 356 154 375 z "},"¨":{"ha":967,"x_min":278,"x_max":689,"o":"m 604 896 q 622 896 604 896 q 665 871 640 896 q 689 809 689 846 q 665 748 689 772 q 604 724 640 724 q 543 749 568 724 q 518 809 518 774 q 543 870 518 844 q 604 896 568 896 m 366 896 q 384 896 366 896 q 426 870 401 896 q 451 809 451 844 q 426 749 451 774 q 366 724 401 724 q 304 749 331 724 q 278 809 278 774 q 304 870 278 844 q 366 896 331 896 z "},"©":{"ha":836,"x_min":42,"x_max":794,"o":"m 624 333 q 572 213 624 260 q 424 165 521 165 q 265 224 328 165 q 203 381 203 283 q 267 544 203 479 q 444 610 331 610 q 564 573 519 610 q 608 490 608 536 q 589 423 608 444 q 540 401 569 401 q 492 418 510 401 q 475 458 475 435 q 488 495 475 482 q 514 511 500 508 q 554 540 554 521 q 534 574 554 560 q 479 588 514 588 q 397 534 426 588 q 367 402 367 481 q 405 278 367 324 q 497 232 443 232 q 576 262 550 232 q 608 333 603 292 l 624 333 m 664 638 q 613 689 664 638 q 418 740 561 740 q 172 638 275 740 q 69 391 69 535 q 172 144 69 247 q 418 42 274 42 q 665 144 563 42 q 767 391 767 247 q 664 638 767 535 m 418 768 q 496 768 418 768 q 684 658 574 768 q 794 391 794 547 q 685 124 794 235 q 418 14 575 14 q 151 124 261 14 q 42 391 42 235 q 152 658 42 547 q 418 768 263 768 z "},"«":{"ha":603,"x_min":42,"x_max":547,"o":"m 311 122 l 294 106 q 67 290 82 276 q 67 338 42 313 l 294 522 l 311 506 q 204 314 246 369 q 311 122 243 256 m 547 122 l 531 106 q 303 290 318 276 q 303 338 278 313 l 531 522 l 547 506 q 440 314 482 369 q 547 122 467 274 z "},"¬":{"ha":701,"x_min":56,"x_max":646,"o":"m 646 340 l 646 -1 l 618 -1 l 618 313 l 56 313 l 56 340 l 646 340 z "},"®":{"ha":836,"x_min":42,"x_max":794,"o":"m 388 388 l 388 225 l 431 225 l 431 199 l 257 199 l 257 225 l 296 225 l 296 579 l 257 579 l 257 606 l 403 606 q 588 500 588 606 q 461 403 588 411 q 543 374 514 403 q 579 308 572 344 q 646 214 597 214 l 647 204 q 572 189 619 189 q 500 220 525 189 q 469 288 475 251 q 443 356 463 325 q 388 388 424 388 m 388 581 l 388 414 q 490 496 490 414 q 466 561 490 542 q 388 581 442 581 m 418 768 q 496 768 418 768 q 684 658 574 768 q 794 391 794 547 q 685 124 794 235 q 418 14 575 14 q 151 124 261 14 q 42 391 42 235 q 152 658 42 547 q 418 768 263 768 m 664 638 q 613 689 664 638 q 418 740 561 740 q 172 638 275 740 q 69 391 69 535 q 172 144 69 247 q 418 42 274 42 q 665 144 563 42 q 767 391 767 247 q 664 638 767 535 z "},"¯":{"ha":833,"x_min":278,"x_max":556,"o":"m 556 843 l 556 774 l 278 774 l 278 843 l 556 843 z "},"°":{"ha":576,"x_min":139,"x_max":438,"o":"m 246 869 q 251 858 246 869 q 288 847 257 847 q 330 870 318 847 q 342 963 342 893 q 330 1055 342 1032 q 288 1078 318 1078 q 246 1056 257 1078 q 235 963 235 1033 q 246 869 235 892 m 438 963 q 438 924 438 963 q 401 853 438 886 q 287 819 365 819 q 174 853 208 819 q 139 963 139 886 q 174 1073 139 1040 q 287 1106 208 1106 q 401 1072 365 1106 q 438 963 438 1039 z "},"±":{"ha":701,"x_min":56,"x_max":646,"o":"m 646 54 l 646 26 l 56 26 l 56 54 l 646 54 m 364 419 l 646 419 l 646 392 l 364 392 l 364 124 l 336 124 l 336 392 l 56 392 l 56 419 l 336 419 l 336 686 l 364 686 l 364 419 z "},"²":{"ha":360,"x_min":56,"x_max":304,"o":"m 300 572 q 304 529 304 556 q 288 478 304 503 q 240 453 271 453 q 167 474 208 453 q 107 494 125 494 q 74 458 74 494 l 56 458 q 81 530 60 500 q 138 593 103 560 q 190 651 172 626 q 208 703 208 676 q 193 747 208 729 q 154 764 178 764 q 115 756 131 764 q 99 739 99 749 q 111 731 99 733 q 146 692 146 722 q 135 666 146 676 q 106 656 125 656 q 75 669 88 656 q 63 712 63 683 q 92 763 63 740 q 173 785 121 785 q 262 762 225 785 q 299 699 299 739 q 275 633 299 658 q 222 597 251 607 q 117 542 138 572 q 151 553 132 553 q 197 546 169 553 q 238 539 224 539 q 294 572 290 539 l 300 572 z "},"³":{"ha":358,"x_min":56,"x_max":303,"o":"m 157 788 q 283 711 283 788 q 259 659 283 681 q 190 636 235 638 q 272 613 240 635 q 303 548 303 590 q 265 479 303 506 q 169 453 228 453 q 83 474 110 453 q 56 525 56 496 q 100 581 56 581 q 129 570 118 581 q 140 544 140 560 q 114 515 140 522 q 88 499 88 508 q 103 479 88 486 q 146 472 119 472 q 192 492 172 472 q 211 552 211 513 q 194 608 211 592 q 131 625 176 625 l 122 625 l 122 644 l 131 644 q 182 665 167 644 q 197 711 197 685 q 182 754 197 738 q 143 771 167 771 q 107 763 119 771 q 94 743 94 754 q 117 728 94 735 q 139 705 139 721 q 129 679 139 689 q 104 669 119 669 q 64 714 64 669 q 89 767 64 746 q 157 788 114 788 z "},"´":{"ha":747,"x_min":278,"x_max":476,"o":"m 278 710 q 308 796 301 744 q 333 874 314 847 q 382 909 353 901 q 433 903 411 917 q 469 856 463 890 q 456 793 476 822 q 379 749 435 764 q 297 696 324 733 l 278 710 z "},"µ":{"ha":826,"x_min":14,"x_max":813,"o":"m 743 28 l 813 28 l 813 0 l 535 0 l 535 74 q 452 10 508 36 q 350 -15 396 -15 q 292 -14 304 -15 l 292 -292 l 83 -292 l 83 611 l 14 611 l 14 639 l 292 639 l 292 222 q 321 82 292 124 q 408 40 350 40 q 535 124 486 40 l 535 611 l 465 611 l 465 639 l 743 639 l 743 28 z "},"¶":{"ha":649,"x_min":28,"x_max":621,"o":"m 621 750 l 538 750 l 538 28 l 621 28 l 621 0 l 510 0 l 510 750 l 288 750 l 288 0 l 176 0 l 176 28 l 260 28 l 260 325 q 28 558 28 329 q 85 726 28 675 q 260 778 142 776 l 621 778 l 621 750 z "},"·":{"ha":313,"x_min":19,"x_max":296,"o":"m 296 340 q 296 311 296 340 q 255 242 296 283 q 158 201 214 201 q 60 242 101 201 q 19 340 19 283 q 60 437 19 396 q 158 478 101 478 q 255 437 214 478 q 296 340 296 396 z "},"¸":{"ha":817,"x_min":278,"x_max":544,"o":"m 447 6 l 385 -107 q 499 -140 454 -108 q 539 -222 544 -171 q 399 -331 528 -336 q 328 -313 358 -329 q 288 -282 297 -297 l 278 -267 l 300 -246 q 383 -298 332 -301 q 444 -237 433 -294 q 418 -158 453 -187 q 336 -128 383 -128 l 408 6 l 447 6 z "},"¹":{"ha":296,"x_min":56,"x_max":240,"o":"m 201 465 l 240 465 l 240 440 l 60 440 l 60 465 l 104 465 l 104 722 l 58 706 l 56 726 l 167 778 l 201 778 l 201 465 z "},"»":{"ha":588,"x_min":56,"x_max":547,"o":"m 72 106 l 56 122 q 163 314 125 258 q 56 506 122 369 l 72 522 q 300 338 285 353 q 300 290 325 313 l 72 106 m 294 106 l 278 122 q 385 314 347 258 q 278 506 344 369 l 294 522 q 522 338 507 353 q 522 290 547 313 l 294 106 z "},"¼":{"ha":749,"x_min":56,"x_max":693,"o":"m 676 160 l 693 160 l 693 53 l 676 53 l 676 100 l 625 100 l 625 14 l 671 14 l 671 0 l 476 0 l 476 14 l 521 14 l 521 100 l 358 100 l 358 114 l 556 404 l 625 404 l 625 114 l 676 114 l 676 160 m 521 114 l 521 328 l 376 114 l 521 114 m 556 779 l 585 779 l 168 0 l 139 0 l 556 779 m 269 374 l 61 374 l 61 388 l 117 388 l 117 722 l 60 700 l 56 714 l 196 778 l 221 778 l 221 388 l 269 388 l 269 374 z "},"½":{"ha":776,"x_min":56,"x_max":721,"o":"m 715 143 q 721 90 721 125 q 701 24 721 56 q 641 -7 681 -7 q 549 19 601 -7 q 475 46 497 46 q 424 0 435 46 l 410 0 q 442 90 414 51 q 513 169 469 128 q 578 242 556 210 q 601 310 601 274 q 583 369 601 346 q 533 392 564 392 q 483 383 503 392 q 464 360 464 374 q 494 335 464 349 q 524 297 524 322 q 474 247 524 247 q 433 265 449 247 q 418 317 418 282 q 454 380 418 351 q 556 408 490 408 q 668 380 622 408 q 714 301 714 351 q 684 219 714 251 q 617 175 654 186 q 483 106 506 139 q 527 119 501 119 q 587 110 553 119 q 640 101 621 101 q 672 103 660 101 q 696 115 685 106 q 708 143 707 125 l 715 143 m 556 779 l 585 779 l 168 0 l 139 0 l 556 779 m 269 374 l 61 374 l 61 388 l 117 388 l 117 722 l 60 700 l 56 714 l 196 778 l 221 778 l 221 388 l 269 388 l 269 374 z "},"¾":{"ha":832,"x_min":56,"x_max":776,"o":"m 760 160 l 776 160 l 776 53 l 760 53 l 760 100 l 708 100 l 708 14 l 754 14 l 754 0 l 560 0 l 560 14 l 604 14 l 604 100 l 442 100 l 442 114 l 639 404 l 708 404 l 708 114 l 760 114 l 760 160 m 604 114 l 604 328 l 460 114 l 604 114 m 625 779 l 654 779 l 238 0 l 208 0 l 625 779 m 139 594 l 150 594 q 214 622 194 594 q 233 683 233 649 q 214 739 233 717 q 165 761 194 761 q 119 751 135 761 q 104 730 104 742 q 118 714 104 718 q 146 701 132 710 q 160 672 160 692 q 148 641 160 653 q 115 629 136 629 q 79 644 93 629 q 65 692 65 660 q 97 751 65 725 q 182 778 128 778 q 340 682 340 778 q 310 617 340 643 q 224 588 279 590 q 326 560 288 588 q 365 478 365 532 q 318 392 365 425 q 197 358 271 358 q 90 385 124 358 q 56 449 56 413 q 113 519 56 519 q 148 506 135 519 q 161 470 161 492 q 144 438 161 449 q 112 423 128 428 q 96 406 96 418 q 116 384 96 393 q 169 375 136 375 q 226 404 201 375 q 251 483 251 433 q 229 557 251 533 q 150 581 207 581 l 139 581 l 139 594 z "},"¿":{"ha":626,"x_min":35,"x_max":614,"o":"m 614 190 q 540 48 614 107 q 337 -11 465 -11 q 122 44 208 -11 q 43 218 35 99 q 74 308 46 269 q 133 363 101 346 q 209 400 165 379 q 279 442 253 421 q 340 560 340 490 l 364 560 q 414 422 414 486 q 336 315 414 374 q 281 257 306 293 q 257 179 257 221 q 298 62 257 101 q 392 22 339 22 q 479 43 446 22 q 513 85 513 64 q 497 118 513 107 q 461 135 481 129 q 426 164 442 142 q 410 222 410 186 q 438 283 410 257 q 510 310 467 310 q 584 276 554 310 q 614 190 614 242 m 240 712 q 240 733 240 712 q 272 785 240 754 q 347 817 304 817 q 420 785 389 817 q 451 712 451 754 q 420 638 451 669 q 346 607 389 607 q 272 638 303 607 q 240 712 240 669 z "},"À":{"ha":893,"x_min":14,"x_max":879,"o":"m 879 28 l 879 0 l 514 0 l 514 28 l 596 28 l 503 221 l 222 221 l 142 28 l 251 28 l 251 0 l 14 0 l 14 28 l 107 28 l 425 792 l 460 792 l 813 28 l 879 28 m 235 250 l 489 250 l 353 533 l 235 250 m 461 849 l 442 835 q 360 888 415 872 q 283 932 304 903 q 269 995 263 961 q 306 1042 276 1029 q 357 1048 328 1056 q 406 1013 386 1040 q 431 935 425 986 q 461 849 438 883 z "},"Á":{"ha":893,"x_min":14,"x_max":879,"o":"m 879 28 l 879 0 l 514 0 l 514 28 l 596 28 l 503 221 l 222 221 l 142 28 l 251 28 l 251 0 l 14 0 l 14 28 l 107 28 l 425 792 l 460 792 l 813 28 l 879 28 m 235 250 l 489 250 l 353 533 l 235 250 m 446 835 l 426 849 q 456 935 450 883 q 482 1013 463 986 q 531 1048 501 1040 q 582 1042 560 1056 q 618 995 611 1029 q 604 932 625 961 q 528 888 583 903 q 446 835 472 872 z "},"Â":{"ha":893,"x_min":14,"x_max":879,"o":"m 879 28 l 879 0 l 514 0 l 514 28 l 596 28 l 503 221 l 222 221 l 142 28 l 251 28 l 251 0 l 14 0 l 14 28 l 107 28 l 425 792 l 460 792 l 813 28 l 879 28 m 235 250 l 489 250 l 353 533 l 235 250 m 446 908 l 324 853 l 311 865 l 432 1043 l 458 1043 l 581 865 l 568 853 l 446 908 z "},"Ã":{"ha":893,"x_min":14,"x_max":879,"o":"m 879 28 l 879 0 l 514 0 l 514 28 l 596 28 l 503 221 l 222 221 l 142 28 l 251 28 l 251 0 l 14 0 l 14 28 l 107 28 l 425 792 l 460 792 l 813 28 l 879 28 m 235 250 l 489 250 l 353 533 l 235 250 m 556 1001 l 583 1001 q 489 868 583 868 q 425 890 461 868 q 369 913 389 913 q 336 875 336 913 l 308 875 q 401 1008 308 1008 q 464 987 428 1008 q 519 965 500 965 q 556 1001 556 965 z "},"Ä":{"ha":893,"x_min":14,"x_max":879,"o":"m 879 28 l 879 0 l 514 0 l 514 28 l 596 28 l 503 221 l 222 221 l 142 28 l 251 28 l 251 0 l 14 0 l 14 28 l 107 28 l 425 792 l 460 792 l 813 28 l 879 28 m 235 250 l 489 250 l 353 533 l 235 250 m 411 948 q 411 930 411 948 q 386 888 411 913 q 326 863 361 863 q 264 888 290 863 q 238 948 238 913 q 264 1009 238 983 q 326 1035 290 1035 q 386 1009 361 1035 q 411 948 411 983 m 649 948 q 649 930 649 948 q 624 887 649 911 q 564 863 600 863 q 503 888 528 863 q 478 948 478 913 q 503 1009 478 983 q 564 1035 528 1035 q 624 1010 600 1035 q 649 948 649 985 z "},"Å":{"ha":893,"x_min":14,"x_max":879,"o":"m 879 28 l 879 0 l 514 0 l 514 28 l 596 28 l 503 221 l 222 221 l 142 28 l 251 28 l 251 0 l 14 0 l 14 28 l 107 28 l 425 792 l 460 792 l 813 28 l 879 28 m 235 250 l 489 250 l 353 533 l 235 250 m 556 947 q 556 924 556 947 q 521 865 556 900 q 438 831 486 831 q 356 865 390 831 q 322 947 322 899 q 356 1031 322 996 q 438 1065 390 1065 q 521 1030 486 1065 q 556 947 556 994 m 481 992 q 473 1001 481 992 q 438 1010 464 1010 q 394 992 411 1010 q 378 948 378 974 q 395 902 378 922 q 438 882 413 882 q 481 902 463 882 q 499 948 499 922 q 481 992 499 974 z "},"Æ":{"ha":1139,"x_min":0,"x_max":1111,"o":"m 1083 264 l 1111 264 l 1111 0 l 472 0 l 472 28 l 556 28 l 556 263 l 278 263 l 136 28 l 238 28 l 238 0 l 0 0 l 0 28 l 99 28 l 532 749 l 444 749 l 444 778 l 1097 778 l 1097 542 l 1069 542 q 1020 708 1069 665 q 861 750 971 750 l 764 750 l 764 417 l 792 417 q 918 442 892 417 q 944 542 944 467 l 972 542 l 972 264 l 944 264 q 918 365 944 342 q 792 389 892 389 l 764 389 l 764 28 l 875 28 q 1083 264 1083 28 m 556 292 l 556 725 l 294 292 l 556 292 z "},"Ç":{"ha":778,"x_min":35,"x_max":743,"o":"m 463 -21 q 145 78 256 -21 q 35 390 35 178 q 142 699 35 601 q 428 796 250 796 q 614 744 524 796 q 662 726 643 726 q 692 744 681 726 q 703 778 703 761 l 729 778 l 729 468 l 701 468 q 631 674 701 579 q 428 768 560 768 q 306 682 354 768 q 258 388 258 596 q 306 93 258 179 q 456 7 354 7 q 628 71 558 7 q 715 251 699 135 l 743 251 q 662 61 726 128 q 504 -18 597 -6 l 454 -107 q 569 -140 524 -108 q 608 -222 614 -171 q 468 -331 597 -336 q 397 -313 428 -329 q 357 -282 367 -297 l 347 -267 l 369 -246 q 452 -298 401 -301 q 514 -237 503 -294 q 488 -158 522 -187 q 406 -128 453 -128 l 464 -21 l 463 -21 z "},"È":{"ha":757,"x_min":56,"x_max":708,"o":"m 457 849 l 438 835 q 356 888 411 872 q 279 932 300 903 q 265 995 258 961 q 301 1042 272 1029 q 353 1048 324 1056 q 401 1013 382 1040 q 427 935 421 986 q 457 849 433 883 m 472 28 q 681 264 681 28 l 708 264 l 708 0 l 56 0 l 56 28 l 125 28 l 125 750 l 56 750 l 56 778 l 694 778 l 694 542 l 667 542 q 617 708 667 665 q 458 750 568 750 l 333 750 l 333 417 l 389 417 q 515 442 489 417 q 542 542 542 467 l 569 542 l 569 264 l 542 264 q 515 365 542 342 q 389 389 489 389 l 333 389 l 333 28 l 472 28 z "},"É":{"ha":757,"x_min":56,"x_max":708,"o":"m 358 849 q 388 935 382 883 q 414 1013 394 986 q 463 1048 433 1040 q 514 1042 492 1056 q 550 995 543 1029 q 536 932 557 961 q 460 888 515 903 q 378 835 404 872 l 358 849 m 472 28 q 681 264 681 28 l 708 264 l 708 0 l 56 0 l 56 28 l 125 28 l 125 750 l 56 750 l 56 778 l 694 778 l 694 542 l 667 542 q 617 708 667 665 q 458 750 568 750 l 333 750 l 333 417 l 389 417 q 515 442 489 417 q 542 542 542 467 l 569 542 l 569 264 l 542 264 q 515 365 542 342 q 389 389 489 389 l 333 389 l 333 28 l 472 28 z "},"Ê":{"ha":757,"x_min":56,"x_max":708,"o":"m 288 853 l 275 865 l 396 1043 l 422 1043 l 544 865 l 532 853 l 410 908 l 288 853 m 472 28 q 681 264 681 28 l 708 264 l 708 0 l 56 0 l 56 28 l 125 28 l 125 750 l 56 750 l 56 778 l 694 778 l 694 542 l 667 542 q 617 708 667 665 q 458 750 568 750 l 333 750 l 333 417 l 389 417 q 515 442 489 417 q 542 542 542 467 l 569 542 l 569 264 l 542 264 q 515 365 542 342 q 389 389 489 389 l 333 389 l 333 28 l 472 28 z "},"Ë":{"ha":757,"x_min":56,"x_max":708,"o":"m 283 1035 q 300 1035 283 1035 q 343 1009 318 1035 q 368 948 368 983 q 343 888 368 913 q 283 863 318 863 q 221 888 247 863 q 194 948 194 913 q 221 1009 194 983 q 283 1035 247 1035 m 521 1035 q 539 1035 521 1035 q 581 1010 557 1035 q 606 948 606 985 q 581 887 606 911 q 521 863 557 863 q 460 888 485 863 q 435 948 435 913 q 460 1009 435 983 q 521 1035 485 1035 m 472 28 q 681 264 681 28 l 708 264 l 708 0 l 56 0 l 56 28 l 125 28 l 125 750 l 56 750 l 56 778 l 694 778 l 694 542 l 667 542 q 617 708 667 665 q 458 750 568 750 l 333 750 l 333 417 l 389 417 q 515 442 489 417 q 542 542 542 467 l 569 542 l 569 264 l 542 264 q 515 365 542 342 q 389 389 489 389 l 333 389 l 333 28 l 472 28 z "},"Ì":{"ha":431,"x_min":56,"x_max":403,"o":"m 263 849 l 243 835 q 161 888 217 872 q 85 932 106 903 q 71 995 64 961 q 107 1042 78 1029 q 158 1048 129 1056 q 207 1013 188 1040 q 233 935 226 986 q 263 849 239 883 m 403 0 l 56 0 l 56 28 l 125 28 l 125 750 l 56 750 l 56 778 l 403 778 l 403 750 l 333 750 l 333 28 l 403 28 l 403 0 z "},"Í":{"ha":431,"x_min":56,"x_max":403,"o":"m 169 849 q 199 935 193 883 q 225 1013 206 986 q 274 1048 244 1040 q 325 1042 303 1056 q 361 995 354 1029 q 347 932 368 961 q 271 888 326 903 q 189 835 215 872 l 169 849 m 403 0 l 56 0 l 56 28 l 125 28 l 125 750 l 56 750 l 56 778 l 403 778 l 403 750 l 333 750 l 333 28 l 403 28 l 403 0 z "},"Î":{"ha":431,"x_min":56,"x_max":403,"o":"m 93 853 l 81 865 l 201 1043 l 228 1043 l 350 865 l 338 853 l 215 908 l 93 853 m 403 0 l 56 0 l 56 28 l 125 28 l 125 750 l 56 750 l 56 778 l 403 778 l 403 750 l 333 750 l 333 28 l 403 28 l 403 0 z "},"Ï":{"ha":431,"x_min":10,"x_max":421,"o":"m 98 1033 q 116 1033 98 1033 q 158 1008 133 1033 q 183 947 183 982 q 158 886 183 911 q 98 861 133 861 q 36 886 63 861 q 10 947 10 911 q 36 1008 10 982 q 98 1033 63 1033 m 336 1033 q 354 1033 336 1033 q 397 1008 372 1033 q 421 947 421 983 q 397 885 421 910 q 336 861 372 861 q 275 886 300 861 q 250 947 250 911 q 275 1008 250 982 q 336 1033 300 1033 m 403 0 l 56 0 l 56 28 l 125 28 l 125 750 l 56 750 l 56 778 l 403 778 l 403 750 l 333 750 l 333 28 l 403 28 l 403 0 z "},"Ð":{"ha":868,"x_min":56,"x_max":826,"o":"m 56 778 l 403 778 q 588 744 506 778 q 722 654 671 710 q 826 393 826 539 q 722 98 826 196 q 403 0 618 0 l 56 0 l 56 28 l 125 28 l 125 386 l 56 386 l 56 414 l 125 414 l 125 750 l 56 750 l 56 778 m 333 386 l 333 28 q 550 109 483 28 q 617 374 617 190 q 544 654 617 558 q 333 750 472 750 l 333 414 l 496 414 l 496 386 l 333 386 z "},"Ñ":{"ha":831,"x_min":28,"x_max":803,"o":"m 139 28 l 250 28 l 250 0 l 28 0 l 28 28 l 111 28 l 111 689 q 28 750 67 750 l 28 778 l 288 778 l 678 315 l 678 750 l 567 750 l 567 778 l 803 778 l 803 750 l 706 750 l 706 -14 l 678 -14 l 139 654 l 139 28 m 329 875 l 301 875 q 394 1008 301 1008 q 457 987 421 1008 q 513 965 493 965 q 549 1001 549 965 l 576 1001 q 482 868 576 868 q 418 890 454 868 q 363 913 382 913 q 329 875 329 913 z "},"Ò":{"ha":864,"x_min":28,"x_max":836,"o":"m 453 849 l 433 835 q 351 888 407 872 q 275 932 296 903 q 261 995 254 961 q 297 1042 268 1029 q 349 1048 319 1056 q 397 1013 378 1040 q 423 935 417 986 q 453 849 429 883 m 613 390 q 565 667 613 568 q 433 767 517 767 q 300 667 349 767 q 251 388 251 567 q 298 111 251 208 q 432 14 344 14 q 613 390 613 14 m 836 383 q 836 287 836 383 q 724 89 836 192 q 431 -14 611 -14 q 139 88 250 -14 q 28 381 28 190 q 139 683 28 572 q 434 794 250 794 q 727 684 618 794 q 836 383 836 574 z "},"Ó":{"ha":864,"x_min":28,"x_max":836,"o":"m 414 849 q 444 935 438 883 q 469 1013 450 986 q 518 1048 489 1040 q 569 1042 547 1056 q 606 995 599 1029 q 592 932 613 961 q 515 888 571 903 q 433 835 460 872 l 414 849 m 613 390 q 565 667 613 568 q 433 767 517 767 q 300 667 349 767 q 251 388 251 567 q 298 111 251 208 q 432 14 344 14 q 613 390 613 14 m 836 383 q 836 287 836 383 q 724 89 836 192 q 431 -14 611 -14 q 139 88 250 -14 q 28 381 28 190 q 139 683 28 572 q 434 794 250 794 q 727 684 618 794 q 836 383 836 574 z "},"Ô":{"ha":864,"x_min":28,"x_max":836,"o":"m 310 853 l 297 865 l 418 1043 l 444 1043 l 567 865 l 554 853 l 432 908 l 310 853 m 613 390 q 565 667 613 568 q 433 767 517 767 q 300 667 349 767 q 251 388 251 567 q 298 111 251 208 q 432 14 344 14 q 613 390 613 14 m 836 383 q 836 287 836 383 q 724 89 836 192 q 431 -14 611 -14 q 139 88 250 -14 q 28 381 28 190 q 139 683 28 572 q 434 794 250 794 q 727 684 618 794 q 836 383 836 574 z "},"Õ":{"ha":864,"x_min":28,"x_max":836,"o":"m 322 875 l 294 875 q 388 1008 294 1008 q 450 987 414 1008 q 506 965 486 965 q 542 1001 542 965 l 569 1001 q 475 868 569 868 q 411 890 447 868 q 356 913 375 913 q 322 875 322 913 m 613 390 q 565 667 613 568 q 433 767 517 767 q 300 667 349 767 q 251 388 251 567 q 298 111 251 208 q 432 14 344 14 q 613 390 613 14 m 836 383 q 836 287 836 383 q 724 89 836 192 q 431 -14 611 -14 q 139 88 250 -14 q 28 381 28 190 q 139 683 28 572 q 434 794 250 794 q 727 684 618 794 q 836 383 836 574 z "},"Ö":{"ha":864,"x_min":28,"x_max":836,"o":"m 309 1035 q 327 1035 309 1035 q 369 1009 344 1035 q 394 948 394 983 q 369 888 394 913 q 309 863 344 863 q 247 888 274 863 q 221 948 221 913 q 247 1009 221 983 q 309 1035 274 1035 m 547 1035 q 565 1035 547 1035 q 608 1010 583 1035 q 632 948 632 985 q 608 887 632 911 q 547 863 583 863 q 486 888 511 863 q 461 948 461 913 q 486 1009 461 983 q 547 1035 511 1035 m 613 390 q 565 667 613 568 q 433 767 517 767 q 300 667 349 767 q 251 388 251 567 q 298 111 251 208 q 432 14 344 14 q 613 390 613 14 m 836 383 q 836 287 836 383 q 724 89 836 192 q 431 -14 611 -14 q 139 88 250 -14 q 28 381 28 190 q 139 683 28 572 q 434 794 250 794 q 727 684 618 794 q 836 383 836 574 z "},"×":{"ha":549,"x_min":56,"x_max":493,"o":"m 294 319 l 493 121 l 474 101 l 275 300 l 75 101 l 56 121 l 254 319 l 57 518 l 76 538 l 275 339 l 472 538 l 493 518 l 294 319 z "},"Ø":{"ha":975,"x_min":83,"x_max":892,"o":"m 792 675 q 892 378 892 564 q 779 89 892 192 q 487 -14 667 -14 q 200 83 307 -14 l 103 -14 l 83 7 l 179 103 q 83 391 83 210 q 194 683 83 572 q 485 794 306 794 q 771 694 664 794 l 871 794 l 892 775 l 792 675 m 488 767 q 356 667 404 767 q 307 390 307 567 q 317 240 307 303 l 651 575 q 488 767 608 767 m 488 14 q 668 390 668 14 q 657 540 668 469 l 324 207 q 488 14 361 14 z "},"Ù":{"ha":840,"x_min":28,"x_max":826,"o":"m 550 849 l 531 835 q 449 888 504 872 q 372 932 393 903 q 358 995 351 961 q 394 1042 365 1029 q 446 1048 417 1056 q 494 1013 475 1040 q 520 935 514 986 q 550 849 526 883 m 757 339 q 454 -21 757 -21 q 192 65 286 -21 q 97 325 97 151 l 97 750 l 28 750 l 28 778 l 389 778 l 389 750 l 319 750 l 319 310 q 514 19 319 19 q 658 98 593 19 q 722 311 722 176 l 722 750 l 613 750 l 613 778 l 826 778 l 826 750 l 757 750 l 757 339 z "},"Ú":{"ha":840,"x_min":28,"x_max":826,"o":"m 469 849 q 499 935 493 883 q 525 1013 506 986 q 574 1048 544 1040 q 625 1042 603 1056 q 661 995 654 1029 q 647 932 668 961 q 571 888 626 903 q 489 835 515 872 l 469 849 m 757 339 q 454 -21 757 -21 q 192 65 286 -21 q 97 325 97 151 l 97 750 l 28 750 l 28 778 l 389 778 l 389 750 l 319 750 l 319 310 q 514 19 319 19 q 658 98 593 19 q 722 311 722 176 l 722 750 l 613 750 l 613 778 l 826 778 l 826 750 l 757 750 l 757 339 z "},"Û":{"ha":840,"x_min":28,"x_max":826,"o":"m 374 853 l 361 865 l 482 1043 l 508 1043 l 631 865 l 618 853 l 496 908 l 374 853 m 757 339 q 454 -21 757 -21 q 192 65 286 -21 q 97 325 97 151 l 97 750 l 28 750 l 28 778 l 389 778 l 389 750 l 319 750 l 319 310 q 514 19 319 19 q 658 98 593 19 q 722 311 722 176 l 722 750 l 613 750 l 613 778 l 826 778 l 826 750 l 757 750 l 757 339 z "},"Ü":{"ha":840,"x_min":28,"x_max":826,"o":"m 387 1035 q 405 1035 387 1035 q 447 1009 422 1035 q 472 948 472 983 q 447 888 472 913 q 387 863 422 863 q 325 888 351 863 q 299 948 299 913 q 325 1009 299 983 q 387 1035 351 1035 m 625 1035 q 643 1035 625 1035 q 685 1010 661 1035 q 710 948 710 985 q 685 887 710 911 q 625 863 661 863 q 564 888 589 863 q 539 948 539 913 q 564 1009 539 983 q 625 1035 589 1035 m 757 339 q 454 -21 757 -21 q 192 65 286 -21 q 97 325 97 151 l 97 750 l 28 750 l 28 778 l 389 778 l 389 750 l 319 750 l 319 310 q 514 19 319 19 q 658 98 593 19 q 722 311 722 176 l 722 750 l 613 750 l 613 778 l 826 778 l 826 750 l 757 750 l 757 339 z "},"Ý":{"ha":856,"x_min":14,"x_max":842,"o":"m 443 849 q 473 935 467 883 q 499 1013 479 986 q 547 1048 518 1040 q 599 1042 576 1056 q 635 995 628 1029 q 621 932 642 961 q 544 888 600 903 q 463 835 489 872 l 443 849 m 599 0 l 279 0 l 279 28 l 335 28 l 335 321 l 86 750 l 14 750 l 14 778 l 403 778 l 403 750 l 335 750 l 529 400 l 710 750 l 599 750 l 599 778 l 842 778 l 842 750 l 744 750 l 543 358 l 543 28 l 599 28 l 599 0 z "},"Þ":{"ha":754,"x_min":56,"x_max":740,"o":"m 333 163 q 489 212 447 163 q 531 385 531 261 q 489 562 531 508 q 333 615 447 615 l 333 163 m 740 381 q 638 190 740 256 q 333 135 535 125 l 333 28 l 403 28 l 403 0 l 56 0 l 56 28 l 125 28 l 125 750 l 56 750 l 56 778 l 403 778 l 403 750 l 333 750 l 333 643 q 740 381 740 663 z "},"ß":{"ha":964,"x_min":56,"x_max":950,"o":"m 499 915 q 333 639 333 915 l 333 28 l 403 28 l 403 0 l 56 0 l 56 28 l 125 28 l 125 611 l 56 611 l 56 639 l 125 639 q 183 817 125 746 q 320 917 240 889 q 508 944 400 944 q 710 915 615 944 q 825 821 806 885 q 798 724 843 764 q 643 625 753 683 q 569 513 533 571 q 731 424 596 467 q 834 384 783 407 q 917 317 885 361 q 950 208 950 272 q 865 49 950 113 q 672 -15 779 -15 q 491 29 564 -15 q 418 146 418 74 q 443 215 418 186 q 510 243 468 243 q 578 220 553 243 q 603 164 603 197 q 573 107 603 131 q 543 69 543 83 q 581 27 543 42 q 665 13 619 13 q 742 35 710 13 q 775 109 775 58 q 742 194 775 160 q 660 247 710 229 q 560 279 611 264 q 469 325 510 294 q 411 439 411 367 q 451 534 411 494 q 531 597 490 574 q 606 640 572 621 q 659 701 640 658 q 667 798 678 743 q 614 884 657 853 q 499 915 571 915 z "},"à":{"ha":729,"x_min":56,"x_max":729,"o":"m 426 710 l 407 696 q 325 749 381 733 q 249 793 269 764 q 235 856 228 822 q 271 903 242 890 q 322 909 293 917 q 371 874 351 901 q 397 796 390 847 q 426 710 403 744 m 729 28 q 676 3 715 14 q 586 -7 638 -7 q 443 61 472 -7 q 231 -11 374 -11 q 105 24 154 -11 q 56 129 56 60 q 128 273 56 222 q 381 344 200 324 l 436 351 l 436 419 q 418 582 436 540 q 347 624 400 624 q 278 609 293 624 q 267 576 263 594 q 281 526 271 557 q 290 478 290 496 q 260 405 290 435 q 188 375 231 375 q 115 405 146 375 q 85 478 85 435 q 158 599 85 549 q 376 650 231 650 q 583 593 521 650 q 644 392 644 536 l 644 142 q 663 49 644 68 q 729 42 681 31 l 729 28 m 249 157 q 288 76 256 104 q 362 47 319 47 q 436 89 404 47 l 436 325 l 386 318 q 283 269 322 310 q 249 157 243 229 z "},"á":{"ha":729,"x_min":56,"x_max":729,"o":"m 306 710 q 335 796 329 744 q 361 874 342 847 q 410 909 381 901 q 461 903 439 917 q 497 856 490 890 q 483 793 504 822 q 407 749 463 764 q 325 696 351 733 l 306 710 m 729 28 q 676 3 715 14 q 586 -7 638 -7 q 443 61 472 -7 q 231 -11 374 -11 q 105 24 154 -11 q 56 129 56 60 q 128 273 56 222 q 381 344 200 324 l 436 351 l 436 419 q 418 582 436 540 q 347 624 400 624 q 278 609 293 624 q 267 576 263 594 q 281 526 271 557 q 290 478 290 496 q 260 405 290 435 q 188 375 231 375 q 115 405 146 375 q 85 478 85 435 q 158 599 85 549 q 376 650 231 650 q 583 593 521 650 q 644 392 644 536 l 644 142 q 663 49 644 68 q 729 42 681 31 l 729 28 m 249 157 q 288 76 256 104 q 362 47 319 47 q 436 89 404 47 l 436 325 l 386 318 q 283 269 322 310 q 249 157 243 229 z "},"â":{"ha":729,"x_min":56,"x_max":729,"o":"m 256 714 l 243 726 l 364 904 l 390 904 l 513 726 l 500 714 l 378 769 l 256 714 m 729 28 q 676 3 715 14 q 586 -7 638 -7 q 443 61 472 -7 q 231 -11 374 -11 q 105 24 154 -11 q 56 129 56 60 q 128 273 56 222 q 381 344 200 324 l 436 351 l 436 419 q 418 582 436 540 q 347 624 400 624 q 278 609 293 624 q 267 576 263 594 q 281 526 271 557 q 290 478 290 496 q 260 405 290 435 q 188 375 231 375 q 115 405 146 375 q 85 478 85 435 q 158 599 85 549 q 376 650 231 650 q 583 593 521 650 q 644 392 644 536 l 644 142 q 663 49 644 68 q 729 42 681 31 l 729 28 m 249 157 q 288 76 256 104 q 362 47 319 47 q 436 89 404 47 l 436 325 l 386 318 q 283 269 322 310 q 249 157 243 229 z "},"ã":{"ha":729,"x_min":56,"x_max":729,"o":"m 254 746 l 226 746 q 319 879 226 879 q 382 858 346 879 q 438 836 418 836 q 474 872 474 836 l 501 872 q 407 739 501 739 q 343 761 379 739 q 288 783 307 783 q 254 746 254 783 m 729 28 q 676 3 715 14 q 586 -7 638 -7 q 443 61 472 -7 q 231 -11 374 -11 q 105 24 154 -11 q 56 129 56 60 q 128 273 56 222 q 381 344 200 324 l 436 351 l 436 419 q 418 582 436 540 q 347 624 400 624 q 278 609 293 624 q 267 576 263 594 q 281 526 271 557 q 290 478 290 496 q 260 405 290 435 q 188 375 231 375 q 115 405 146 375 q 85 478 85 435 q 158 599 85 549 q 376 650 231 650 q 583 593 521 650 q 644 392 644 536 l 644 142 q 663 49 644 68 q 729 42 681 31 l 729 28 m 249 157 q 288 76 256 104 q 362 47 319 47 q 436 89 404 47 l 436 325 l 386 318 q 283 269 322 310 q 249 157 243 229 z "},"ä":{"ha":729,"x_min":56,"x_max":729,"o":"m 482 896 q 500 896 482 896 q 542 871 518 896 q 567 809 567 846 q 542 748 567 772 q 482 724 518 724 q 421 749 446 724 q 396 809 396 774 q 421 870 396 844 q 482 896 446 896 m 244 896 q 261 896 244 896 q 304 870 279 896 q 329 809 329 844 q 304 749 329 774 q 244 724 279 724 q 182 749 208 724 q 156 809 156 774 q 182 870 156 844 q 244 896 208 896 m 729 28 q 676 3 715 14 q 586 -7 638 -7 q 443 61 472 -7 q 231 -11 374 -11 q 105 24 154 -11 q 56 129 56 60 q 128 273 56 222 q 381 344 200 324 l 436 351 l 436 419 q 418 582 436 540 q 347 624 400 624 q 278 609 293 624 q 267 576 263 594 q 281 526 271 557 q 290 478 290 496 q 260 405 290 435 q 188 375 231 375 q 115 405 146 375 q 85 478 85 435 q 158 599 85 549 q 376 650 231 650 q 583 593 521 650 q 644 392 644 536 l 644 142 q 663 49 644 68 q 729 42 681 31 l 729 28 m 249 157 q 288 76 256 104 q 362 47 319 47 q 436 89 404 47 l 436 325 l 386 318 q 283 269 322 310 q 249 157 243 229 z "},"å":{"ha":729,"x_min":56,"x_max":729,"o":"m 485 808 q 485 785 485 808 q 450 726 485 761 q 367 692 415 692 q 285 726 319 692 q 251 808 251 760 q 285 892 251 857 q 367 926 319 926 q 449 891 414 926 q 485 808 485 856 m 324 763 q 333 753 324 763 q 367 743 342 743 q 410 763 392 743 q 428 809 428 783 q 410 853 428 835 q 367 871 393 871 q 324 853 340 871 q 307 809 307 835 q 324 763 307 783 m 729 28 q 676 3 715 14 q 586 -7 638 -7 q 443 61 472 -7 q 231 -11 374 -11 q 105 24 154 -11 q 56 129 56 60 q 128 273 56 222 q 381 344 200 324 l 436 351 l 436 419 q 418 582 436 540 q 347 624 400 624 q 278 609 293 624 q 267 576 263 594 q 281 526 271 557 q 290 478 290 496 q 260 405 290 435 q 188 375 231 375 q 115 405 146 375 q 85 478 85 435 q 158 599 85 549 q 376 650 231 650 q 583 593 521 650 q 644 392 644 536 l 644 142 q 663 49 644 68 q 729 42 681 31 l 729 28 m 249 157 q 288 76 256 104 q 362 47 319 47 q 436 89 404 47 l 436 325 l 386 318 q 283 269 322 310 q 249 157 243 229 z "},"æ":{"ha":1100,"x_min":32,"x_max":1056,"o":"m 632 306 l 857 306 q 830 529 857 433 q 743 625 803 625 q 664 552 690 625 q 632 375 638 479 l 632 306 m 340 47 q 467 78 413 47 q 472 81 468 79 q 478 85 476 83 q 424 325 424 168 l 374 318 q 270 269 310 310 q 236 157 231 229 q 275 76 243 104 q 340 47 307 47 m 785 -14 q 494 64 565 -14 q 260 -11 421 -11 q 43 129 61 -11 q 108 271 32 219 q 368 344 183 322 l 424 351 l 424 419 q 406 582 424 540 q 325 624 388 624 q 269 613 292 624 q 251 560 231 592 q 278 483 278 531 q 248 405 278 435 q 175 375 218 375 q 102 403 132 375 q 72 480 72 432 q 111 569 72 528 q 361 650 189 650 q 557 585 492 650 q 644 635 589 617 q 754 653 700 653 q 968 563 881 653 q 1056 278 1056 474 l 632 278 l 632 261 q 681 83 638 132 q 822 33 724 33 q 930 56 869 33 q 1018 118 990 78 l 1038 104 q 933 19 1007 53 q 785 -14 860 -14 z "},"ç":{"ha":697,"x_min":42,"x_max":674,"o":"m 42 319 q 138 568 42 483 q 381 653 233 653 q 601 578 529 653 q 653 425 674 504 q 606 362 642 382 q 529 351 571 342 q 442 453 442 372 q 447 516 442 474 q 450 578 451 558 q 442 608 449 597 q 376 626 428 632 q 251 320 251 607 q 456 33 251 33 q 551 58 503 33 q 624 118 600 83 l 643 104 q 560 26 614 57 q 438 -11 507 -6 l 385 -107 q 499 -140 454 -108 q 539 -222 544 -171 q 399 -331 528 -336 q 328 -313 358 -329 q 288 -282 297 -297 l 278 -267 l 300 -246 q 383 -298 332 -301 q 444 -237 433 -294 q 418 -158 453 -187 q 336 -128 383 -128 l 399 -12 q 42 319 42 -10 z "},"è":{"ha":715,"x_min":42,"x_max":669,"o":"m 669 278 l 250 278 q 440 33 264 33 q 548 56 488 33 q 636 118 608 78 l 656 104 q 551 19 625 53 q 405 -14 478 -14 q 274 1 332 -14 q 160 50 215 15 q 73 154 104 85 q 42 322 42 224 q 135 572 42 490 q 360 653 228 653 q 581 564 493 653 q 669 278 669 475 m 249 306 l 475 306 q 448 529 475 433 q 361 625 421 625 q 275 533 301 625 q 249 321 249 440 l 249 306 m 415 710 l 396 696 q 314 749 369 733 q 238 793 258 764 q 224 856 217 822 q 260 903 231 890 q 311 909 282 917 q 360 874 340 901 q 385 796 379 847 q 415 710 392 744 z "},"é":{"ha":715,"x_min":42,"x_max":669,"o":"m 669 278 l 250 278 q 440 33 264 33 q 548 56 488 33 q 636 118 608 78 l 656 104 q 551 19 625 53 q 405 -14 478 -14 q 274 1 332 -14 q 160 50 215 15 q 73 154 104 85 q 42 322 42 224 q 135 572 42 490 q 360 653 228 653 q 581 564 493 653 q 669 278 669 475 m 249 306 l 475 306 q 448 529 475 433 q 361 625 421 625 q 275 533 301 625 q 249 321 249 440 l 249 306 m 343 696 l 324 710 q 353 796 347 744 q 379 874 360 847 q 428 909 399 901 q 479 903 457 917 q 515 856 508 890 q 501 793 522 822 q 425 749 481 764 q 343 696 369 733 z "},"ê":{"ha":715,"x_min":42,"x_max":669,"o":"m 669 278 l 250 278 q 440 33 264 33 q 548 56 488 33 q 636 118 608 78 l 656 104 q 551 19 625 53 q 405 -14 478 -14 q 274 1 332 -14 q 160 50 215 15 q 73 154 104 85 q 42 322 42 224 q 135 572 42 490 q 360 653 228 653 q 581 564 493 653 q 669 278 669 475 m 249 306 l 475 306 q 448 529 475 433 q 361 625 421 625 q 275 533 301 625 q 249 321 249 440 l 249 306 m 372 769 l 250 714 l 238 726 l 358 904 l 385 904 l 507 726 l 494 714 l 372 769 z "},"ë":{"ha":715,"x_min":42,"x_max":669,"o":"m 669 278 l 250 278 q 440 33 264 33 q 548 56 488 33 q 636 118 608 78 l 656 104 q 551 19 625 53 q 405 -14 478 -14 q 274 1 332 -14 q 160 50 215 15 q 73 154 104 85 q 42 322 42 224 q 135 572 42 490 q 360 653 228 653 q 581 564 493 653 q 669 278 669 475 m 249 306 l 475 306 q 448 529 475 433 q 361 625 421 625 q 275 533 301 625 q 249 321 249 440 l 249 306 m 325 809 q 325 791 325 809 q 300 749 325 774 q 240 724 275 724 q 178 749 204 724 q 151 809 151 774 q 178 870 151 844 q 240 896 204 896 q 300 870 275 896 q 325 809 325 844 m 563 809 q 563 791 563 809 q 538 748 563 772 q 478 724 514 724 q 417 749 442 724 q 392 809 392 774 q 417 870 392 844 q 478 896 442 896 q 538 871 514 896 q 563 809 563 846 z "},"ì":{"ha":444,"x_min":56,"x_max":403,"o":"m 333 28 l 403 28 l 403 0 l 56 0 l 56 28 l 125 28 l 125 611 l 69 611 l 69 639 l 333 639 l 333 28 m 278 710 l 258 696 q 176 749 232 733 q 100 793 121 764 q 86 856 79 822 q 122 903 93 890 q 174 909 144 917 q 222 874 203 901 q 248 796 242 847 q 278 710 254 744 z "},"í":{"ha":444,"x_min":56,"x_max":403,"o":"m 333 28 l 403 28 l 403 0 l 56 0 l 56 28 l 125 28 l 125 611 l 69 611 l 69 639 l 333 639 l 333 28 m 172 696 l 153 710 q 183 796 176 744 q 208 874 189 847 q 257 909 228 901 q 308 903 286 917 q 344 856 338 890 q 331 793 351 822 q 254 749 310 764 q 172 696 199 733 z "},"î":{"ha":444,"x_min":56,"x_max":403,"o":"m 333 28 l 403 28 l 403 0 l 56 0 l 56 28 l 125 28 l 125 611 l 69 611 l 69 639 l 333 639 l 333 28 m 229 769 l 107 714 l 94 726 l 215 904 l 242 904 l 364 726 l 351 714 l 229 769 z "},"ï":{"ha":444,"x_min":10,"x_max":421,"o":"m 333 639 l 333 28 l 403 28 l 403 0 l 56 0 l 56 28 l 125 28 l 125 611 l 69 611 l 69 639 l 333 639 m 98 896 q 116 896 98 896 q 158 870 133 896 q 183 809 183 844 q 158 749 183 774 q 98 724 133 724 q 36 749 63 724 q 10 809 10 774 q 36 870 10 844 q 98 896 63 896 m 421 809 q 421 791 421 809 q 397 748 421 772 q 336 724 372 724 q 275 749 300 724 q 250 809 250 774 q 275 870 250 844 q 336 896 300 896 q 397 871 372 896 q 421 809 421 846 z "},"ð":{"ha":794,"x_min":29,"x_max":765,"o":"m 765 386 q 669 76 765 165 q 389 -14 574 -14 q 222 15 290 -14 q 117 78 154 44 q 54 172 79 113 q 29 306 29 231 q 133 544 29 464 q 460 625 236 625 l 460 597 q 349 570 393 597 q 285 494 304 543 q 251 319 251 413 q 263 165 251 226 q 307 58 275 103 q 389 14 339 14 q 540 386 540 14 q 418 789 540 649 l 186 703 l 174 731 l 397 813 q 167 906 300 906 l 167 933 q 499 850 351 933 l 721 931 l 732 904 l 531 829 q 703 640 642 756 q 765 386 765 524 z "},"ñ":{"ha":896,"x_min":56,"x_max":854,"o":"m 785 28 l 854 28 l 854 0 l 507 0 l 507 28 l 576 28 l 576 417 q 547 557 576 515 q 460 599 518 599 q 333 515 381 599 l 333 28 l 403 28 l 403 0 l 56 0 l 56 28 l 125 28 l 125 611 l 56 611 l 56 639 l 333 639 l 333 567 q 416 628 360 603 q 538 654 472 654 q 785 386 785 654 l 785 28 m 594 872 l 622 872 q 528 739 622 739 q 464 761 500 739 q 408 783 428 783 q 375 746 375 783 l 347 746 q 440 879 347 879 q 503 858 467 879 q 558 836 539 836 q 594 872 594 836 z "},"ò":{"ha":783,"x_min":42,"x_max":742,"o":"m 429 710 l 410 696 q 328 749 383 733 q 251 793 272 764 q 238 856 231 822 q 274 903 244 890 q 325 909 296 917 q 374 874 354 901 q 399 796 393 847 q 429 710 406 744 m 285 84 q 300 49 285 84 q 390 14 315 14 q 497 85 465 14 q 529 319 529 156 q 497 553 529 482 q 390 625 465 625 q 285 553 315 625 q 254 318 254 482 q 285 84 254 154 m 388 -14 q 322 -14 388 -14 q 149 72 256 -14 q 42 317 42 158 q 73 468 42 401 q 156 574 104 535 q 268 633 208 613 q 390 653 328 653 q 513 633 453 653 q 626 574 574 613 q 710 468 678 535 q 742 318 742 401 q 710 169 742 235 q 625 65 678 104 q 388 -14 519 -14 z "},"ó":{"ha":783,"x_min":42,"x_max":742,"o":"m 343 710 q 373 796 367 744 q 399 874 379 847 q 447 909 418 901 q 499 903 476 917 q 535 856 528 890 q 521 793 542 822 q 444 749 500 764 q 363 696 389 733 l 343 710 m 285 84 q 300 49 285 84 q 390 14 315 14 q 497 85 465 14 q 529 319 529 156 q 497 553 529 482 q 390 625 465 625 q 285 553 315 625 q 254 318 254 482 q 285 84 254 154 m 388 -14 q 322 -14 388 -14 q 149 72 256 -14 q 42 317 42 158 q 73 468 42 401 q 156 574 104 535 q 268 633 208 613 q 390 653 328 653 q 513 633 453 653 q 626 574 574 613 q 710 468 678 535 q 742 318 742 401 q 710 169 742 235 q 625 65 678 104 q 388 -14 519 -14 z "},"ô":{"ha":783,"x_min":42,"x_max":742,"o":"m 267 714 l 254 726 l 375 904 l 401 904 l 524 726 l 511 714 l 389 769 l 267 714 m 285 84 q 300 49 285 84 q 390 14 315 14 q 497 85 465 14 q 529 319 529 156 q 497 553 529 482 q 390 625 465 625 q 285 553 315 625 q 254 318 254 482 q 285 84 254 154 m 388 -14 q 322 -14 388 -14 q 149 72 256 -14 q 42 317 42 158 q 73 468 42 401 q 156 574 104 535 q 268 633 208 613 q 390 653 328 653 q 513 633 453 653 q 626 574 574 613 q 710 468 678 535 q 742 318 742 401 q 710 169 742 235 q 625 65 678 104 q 388 -14 519 -14 z "},"õ":{"ha":783,"x_min":42,"x_max":742,"o":"m 281 746 l 253 746 q 346 879 253 879 q 408 858 372 879 q 464 836 444 836 q 500 872 500 836 l 528 872 q 433 739 528 739 q 369 761 406 739 q 314 783 333 783 q 281 746 281 783 m 285 84 q 300 49 285 84 q 390 14 315 14 q 497 85 465 14 q 529 319 529 156 q 497 553 529 482 q 390 625 465 625 q 285 553 315 625 q 254 318 254 482 q 285 84 254 154 m 388 -14 q 322 -14 388 -14 q 149 72 256 -14 q 42 317 42 158 q 73 468 42 401 q 156 574 104 535 q 268 633 208 613 q 390 653 328 653 q 513 633 453 653 q 626 574 574 613 q 710 468 678 535 q 742 318 742 401 q 710 169 742 235 q 625 65 678 104 q 388 -14 519 -14 z "},"ö":{"ha":783,"x_min":42,"x_max":742,"o":"m 526 896 q 544 896 526 896 q 587 871 563 896 q 611 809 611 846 q 587 748 611 772 q 526 724 563 724 q 465 749 490 724 q 440 809 440 774 q 465 870 440 844 q 526 896 490 896 m 288 896 q 306 896 288 896 q 349 870 324 896 q 374 809 374 844 q 349 749 374 774 q 288 724 324 724 q 226 749 253 724 q 200 809 200 774 q 226 870 200 844 q 288 896 253 896 m 285 84 q 300 49 285 84 q 390 14 315 14 q 497 85 465 14 q 529 319 529 156 q 497 553 529 482 q 390 625 465 625 q 285 553 315 625 q 254 318 254 482 q 285 84 254 154 m 388 -14 q 322 -14 388 -14 q 149 72 256 -14 q 42 317 42 158 q 73 468 42 401 q 156 574 104 535 q 268 633 208 613 q 390 653 328 653 q 513 633 453 653 q 626 574 574 613 q 710 468 678 535 q 742 318 742 401 q 710 169 742 235 q 625 65 678 104 q 388 -14 519 -14 z "},"÷":{"ha":674,"x_min":56,"x_max":618,"o":"m 334 63 q 318 63 334 63 q 278 85 301 63 q 256 141 256 108 q 278 197 256 174 q 334 221 301 221 q 390 197 367 221 q 414 141 414 174 q 390 85 414 108 q 334 63 367 63 m 278 447 q 267 459 278 447 q 256 503 256 471 q 278 558 256 535 q 334 582 301 582 q 390 558 367 582 q 414 503 414 535 q 390 447 414 471 q 334 424 367 424 q 278 447 301 424 m 618 336 l 618 308 l 56 308 l 56 336 l 618 336 z "},"ø":{"ha":783,"x_min":42,"x_max":742,"o":"m 742 317 q 710 169 742 235 q 625 65 678 104 q 385 -14 519 -14 q 150 71 251 -14 l 61 -14 l 42 6 l 131 89 q 42 317 42 178 q 73 468 42 401 q 156 574 104 535 q 397 653 263 653 q 633 568 532 653 l 722 653 l 742 633 l 653 549 q 742 317 742 457 m 390 625 q 285 553 315 625 q 254 317 254 482 q 258 211 254 257 l 521 461 q 478 585 510 546 q 390 625 447 625 m 390 14 q 497 85 465 14 q 529 317 529 156 q 525 428 529 378 l 261 176 q 303 53 272 92 q 390 14 335 14 z "},"ù":{"ha":861,"x_min":14,"x_max":813,"o":"m 415 710 l 396 696 q 314 749 369 733 q 238 793 258 764 q 224 856 217 822 q 260 903 231 890 q 311 909 282 917 q 360 874 340 901 q 385 796 379 847 q 415 710 392 744 m 535 0 l 535 74 q 452 10 508 36 q 331 -15 396 -15 q 83 253 83 -15 l 83 611 l 14 611 l 14 639 l 292 639 l 292 222 q 321 82 292 124 q 408 40 350 40 q 535 124 486 40 l 535 611 l 465 611 l 465 639 l 743 639 l 743 28 l 813 28 l 813 0 l 535 0 z "},"ú":{"ha":861,"x_min":14,"x_max":813,"o":"m 347 710 q 377 796 371 744 q 403 874 383 847 q 451 909 422 901 q 503 903 481 917 q 539 856 532 890 q 525 793 546 822 q 449 749 504 764 q 367 696 393 733 l 347 710 m 535 0 l 535 74 q 452 10 508 36 q 331 -15 396 -15 q 83 253 83 -15 l 83 611 l 14 611 l 14 639 l 292 639 l 292 222 q 321 82 292 124 q 408 40 350 40 q 535 124 486 40 l 535 611 l 465 611 l 465 639 l 743 639 l 743 28 l 813 28 l 813 0 l 535 0 z "},"û":{"ha":861,"x_min":14,"x_max":813,"o":"m 272 714 l 260 726 l 381 904 l 407 904 l 529 726 l 517 714 l 394 769 l 272 714 m 535 0 l 535 74 q 452 10 508 36 q 331 -15 396 -15 q 83 253 83 -15 l 83 611 l 14 611 l 14 639 l 292 639 l 292 222 q 321 82 292 124 q 408 40 350 40 q 535 124 486 40 l 535 611 l 465 611 l 465 639 l 743 639 l 743 28 l 813 28 l 813 0 l 535 0 z "},"ü":{"ha":861,"x_min":14,"x_max":813,"o":"m 592 896 q 610 896 592 896 q 652 871 628 896 q 676 809 676 846 q 652 748 676 772 q 592 724 628 724 q 531 749 556 724 q 506 809 506 774 q 531 870 506 844 q 592 896 556 896 m 353 896 q 371 896 353 896 q 414 870 389 896 q 439 809 439 844 q 414 749 439 774 q 353 724 389 724 q 292 749 318 724 q 265 809 265 774 q 292 870 265 844 q 353 896 318 896 m 535 0 l 535 74 q 452 10 508 36 q 331 -15 396 -15 q 83 253 83 -15 l 83 611 l 14 611 l 14 639 l 292 639 l 292 222 q 321 82 292 124 q 408 40 350 40 q 535 124 486 40 l 535 611 l 465 611 l 465 639 l 743 639 l 743 28 l 813 28 l 813 0 l 535 0 z "},"ý":{"ha":753,"x_min":0,"x_max":767,"o":"m 350 -154 q 271 -270 313 -235 q 160 -306 229 -306 q 51 -276 90 -306 q 13 -197 13 -246 q 41 -118 13 -147 q 110 -89 69 -89 q 178 -104 150 -89 q 217 -137 206 -119 q 274 -186 247 -186 q 322 -139 301 -186 l 381 -1 l 56 611 l 0 611 l 0 639 l 374 639 l 374 611 l 304 611 l 490 244 l 650 611 l 539 611 l 539 639 l 767 639 l 767 611 l 683 611 l 350 -154 m 408 696 l 389 710 q 419 796 413 744 q 444 874 425 847 q 493 909 464 901 q 544 903 522 917 q 581 856 574 890 q 567 793 588 822 q 490 749 546 764 q 408 696 435 733 z "},"þ":{"ha":831,"x_min":56,"x_max":789,"o":"m 333 931 l 333 575 q 406 646 356 622 q 513 669 456 669 q 708 578 628 669 q 789 324 789 486 q 707 72 789 161 q 513 -17 625 -17 q 333 64 371 -17 l 333 -264 l 403 -264 l 403 -292 l 56 -292 l 56 -264 l 125 -264 l 125 903 l 56 903 l 56 931 l 333 931 m 333 94 q 429 25 368 25 q 534 97 490 25 q 578 319 578 168 q 535 544 578 469 q 432 618 492 618 q 333 538 372 618 l 333 94 z "},"ÿ":{"ha":753,"x_min":0,"x_max":767,"o":"m 350 -154 q 271 -270 313 -235 q 160 -306 229 -306 q 51 -276 90 -306 q 13 -197 13 -246 q 41 -118 13 -147 q 110 -89 69 -89 q 178 -104 150 -89 q 217 -137 206 -119 q 274 -186 247 -186 q 322 -139 301 -186 l 381 -1 l 56 611 l 0 611 l 0 639 l 374 639 l 374 611 l 304 611 l 490 244 l 650 611 l 539 611 l 539 639 l 767 639 l 767 611 l 683 611 l 350 -154 m 283 896 q 300 896 283 896 q 343 870 318 896 q 368 809 368 844 q 343 749 368 774 q 283 724 318 724 q 221 749 247 724 q 194 809 194 774 q 221 870 194 844 q 283 896 247 896 m 521 896 q 539 896 521 896 q 581 871 557 896 q 606 809 606 846 q 581 748 606 772 q 521 724 557 724 q 460 749 485 724 q 435 809 435 774 q 460 870 435 844 q 521 896 485 896 z "},"Ā":{"ha":893,"x_min":14,"x_max":879,"o":"m 879 28 l 879 0 l 514 0 l 514 28 l 596 28 l 503 221 l 222 221 l 142 28 l 251 28 l 251 0 l 14 0 l 14 28 l 107 28 l 425 792 l 460 792 l 813 28 l 879 28 m 235 250 l 489 250 l 353 533 l 235 250 m 583 982 l 583 913 l 306 913 l 306 982 l 583 982 z "},"ā":{"ha":729,"x_min":56,"x_max":729,"o":"m 506 843 l 506 774 l 228 774 l 228 843 l 506 843 m 729 28 q 676 3 715 14 q 586 -7 638 -7 q 443 61 472 -7 q 231 -11 374 -11 q 105 24 154 -11 q 56 129 56 60 q 128 273 56 222 q 381 344 200 324 l 436 351 l 436 419 q 418 582 436 540 q 347 624 400 624 q 278 609 293 624 q 267 576 263 594 q 281 526 271 557 q 290 478 290 496 q 260 405 290 435 q 188 375 231 375 q 115 405 146 375 q 85 478 85 435 q 158 599 85 549 q 376 650 231 650 q 583 593 521 650 q 644 392 644 536 l 644 142 q 663 49 644 68 q 729 42 681 31 l 729 28 m 249 157 q 288 76 256 104 q 362 47 319 47 q 436 89 404 47 l 436 325 l 386 318 q 283 269 322 310 q 249 157 243 229 z "},"Ă":{"ha":893,"x_min":14,"x_max":879,"o":"m 879 28 l 879 0 l 514 0 l 514 28 l 596 28 l 503 221 l 222 221 l 142 28 l 251 28 l 251 0 l 14 0 l 14 28 l 107 28 l 425 792 l 460 792 l 813 28 l 879 28 m 235 250 l 489 250 l 353 533 l 235 250 m 533 1035 l 561 1035 q 533 906 561 951 q 435 861 504 861 q 306 1035 306 861 l 333 1035 q 433 967 333 967 q 533 1035 533 967 z "},"ă":{"ha":729,"x_min":56,"x_max":729,"o":"m 264 896 q 364 828 264 828 q 464 896 464 828 l 492 896 q 463 767 492 813 q 365 722 435 722 q 236 896 236 722 l 264 896 m 729 28 q 676 3 715 14 q 586 -7 638 -7 q 443 61 472 -7 q 231 -11 374 -11 q 105 24 154 -11 q 56 129 56 60 q 128 273 56 222 q 381 344 200 324 l 436 351 l 436 419 q 418 582 436 540 q 347 624 400 624 q 278 609 293 624 q 267 576 263 594 q 281 526 271 557 q 290 478 290 496 q 260 405 290 435 q 188 375 231 375 q 115 405 146 375 q 85 478 85 435 q 158 599 85 549 q 376 650 231 650 q 583 593 521 650 q 644 392 644 536 l 644 142 q 663 49 644 68 q 729 42 681 31 l 729 28 m 249 157 q 288 76 256 104 q 362 47 319 47 q 436 89 404 47 l 436 325 l 386 318 q 283 269 322 310 q 249 157 243 229 z "},"Ą":{"ha":893,"x_min":14,"x_max":879,"o":"m 879 0 l 767 0 q 739 -168 678 -122 q 817 -165 782 -197 l 831 -182 q 717 -246 781 -246 q 635 -206 657 -246 q 656 -89 610 -161 q 731 0 681 -47 l 514 0 l 514 28 l 596 28 l 503 221 l 222 221 l 142 28 l 251 28 l 251 0 l 14 0 l 14 28 l 107 28 l 425 792 l 460 792 l 813 28 l 879 28 l 879 0 m 235 250 l 489 250 l 353 533 l 235 250 z "},"ą":{"ha":729,"x_min":56,"x_max":729,"o":"m 729 28 q 676 3 715 14 q 608 -7 638 -7 q 542 -4 578 -7 q 517 -168 456 -124 q 594 -165 560 -197 l 608 -182 q 494 -246 558 -246 q 414 -206 436 -246 q 511 3 371 -131 q 443 61 463 18 q 231 -11 374 -11 q 105 24 154 -11 q 56 129 56 60 q 128 273 56 222 q 381 344 200 324 l 436 351 l 436 419 q 418 582 436 540 q 347 624 400 624 q 278 609 293 624 q 267 576 263 594 q 281 526 271 557 q 290 478 290 496 q 260 405 290 435 q 188 375 231 375 q 115 405 146 375 q 85 478 85 435 q 158 599 85 549 q 376 650 231 650 q 583 593 521 650 q 644 392 644 536 l 644 142 q 663 49 644 68 q 729 42 681 31 l 729 28 m 249 157 q 288 76 256 104 q 362 47 319 47 q 436 89 404 47 l 436 325 l 386 318 q 283 269 322 310 q 249 157 243 229 z "},"Ć":{"ha":778,"x_min":35,"x_max":743,"o":"m 729 468 l 701 468 q 631 674 701 579 q 428 768 560 768 q 306 682 354 768 q 258 388 258 596 q 306 93 258 179 q 456 7 354 7 q 628 71 558 7 q 715 251 699 135 l 743 251 q 647 47 724 114 q 463 -21 569 -21 q 145 78 256 -21 q 35 390 35 178 q 142 699 35 601 q 428 796 250 796 q 614 744 524 796 q 662 726 643 726 q 692 744 681 726 q 703 778 703 761 l 729 778 l 729 468 m 406 835 l 386 849 q 416 935 410 883 q 442 1013 422 986 q 490 1048 461 1040 q 542 1042 519 1056 q 578 995 571 1029 q 564 932 585 961 q 488 888 543 903 q 406 835 432 872 z "},"ć":{"ha":697,"x_min":42,"x_max":674,"o":"m 333 710 q 363 796 357 744 q 389 874 369 847 q 438 909 408 901 q 489 903 467 917 q 525 856 518 890 q 511 793 532 822 q 435 749 490 764 q 353 696 379 733 l 333 710 m 42 319 q 138 568 42 483 q 381 653 233 653 q 601 578 529 653 q 653 425 674 504 q 606 362 642 382 q 529 351 571 342 q 442 453 442 372 q 447 516 442 474 q 450 578 451 558 q 442 608 449 597 q 376 626 428 632 q 251 320 251 607 q 456 33 251 33 q 551 58 503 33 q 624 118 600 83 l 643 104 q 547 19 611 51 q 404 -12 483 -12 q 42 319 42 -12 z "},"Ċ":{"ha":778,"x_min":35,"x_max":743,"o":"m 729 468 l 701 468 q 631 674 701 579 q 428 768 560 768 q 306 682 354 768 q 258 388 258 596 q 306 93 258 179 q 456 7 354 7 q 628 71 558 7 q 715 251 699 135 l 743 251 q 647 47 724 114 q 463 -21 569 -21 q 145 78 256 -21 q 35 390 35 178 q 142 699 35 601 q 428 796 250 796 q 614 744 524 796 q 662 726 643 726 q 692 744 681 726 q 703 778 703 761 l 729 778 l 729 468 m 402 1035 q 420 1035 402 1035 q 463 1009 438 1035 q 488 948 488 983 q 463 888 488 913 q 402 863 438 863 q 340 888 367 863 q 314 948 314 913 q 340 1009 314 983 q 402 1035 367 1035 z "},"ċ":{"ha":697,"x_min":42,"x_max":674,"o":"m 388 896 q 406 896 388 896 q 449 870 424 896 q 474 809 474 844 q 449 749 474 774 q 388 724 424 724 q 326 749 353 724 q 300 809 300 774 q 326 870 300 844 q 388 896 353 896 m 42 319 q 138 568 42 483 q 381 653 233 653 q 601 578 529 653 q 653 425 674 504 q 606 362 642 382 q 529 351 571 342 q 442 453 442 372 q 447 516 442 474 q 450 578 451 558 q 442 608 449 597 q 376 626 428 632 q 251 320 251 607 q 456 33 251 33 q 551 58 503 33 q 624 118 600 83 l 643 104 q 547 19 611 51 q 404 -12 483 -12 q 42 319 42 -12 z "},"Č":{"ha":778,"x_min":35,"x_max":743,"o":"m 729 468 l 701 468 q 631 674 701 579 q 428 768 560 768 q 306 682 354 768 q 258 388 258 596 q 306 93 258 179 q 456 7 354 7 q 628 71 558 7 q 715 251 699 135 l 743 251 q 647 47 724 114 q 463 -21 569 -21 q 145 78 256 -21 q 35 390 35 178 q 142 699 35 601 q 428 796 250 796 q 614 744 524 796 q 662 726 643 726 q 692 744 681 726 q 703 778 703 761 l 729 778 l 729 468 m 318 1043 l 440 988 l 563 1043 l 575 1031 l 453 853 l 426 853 l 306 1031 l 318 1043 z "},"č":{"ha":697,"x_min":42,"x_max":674,"o":"m 263 904 l 385 849 l 507 904 l 519 892 l 397 714 l 371 714 l 250 892 l 263 904 m 42 319 q 138 568 42 483 q 381 653 233 653 q 601 578 529 653 q 653 425 674 504 q 606 362 642 382 q 529 351 571 342 q 442 453 442 372 q 447 516 442 474 q 450 578 451 558 q 442 608 449 597 q 376 626 428 632 q 251 320 251 607 q 456 33 251 33 q 551 58 503 33 q 624 118 600 83 l 643 104 q 547 19 611 51 q 404 -12 483 -12 q 42 319 42 -12 z "},"Ď":{"ha":840,"x_min":56,"x_max":826,"o":"m 263 1043 l 385 988 l 507 1043 l 519 1031 l 397 853 l 371 853 l 250 1031 l 263 1043 m 403 0 l 56 0 l 56 28 l 125 28 l 125 750 l 56 750 l 56 778 l 403 778 q 588 744 506 778 q 722 654 671 710 q 826 393 826 539 q 722 98 826 196 q 403 0 618 0 m 333 28 q 550 109 483 28 q 617 374 617 190 q 544 654 617 558 q 333 750 472 750 l 333 28 z "},"ď":{"ha":969,"x_min":42,"x_max":929,"o":"m 318 -17 q 124 72 206 -17 q 42 324 42 161 q 122 578 42 486 q 318 669 203 669 q 425 646 375 669 q 497 575 475 622 l 497 903 l 428 903 l 428 931 l 706 931 l 706 28 l 775 28 l 775 0 l 497 0 l 497 64 q 318 -17 460 -17 m 497 304 l 497 533 q 399 608 460 608 q 296 539 339 608 q 253 319 253 469 q 297 99 253 168 q 404 39 342 29 q 457 61 439 44 q 497 304 497 100 m 857 822 l 819 815 q 772 834 793 815 q 750 887 750 853 q 773 944 750 921 q 836 968 796 968 q 903 937 876 968 q 929 867 929 906 q 785 681 929 746 l 778 697 q 874 806 874 753 q 857 822 874 822 z "},"Đ":{"ha":868,"x_min":56,"x_max":826,"o":"m 56 778 l 403 778 q 588 744 506 778 q 722 654 671 710 q 826 393 826 539 q 722 98 826 196 q 403 0 618 0 l 56 0 l 56 28 l 125 28 l 125 386 l 56 386 l 56 414 l 125 414 l 125 750 l 56 750 l 56 778 m 333 386 l 333 28 q 550 109 483 28 q 617 374 617 190 q 544 654 617 558 q 333 750 472 750 l 333 414 l 496 414 l 496 386 l 333 386 z "},"đ":{"ha":831,"x_min":42,"x_max":775,"o":"m 775 781 l 706 781 l 706 28 l 775 28 l 775 0 l 497 0 l 497 64 q 318 -17 460 -17 q 124 72 206 -17 q 42 324 42 161 q 122 578 42 486 q 318 669 203 669 q 425 646 375 669 q 497 575 475 622 l 497 781 l 275 781 l 275 808 l 497 808 l 497 903 l 428 903 l 428 931 l 706 931 l 706 808 l 775 808 l 775 781 m 253 319 q 253 243 253 319 q 297 97 253 168 q 399 25 340 25 q 499 97 458 25 q 539 315 539 169 q 497 539 539 460 q 404 618 456 618 q 296 544 339 618 q 253 319 253 469 z "},"Ē":{"ha":757,"x_min":56,"x_max":708,"o":"m 542 982 l 542 913 l 264 913 l 264 982 l 542 982 m 472 28 q 681 264 681 28 l 708 264 l 708 0 l 56 0 l 56 28 l 125 28 l 125 750 l 56 750 l 56 778 l 694 778 l 694 542 l 667 542 q 617 708 667 665 q 458 750 568 750 l 333 750 l 333 417 l 389 417 q 515 442 489 417 q 542 542 542 467 l 569 542 l 569 264 l 542 264 q 515 365 542 342 q 389 389 489 389 l 333 389 l 333 28 l 472 28 z "},"ē":{"ha":715,"x_min":42,"x_max":669,"o":"m 669 278 l 250 278 q 440 33 264 33 q 548 56 488 33 q 636 118 608 78 l 656 104 q 551 19 625 53 q 405 -14 478 -14 q 274 1 332 -14 q 160 50 215 15 q 73 154 104 85 q 42 322 42 224 q 135 572 42 490 q 360 653 228 653 q 581 564 493 653 q 669 278 669 475 m 249 306 l 475 306 q 448 529 475 433 q 361 625 421 625 q 275 533 301 625 q 249 321 249 440 l 249 306 m 514 843 l 514 774 l 236 774 l 236 843 l 514 843 z "},"Ĕ":{"ha":757,"x_min":56,"x_max":708,"o":"m 306 1035 q 406 967 306 967 q 506 1035 506 967 l 533 1035 q 505 906 533 951 q 407 861 476 861 q 278 1035 278 861 l 306 1035 m 472 28 q 681 264 681 28 l 708 264 l 708 0 l 56 0 l 56 28 l 125 28 l 125 750 l 56 750 l 56 778 l 694 778 l 694 542 l 667 542 q 617 708 667 665 q 458 750 568 750 l 333 750 l 333 417 l 389 417 q 515 442 489 417 q 542 542 542 467 l 569 542 l 569 264 l 542 264 q 515 365 542 342 q 389 389 489 389 l 333 389 l 333 28 l 472 28 z "},"ĕ":{"ha":715,"x_min":42,"x_max":669,"o":"m 669 278 l 250 278 q 440 33 264 33 q 548 56 488 33 q 636 118 608 78 l 656 104 q 551 19 625 53 q 405 -14 478 -14 q 274 1 332 -14 q 160 50 215 15 q 73 154 104 85 q 42 322 42 224 q 135 572 42 490 q 360 653 228 653 q 581 564 493 653 q 669 278 669 475 m 249 306 l 475 306 q 448 529 475 433 q 361 625 421 625 q 275 533 301 625 q 249 321 249 440 l 249 306 m 464 896 l 492 896 q 463 767 492 813 q 365 722 435 722 q 236 896 236 722 l 264 896 q 364 828 264 828 q 464 896 464 828 z "},"Ė":{"ha":757,"x_min":56,"x_max":708,"o":"m 420 1035 q 438 1035 420 1035 q 481 1009 456 1035 q 506 948 506 983 q 481 888 506 913 q 420 863 456 863 q 358 888 385 863 q 332 948 332 913 q 358 1009 332 983 q 420 1035 385 1035 m 472 28 q 681 264 681 28 l 708 264 l 708 0 l 56 0 l 56 28 l 125 28 l 125 750 l 56 750 l 56 778 l 694 778 l 694 542 l 667 542 q 617 708 667 665 q 458 750 568 750 l 333 750 l 333 417 l 389 417 q 515 442 489 417 q 542 542 542 467 l 569 542 l 569 264 l 542 264 q 515 365 542 342 q 389 389 489 389 l 333 389 l 333 28 l 472 28 z "},"ė":{"ha":715,"x_min":42,"x_max":669,"o":"m 669 278 l 250 278 q 440 33 264 33 q 548 56 488 33 q 636 118 608 78 l 656 104 q 551 19 625 53 q 405 -14 478 -14 q 274 1 332 -14 q 160 50 215 15 q 73 154 104 85 q 42 322 42 224 q 135 572 42 490 q 360 653 228 653 q 581 564 493 653 q 669 278 669 475 m 249 306 l 475 306 q 448 529 475 433 q 361 625 421 625 q 275 533 301 625 q 249 321 249 440 l 249 306 m 451 809 q 451 791 451 809 q 426 749 451 774 q 366 724 401 724 q 304 749 331 724 q 278 809 278 774 q 304 870 278 844 q 366 896 331 896 q 426 870 401 896 q 451 809 451 844 z "},"Ę":{"ha":757,"x_min":56,"x_max":708,"o":"m 708 0 l 558 0 q 531 -168 469 -122 q 608 -165 574 -197 l 622 -182 q 508 -246 572 -246 q 426 -206 449 -246 q 447 -89 401 -161 q 522 0 472 -47 l 56 0 l 56 28 l 125 28 l 125 750 l 56 750 l 56 778 l 694 778 l 694 542 l 667 542 q 617 708 667 665 q 458 750 568 750 l 333 750 l 333 417 l 389 417 q 515 442 489 417 q 542 542 542 467 l 569 542 l 569 264 l 542 264 q 515 365 542 342 q 389 389 489 389 l 333 389 l 333 28 l 472 28 q 681 264 681 28 l 708 264 l 708 0 z "},"ę":{"ha":715,"x_min":42,"x_max":669,"o":"m 669 278 l 250 278 q 440 33 264 33 q 548 56 488 33 q 636 118 608 78 l 656 104 q 561 24 626 57 q 425 -12 496 -8 q 406 -168 349 -126 q 483 -165 449 -197 l 497 -182 q 383 -246 447 -246 q 303 -208 326 -246 q 383 -14 260 -137 q 153 56 249 -11 q 42 311 42 132 q 135 572 42 490 q 360 653 228 653 q 581 564 493 653 q 669 278 669 475 m 249 306 l 475 306 q 448 529 475 433 q 361 625 421 625 q 275 533 301 625 q 249 321 249 440 l 249 306 z "},"Ě":{"ha":757,"x_min":56,"x_max":708,"o":"m 290 1043 l 413 988 l 535 1043 l 547 1031 l 425 853 l 399 853 l 278 1031 l 290 1043 m 472 28 q 681 264 681 28 l 708 264 l 708 0 l 56 0 l 56 28 l 125 28 l 125 750 l 56 750 l 56 778 l 694 778 l 694 542 l 667 542 q 617 708 667 665 q 458 750 568 750 l 333 750 l 333 417 l 389 417 q 515 442 489 417 q 542 542 542 467 l 569 542 l 569 264 l 542 264 q 515 365 542 342 q 389 389 489 389 l 333 389 l 333 28 l 472 28 z "},"ě":{"ha":715,"x_min":42,"x_max":669,"o":"m 669 278 l 250 278 q 440 33 264 33 q 548 56 488 33 q 636 118 608 78 l 656 104 q 551 19 625 53 q 405 -14 478 -14 q 274 1 332 -14 q 160 50 215 15 q 73 154 104 85 q 42 322 42 224 q 135 572 42 490 q 360 653 228 653 q 581 564 493 653 q 669 278 669 475 m 249 306 l 475 306 q 448 529 475 433 q 361 625 421 625 q 275 533 301 625 q 249 321 249 440 l 249 306 m 390 714 l 364 714 l 243 892 l 256 904 l 378 849 l 500 904 l 513 892 l 390 714 z "},"Ĝ":{"ha":844,"x_min":42,"x_max":817,"o":"m 307 853 l 294 865 l 415 1043 l 442 1043 l 564 865 l 551 853 l 429 908 l 307 853 m 725 0 q 707 53 725 32 q 660 75 689 75 q 602 51 632 75 q 533 3 572 28 q 438 -21 493 -21 q 145 76 249 -21 q 42 375 42 174 q 435 796 42 796 q 580 761 506 796 q 671 726 654 726 q 699 744 688 726 q 710 778 710 761 l 736 778 l 736 496 l 708 496 q 626 685 708 601 q 435 768 543 768 q 308 678 351 768 q 265 383 265 589 q 309 92 265 176 q 438 7 353 7 q 571 244 571 7 l 571 347 l 483 347 l 483 375 l 817 375 l 817 347 l 751 347 l 751 0 l 725 0 z "},"ĝ":{"ha":747,"x_min":39,"x_max":732,"o":"m 222 129 q 272 85 222 90 l 511 85 q 683 32 635 85 q 717 -99 732 -21 q 622 -242 703 -176 q 400 -307 542 -307 q 67 -231 140 -307 q 43 -159 39 -200 q 74 -92 47 -118 q 133 -57 100 -67 q 89 36 89 -19 q 123 135 89 92 q 201 206 157 179 q 42 415 42 264 q 145 590 42 528 q 374 651 249 651 q 593 589 499 651 q 688 414 688 526 q 589 241 688 301 q 356 181 490 181 q 240 194 290 181 q 222 129 222 164 m 479 419 q 479 478 479 419 q 451 581 479 538 q 369 624 424 624 q 289 580 314 624 q 264 419 264 536 q 290 256 264 303 q 370 208 317 208 q 451 254 424 208 q 479 419 479 300 m 503 -96 l 269 -96 q 157 -72 203 -96 q 208 -226 138 -172 q 400 -279 278 -279 q 603 -218 522 -279 q 644 -162 640 -190 q 613 -115 649 -135 q 503 -96 576 -96 m 379 769 l 257 714 l 244 726 l 365 904 l 392 904 l 514 726 l 501 714 l 379 769 z "},"Ğ":{"ha":844,"x_min":42,"x_max":817,"o":"m 329 1035 q 429 967 329 967 q 529 1035 529 967 l 557 1035 q 528 906 557 951 q 431 861 500 861 q 301 1035 301 861 l 329 1035 m 725 0 q 707 53 725 32 q 660 75 689 75 q 602 51 632 75 q 533 3 572 28 q 438 -21 493 -21 q 145 76 249 -21 q 42 375 42 174 q 435 796 42 796 q 580 761 506 796 q 671 726 654 726 q 699 744 688 726 q 710 778 710 761 l 736 778 l 736 496 l 708 496 q 626 685 708 601 q 435 768 543 768 q 308 678 351 768 q 265 383 265 589 q 309 92 265 176 q 438 7 353 7 q 571 244 571 7 l 571 347 l 483 347 l 483 375 l 817 375 l 817 347 l 751 347 l 751 0 l 725 0 z "},"ğ":{"ha":747,"x_min":39,"x_max":732,"o":"m 222 129 q 272 85 222 90 l 511 85 q 683 32 635 85 q 717 -99 732 -21 q 622 -242 703 -176 q 400 -307 542 -307 q 67 -231 140 -307 q 43 -159 39 -200 q 74 -92 47 -118 q 133 -57 100 -67 q 89 36 89 -19 q 123 135 89 92 q 201 206 157 179 q 42 415 42 264 q 145 590 42 528 q 374 651 249 651 q 593 589 499 651 q 688 414 688 526 q 589 241 688 301 q 356 181 490 181 q 240 194 290 181 q 222 129 222 164 m 479 419 q 479 478 479 419 q 451 581 479 538 q 369 624 424 624 q 289 580 314 624 q 264 419 264 536 q 290 256 264 303 q 370 208 317 208 q 451 254 424 208 q 479 419 479 300 m 503 -96 l 269 -96 q 157 -72 203 -96 q 208 -226 138 -172 q 400 -279 278 -279 q 603 -218 522 -279 q 644 -162 640 -190 q 613 -115 649 -135 q 503 -96 576 -96 m 471 894 l 499 894 q 470 766 499 811 q 372 721 442 721 q 243 894 243 721 l 271 894 q 371 826 271 826 q 471 894 471 826 z "},"Ġ":{"ha":844,"x_min":42,"x_max":817,"o":"m 430 1035 q 448 1035 430 1035 q 490 1009 465 1035 q 515 948 515 983 q 490 888 515 913 q 430 863 465 863 q 368 888 394 863 q 342 948 342 913 q 368 1009 342 983 q 430 1035 394 1035 m 725 0 q 707 53 725 32 q 660 75 689 75 q 602 51 632 75 q 533 3 572 28 q 438 -21 493 -21 q 145 76 249 -21 q 42 375 42 174 q 435 796 42 796 q 580 761 506 796 q 671 726 654 726 q 699 744 688 726 q 710 778 710 761 l 736 778 l 736 496 l 708 496 q 626 685 708 601 q 435 768 543 768 q 308 678 351 768 q 265 383 265 589 q 309 92 265 176 q 438 7 353 7 q 571 244 571 7 l 571 347 l 483 347 l 483 375 l 817 375 l 817 347 l 751 347 l 751 0 l 725 0 z "},"ġ":{"ha":747,"x_min":39,"x_max":732,"o":"m 222 129 q 272 85 222 90 l 511 85 q 683 32 635 85 q 717 -99 732 -21 q 622 -242 703 -176 q 400 -307 542 -307 q 67 -231 140 -307 q 43 -159 39 -200 q 74 -92 47 -118 q 133 -57 100 -67 q 89 36 89 -19 q 123 135 89 92 q 201 206 157 179 q 42 415 42 264 q 145 590 42 528 q 374 651 249 651 q 593 589 499 651 q 688 414 688 526 q 589 241 688 301 q 356 181 490 181 q 240 194 290 181 q 222 129 222 164 m 479 419 q 479 478 479 419 q 451 581 479 538 q 369 624 424 624 q 289 580 314 624 q 264 419 264 536 q 290 256 264 303 q 370 208 317 208 q 451 254 424 208 q 479 419 479 300 m 503 -96 l 269 -96 q 157 -72 203 -96 q 208 -226 138 -172 q 400 -279 278 -279 q 603 -218 522 -279 q 644 -162 640 -190 q 613 -115 649 -135 q 503 -96 576 -96 m 471 808 q 471 790 471 808 q 446 747 471 772 q 385 722 421 722 q 324 747 350 722 q 297 808 297 772 q 324 869 297 843 q 385 894 350 894 q 446 869 421 894 q 471 808 471 843 z "},"Ģ":{"ha":844,"x_min":42,"x_max":817,"o":"m 396 -200 l 363 -206 q 319 -188 338 -206 q 300 -140 300 -171 q 321 -89 300 -110 q 378 -68 342 -68 q 437 -96 414 -68 q 460 -160 460 -124 q 336 -333 460 -275 l 325 -311 q 411 -214 411 -264 q 396 -200 411 -200 m 725 0 q 707 53 725 32 q 660 75 689 75 q 602 51 632 75 q 533 3 572 28 q 438 -21 493 -21 q 145 76 249 -21 q 42 375 42 174 q 435 796 42 796 q 580 761 506 796 q 671 726 654 726 q 699 744 688 726 q 710 778 710 761 l 736 778 l 736 496 l 708 496 q 626 685 708 601 q 435 768 543 768 q 308 678 351 768 q 265 383 265 589 q 309 92 265 176 q 438 7 353 7 q 571 244 571 7 l 571 347 l 483 347 l 483 375 l 817 375 l 817 347 l 751 347 l 751 0 l 725 0 z "},"ģ":{"ha":747,"x_min":39,"x_max":732,"o":"m 222 129 q 272 85 222 90 l 511 85 q 683 32 635 85 q 717 -99 732 -21 q 622 -242 703 -176 q 400 -307 542 -307 q 67 -231 140 -307 q 43 -159 39 -200 q 74 -92 47 -118 q 133 -57 100 -67 q 89 36 89 -19 q 123 135 89 92 q 201 206 157 179 q 42 415 42 264 q 145 590 42 528 q 374 651 249 651 q 593 589 499 651 q 688 414 688 526 q 589 241 688 301 q 356 181 490 181 q 240 194 290 181 q 222 129 222 164 m 479 419 q 479 478 479 419 q 451 581 479 538 q 369 624 424 624 q 289 580 314 624 q 264 419 264 536 q 290 256 264 303 q 370 208 317 208 q 451 254 424 208 q 479 419 479 300 m 503 -96 l 269 -96 q 157 -72 203 -96 q 208 -226 138 -172 q 400 -279 278 -279 q 603 -218 522 -279 q 644 -162 640 -190 q 613 -115 649 -135 q 503 -96 576 -96 m 347 857 l 389 864 q 442 843 418 864 q 465 785 465 822 q 440 722 465 747 q 370 696 415 696 q 297 730 325 696 q 268 808 268 764 q 428 1013 268 939 l 435 994 q 329 875 329 932 q 347 857 329 857 z "},"ĥ":{"ha":896,"x_min":56,"x_max":854,"o":"m 785 28 l 854 28 l 854 0 l 507 0 l 507 28 l 576 28 l 576 417 q 547 557 576 515 q 460 599 518 599 q 333 515 381 599 l 333 28 l 403 28 l 403 0 l 56 0 l 56 28 l 125 28 l 125 903 l 56 903 l 56 931 l 333 931 l 333 567 q 415 629 360 604 q 538 654 471 654 q 785 386 785 654 l 785 28 m 222 1043 l 100 988 l 88 1000 l 208 1178 l 235 1178 l 357 1000 l 344 988 l 222 1043 z "},"Ħ":{"ha":940,"x_min":56,"x_max":885,"o":"m 885 750 l 815 750 l 815 608 l 885 608 l 885 581 l 815 581 l 815 28 l 885 28 l 885 0 l 538 0 l 538 28 l 607 28 l 607 400 l 333 400 l 333 28 l 403 28 l 403 0 l 56 0 l 56 28 l 125 28 l 125 581 l 56 581 l 56 608 l 125 608 l 125 750 l 56 750 l 56 778 l 403 778 l 403 750 l 333 750 l 333 608 l 607 608 l 607 750 l 538 750 l 538 778 l 885 778 l 885 750 m 607 428 l 607 581 l 333 581 l 333 428 l 607 428 z "},"ħ":{"ha":896,"x_min":56,"x_max":854,"o":"m 785 28 l 854 28 l 854 0 l 507 0 l 507 28 l 576 28 l 576 417 q 547 557 576 515 q 460 599 518 599 q 333 515 381 599 l 333 28 l 403 28 l 403 0 l 56 0 l 56 28 l 125 28 l 125 781 l 56 781 l 56 808 l 125 808 l 125 903 l 56 903 l 56 931 l 333 931 l 333 808 l 556 808 l 556 781 l 333 781 l 333 567 q 415 629 360 604 q 538 654 471 654 q 785 386 785 654 l 785 28 z "},"Ĩ":{"ha":431,"x_min":56,"x_max":403,"o":"m 117 875 l 89 875 q 182 1008 89 1008 q 244 987 208 1008 q 300 965 281 965 q 336 1001 336 965 l 364 1001 q 269 868 364 868 q 206 890 242 868 q 150 913 169 913 q 117 875 117 913 m 403 0 l 56 0 l 56 28 l 125 28 l 125 750 l 56 750 l 56 778 l 403 778 l 403 750 l 333 750 l 333 28 l 403 28 l 403 0 z "},"ĩ":{"ha":444,"x_min":56,"x_max":403,"o":"m 333 28 l 403 28 l 403 0 l 56 0 l 56 28 l 125 28 l 125 611 l 69 611 l 69 639 l 333 639 l 333 28 m 339 872 l 367 872 q 272 739 367 739 q 208 761 244 739 q 153 783 172 783 q 119 746 119 783 l 92 746 q 185 879 92 879 q 247 858 211 879 q 303 836 283 836 q 339 872 339 836 z "},"Ī":{"ha":431,"x_min":56,"x_max":403,"o":"m 354 982 l 354 913 l 76 913 l 76 982 l 354 982 m 403 0 l 56 0 l 56 28 l 125 28 l 125 750 l 56 750 l 56 778 l 403 778 l 403 750 l 333 750 l 333 28 l 403 28 l 403 0 z "},"ī":{"ha":444,"x_min":56,"x_max":403,"o":"m 333 28 l 403 28 l 403 0 l 56 0 l 56 28 l 125 28 l 125 611 l 69 611 l 69 639 l 333 639 l 333 28 m 367 843 l 367 774 l 89 774 l 89 843 l 367 843 z "},"Ĭ":{"ha":431,"x_min":56,"x_max":403,"o":"m 122 1035 q 222 967 122 967 q 322 1035 322 967 l 350 1035 q 322 906 350 951 q 224 861 293 861 q 94 1035 94 861 l 122 1035 m 403 0 l 56 0 l 56 28 l 125 28 l 125 750 l 56 750 l 56 778 l 403 778 l 403 750 l 333 750 l 333 28 l 403 28 l 403 0 z "},"ĭ":{"ha":444,"x_min":56,"x_max":403,"o":"m 333 28 l 403 28 l 403 0 l 56 0 l 56 28 l 125 28 l 125 611 l 69 611 l 69 639 l 333 639 l 333 28 m 328 896 l 356 896 q 327 767 356 813 q 229 722 299 722 q 100 896 100 722 l 128 896 q 228 828 128 828 q 328 896 328 828 z "},"Į":{"ha":431,"x_min":56,"x_max":403,"o":"m 403 750 l 333 750 l 333 28 l 403 28 l 403 0 l 253 0 q 225 -168 164 -122 q 303 -165 268 -197 l 317 -182 q 203 -246 267 -246 q 121 -206 143 -246 q 142 -89 96 -161 q 217 0 167 -47 l 56 0 l 56 28 l 125 28 l 125 750 l 56 750 l 56 778 l 403 778 l 403 750 z "},"į":{"ha":444,"x_min":56,"x_max":403,"o":"m 403 0 l 267 0 q 239 -168 178 -122 q 317 -165 282 -197 l 331 -182 q 217 -246 281 -246 q 135 -206 157 -246 q 156 -89 110 -161 q 231 0 181 -47 l 56 0 l 56 28 l 125 28 l 125 611 l 69 611 l 69 639 l 333 639 l 333 28 l 403 28 l 403 0 m 346 823 q 346 798 346 823 q 310 737 346 772 q 224 701 275 701 q 138 737 174 701 q 101 823 101 772 q 138 910 101 874 q 224 946 174 946 q 310 910 275 946 q 346 823 346 874 z "},"İ":{"ha":431,"x_min":56,"x_max":403,"o":"m 216 1035 q 234 1035 216 1035 q 276 1009 251 1035 q 301 948 301 983 q 276 888 301 913 q 216 863 251 863 q 154 888 181 863 q 128 948 128 913 q 154 1009 128 983 q 216 1035 181 1035 m 403 0 l 56 0 l 56 28 l 125 28 l 125 750 l 56 750 l 56 778 l 403 778 l 403 750 l 333 750 l 333 28 l 403 28 l 403 0 z "},"ı":{"ha":458,"x_min":56,"x_max":403,"o":"m 333 28 l 403 28 l 403 0 l 56 0 l 56 28 l 125 28 l 125 611 l 69 611 l 69 639 l 333 639 l 333 28 z "},"Ĳ":{"ha":1169,"x_min":56,"x_max":1114,"o":"m 1114 778 l 1114 750 l 1044 750 l 1044 286 q 963 76 1044 151 q 717 0 881 0 q 541 50 607 0 q 475 194 475 100 q 508 284 475 246 q 586 322 540 322 q 659 294 632 322 q 686 222 686 265 q 614 132 686 154 q 591 126 606 129 q 569 119 576 122 q 551 93 551 115 q 588 51 551 71 q 671 32 625 32 q 836 274 836 32 l 836 750 l 767 750 l 767 778 l 1114 778 m 403 778 l 403 750 l 333 750 l 333 28 l 403 28 l 403 0 l 56 0 l 56 28 l 125 28 l 125 750 l 56 750 l 56 778 l 403 778 z "},"ĳ":{"ha":918,"x_min":56,"x_max":835,"o":"m 819 639 l 819 -61 q 547 -347 819 -347 q 386 -292 439 -347 q 333 -165 333 -237 q 368 -58 333 -93 q 446 -24 403 -24 q 517 -48 489 -24 q 546 -115 546 -72 q 524 -179 546 -157 q 473 -206 501 -201 q 435 -212 444 -210 q 414 -224 425 -214 q 403 -250 403 -233 q 442 -300 403 -282 q 517 -318 481 -318 q 574 -303 554 -318 q 611 -104 611 -275 l 611 611 l 542 611 l 542 639 l 819 639 m 403 28 l 403 0 l 56 0 l 56 28 l 125 28 l 125 611 l 69 611 l 69 639 l 333 639 l 333 28 l 403 28 m 346 823 q 346 798 346 823 q 310 737 346 772 q 224 701 275 701 q 138 737 174 701 q 101 823 101 772 q 138 910 101 874 q 224 946 174 946 q 310 910 275 946 q 346 823 346 874 m 835 823 q 835 798 835 823 q 799 737 835 772 q 713 701 764 701 q 626 737 663 701 q 590 823 590 772 q 626 910 590 874 q 713 946 663 946 q 799 910 764 946 q 835 823 835 874 z "},"Ĵ":{"ha":694,"x_min":14,"x_max":653,"o":"m 360 853 l 347 865 l 468 1043 l 494 1043 l 617 865 l 604 853 l 482 908 l 360 853 m 256 0 q 80 50 146 0 q 14 194 14 100 q 47 284 14 246 q 125 322 79 322 q 198 294 171 322 q 225 222 225 265 q 153 132 225 154 q 130 126 144 129 q 108 119 115 122 q 90 93 90 115 q 127 51 90 71 q 210 32 164 32 q 375 274 375 32 l 375 750 l 306 750 l 306 778 l 653 778 l 653 750 l 583 750 l 583 286 q 501 76 583 151 q 256 0 419 0 z "},"ĵ":{"ha":435,"x_min":-142,"x_max":351,"o":"m 125 0 l 125 611 l 56 611 l 56 639 l 333 639 l 333 0 q 58 -306 333 -306 q -94 -266 -47 -306 q -142 -169 -142 -226 q -120 -117 -142 -136 q -69 -99 -99 -99 q 6 -188 6 -99 q 58 -278 6 -278 q 111 -210 97 -278 q 125 0 125 -143 m 94 714 l 82 726 l 203 904 l 229 904 l 351 726 l 339 714 l 217 769 l 94 714 z "},"Ķ":{"ha":889,"x_min":56,"x_max":875,"o":"m 875 28 l 875 0 l 514 0 l 514 28 l 576 28 l 392 365 l 333 292 l 333 28 l 403 28 l 403 0 l 56 0 l 56 28 l 125 28 l 125 750 l 56 750 l 56 778 l 403 778 l 403 750 l 333 750 l 333 340 l 656 750 l 528 750 l 528 778 l 811 778 l 811 750 l 693 750 l 529 542 l 815 28 l 875 28 m 497 -200 l 464 -206 q 420 -188 439 -206 q 401 -140 401 -171 q 422 -89 401 -110 q 479 -68 443 -68 q 538 -96 515 -68 q 561 -160 561 -124 q 438 -333 561 -275 l 426 -311 q 513 -214 513 -264 q 497 -200 513 -200 z "},"ķ":{"ha":858,"x_min":56,"x_max":844,"o":"m 844 28 l 844 0 q 583 27 656 0 q 439 163 510 54 l 351 297 l 333 281 l 333 28 l 403 28 l 403 0 l 56 0 l 56 28 l 125 28 l 125 903 l 56 903 l 56 931 l 333 931 l 333 322 l 624 611 l 511 611 l 511 639 l 775 639 l 775 611 l 665 611 l 499 446 l 665 196 q 844 28 778 28 m 511 -200 l 478 -206 q 434 -188 453 -206 q 415 -140 415 -171 q 436 -89 415 -110 q 493 -68 457 -68 q 552 -96 529 -68 q 575 -160 575 -124 q 451 -333 575 -275 l 440 -311 q 526 -214 526 -264 q 511 -200 526 -200 z "},"Ĺ":{"ha":722,"x_min":56,"x_max":708,"o":"m 681 264 l 708 264 l 708 0 l 56 0 l 56 28 l 125 28 l 125 750 l 56 750 l 56 778 l 417 778 l 417 750 l 333 750 l 333 28 l 472 28 q 551 35 519 28 q 615 64 582 42 q 681 264 681 107 m 183 835 l 164 849 q 194 935 188 883 q 219 1013 200 986 q 268 1048 239 1040 q 319 1042 297 1056 q 356 995 349 1029 q 342 932 363 961 q 265 888 321 903 q 183 835 210 872 z "},"ĺ":{"ha":444,"x_min":56,"x_max":403,"o":"m 333 28 l 403 28 l 403 0 l 56 0 l 56 28 l 125 28 l 125 903 l 56 903 l 56 931 l 333 931 l 333 28 m 175 993 l 156 1007 q 185 1093 179 1042 q 211 1172 192 1144 q 260 1206 231 1199 q 311 1200 289 1214 q 347 1153 340 1188 q 333 1090 354 1119 q 257 1046 313 1061 q 175 993 201 1031 z "},"Ļ":{"ha":722,"x_min":56,"x_max":708,"o":"m 681 264 l 708 264 l 708 0 l 56 0 l 56 28 l 125 28 l 125 750 l 56 750 l 56 778 l 417 778 l 417 750 l 333 750 l 333 28 l 472 28 q 551 35 519 28 q 615 64 582 42 q 681 264 681 107 m 400 -200 l 367 -206 q 323 -188 342 -206 q 304 -140 304 -171 q 325 -89 304 -110 q 382 -68 346 -68 q 441 -96 418 -68 q 464 -160 464 -124 q 340 -333 464 -275 l 329 -311 q 415 -214 415 -264 q 400 -200 415 -200 z "},"ļ":{"ha":444,"x_min":56,"x_max":403,"o":"m 333 28 l 403 28 l 403 0 l 56 0 l 56 28 l 125 28 l 125 903 l 56 903 l 56 931 l 333 931 l 333 28 m 247 -200 l 214 -206 q 170 -188 189 -206 q 151 -140 151 -171 q 172 -89 151 -110 q 229 -68 193 -68 q 288 -96 265 -68 q 311 -160 311 -124 q 188 -333 311 -275 l 176 -311 q 263 -214 263 -264 q 247 -200 263 -200 z "},"Ľ":{"ha":724,"x_min":56,"x_max":708,"o":"m 681 264 l 708 264 l 708 0 l 56 0 l 56 28 l 125 28 l 125 750 l 56 750 l 56 778 l 417 778 l 417 750 l 333 750 l 333 28 l 472 28 q 551 35 519 28 q 615 64 582 42 q 681 264 681 107 m 621 660 l 588 654 q 544 672 563 654 q 525 719 525 689 q 546 771 525 750 q 603 792 567 792 q 662 764 639 792 q 685 700 685 736 q 561 526 685 585 l 550 549 q 636 646 636 596 q 621 660 636 660 z "},"ľ":{"ha":567,"x_min":56,"x_max":568,"o":"m 496 822 l 458 815 q 410 834 432 815 q 389 887 389 853 q 412 944 389 921 q 475 968 435 968 q 542 937 515 968 q 568 867 568 906 q 424 681 568 746 l 417 697 q 513 806 513 753 q 496 822 513 822 m 333 931 l 333 28 l 403 28 l 403 0 l 56 0 l 56 28 l 125 28 l 125 903 l 56 903 l 56 931 l 333 931 z "},"Ŀ":{"ha":736,"x_min":56,"x_max":708,"o":"m 681 264 l 708 264 l 708 0 l 56 0 l 56 28 l 125 28 l 125 750 l 56 750 l 56 778 l 417 778 l 417 750 l 333 750 l 333 28 l 472 28 q 551 35 519 28 q 615 64 582 42 q 681 264 681 107 m 622 433 q 622 413 622 433 q 593 363 622 393 q 523 333 564 333 q 452 363 482 333 q 422 433 422 393 q 452 503 422 474 q 523 533 482 533 q 593 503 564 533 q 622 433 622 474 z "},"ŀ":{"ha":586,"x_min":56,"x_max":622,"o":"m 422 433 q 422 453 422 433 q 452 503 422 474 q 523 533 482 533 q 593 503 564 533 q 622 433 622 474 q 593 363 622 393 q 523 333 564 333 q 452 363 482 333 q 422 433 422 393 m 333 931 l 333 28 l 403 28 l 403 0 l 56 0 l 56 28 l 125 28 l 125 903 l 56 903 l 56 931 l 333 931 z "},"Ł":{"ha":736,"x_min":28,"x_max":708,"o":"m 681 264 l 708 264 l 708 0 l 56 0 l 56 28 l 125 28 l 125 406 l 28 354 l 28 389 l 125 440 l 125 750 l 56 750 l 56 778 l 417 778 l 417 750 l 333 750 l 333 550 l 528 653 l 528 618 l 333 515 l 333 28 l 472 28 q 551 35 519 28 q 615 64 582 42 q 681 264 681 107 z "},"ł":{"ha":500,"x_min":56,"x_max":458,"o":"m 361 28 l 431 28 l 431 0 l 83 0 l 83 28 l 153 28 l 153 418 l 56 354 l 56 389 l 153 453 l 153 903 l 83 903 l 83 931 l 361 931 l 361 589 l 458 653 l 458 618 l 361 554 l 361 28 z "},"Ń":{"ha":831,"x_min":28,"x_max":803,"o":"m 400 849 q 430 935 424 883 q 456 1013 436 986 q 504 1048 475 1040 q 556 1042 533 1056 q 592 995 585 1029 q 578 932 599 961 q 501 888 557 903 q 419 835 446 872 l 400 849 m 139 28 l 250 28 l 250 0 l 28 0 l 28 28 l 111 28 l 111 689 q 28 750 67 750 l 28 778 l 288 778 l 678 315 l 678 750 l 567 750 l 567 778 l 803 778 l 803 750 l 706 750 l 706 -14 l 678 -14 l 139 654 l 139 28 z "},"ń":{"ha":896,"x_min":56,"x_max":854,"o":"m 785 28 l 854 28 l 854 0 l 507 0 l 507 28 l 576 28 l 576 417 q 547 557 576 515 q 460 599 518 599 q 333 515 381 599 l 333 28 l 403 28 l 403 0 l 56 0 l 56 28 l 125 28 l 125 611 l 56 611 l 56 639 l 333 639 l 333 567 q 416 628 360 603 q 538 654 472 654 q 785 386 785 654 l 785 28 m 381 696 l 361 710 q 391 796 385 744 q 417 874 397 847 q 465 909 436 901 q 517 903 494 917 q 553 856 546 890 q 539 793 560 822 q 463 749 518 764 q 381 696 407 733 z "},"Ņ":{"ha":831,"x_min":28,"x_max":803,"o":"m 469 -200 l 436 -206 q 392 -188 411 -206 q 374 -140 374 -171 q 394 -89 374 -110 q 451 -68 415 -68 q 510 -96 488 -68 q 533 -160 533 -124 q 410 -333 533 -275 l 399 -311 q 485 -214 485 -264 q 469 -200 485 -200 m 139 28 l 250 28 l 250 0 l 28 0 l 28 28 l 111 28 l 111 689 q 28 750 67 750 l 28 778 l 288 778 l 678 315 l 678 750 l 567 750 l 567 778 l 803 778 l 803 750 l 706 750 l 706 -14 l 678 -14 l 139 654 l 139 28 z "},"ņ":{"ha":896,"x_min":56,"x_max":854,"o":"m 785 28 l 854 28 l 854 0 l 507 0 l 507 28 l 576 28 l 576 417 q 547 557 576 515 q 460 599 518 599 q 333 515 381 599 l 333 28 l 403 28 l 403 0 l 56 0 l 56 28 l 125 28 l 125 611 l 56 611 l 56 639 l 333 639 l 333 567 q 416 628 360 603 q 538 654 472 654 q 785 386 785 654 l 785 28 m 493 -200 l 460 -206 q 416 -188 435 -206 q 397 -140 397 -171 q 418 -89 397 -110 q 475 -68 439 -68 q 534 -96 511 -68 q 557 -160 557 -124 q 433 -333 557 -275 l 422 -311 q 508 -214 508 -264 q 493 -200 508 -200 z "},"Ň":{"ha":831,"x_min":28,"x_max":803,"o":"m 318 1043 l 440 988 l 563 1043 l 575 1031 l 453 853 l 426 853 l 306 1031 l 318 1043 m 139 28 l 250 28 l 250 0 l 28 0 l 28 28 l 111 28 l 111 689 q 28 750 67 750 l 28 778 l 288 778 l 678 315 l 678 750 l 567 750 l 567 778 l 803 778 l 803 750 l 706 750 l 706 -14 l 678 -14 l 139 654 l 139 28 z "},"ň":{"ha":896,"x_min":56,"x_max":854,"o":"m 785 28 l 854 28 l 854 0 l 507 0 l 507 28 l 576 28 l 576 417 q 547 557 576 515 q 460 599 518 599 q 333 515 381 599 l 333 28 l 403 28 l 403 0 l 56 0 l 56 28 l 125 28 l 125 611 l 56 611 l 56 639 l 333 639 l 333 567 q 416 628 360 603 q 538 654 472 654 q 785 386 785 654 l 785 28 m 439 714 l 413 714 l 292 892 l 304 904 l 426 849 l 549 904 l 561 892 l 439 714 z "},"Ŋ":{"ha":886,"x_min":56,"x_max":831,"o":"m 569 -350 q 491 -319 524 -350 q 458 -240 458 -289 q 485 -164 458 -192 q 551 -136 511 -136 q 615 -153 592 -136 q 652 -185 638 -169 q 676 -201 667 -201 q 706 -97 706 -201 l 706 -58 q 681 17 706 -14 l 167 654 l 167 28 l 278 28 l 278 0 l 56 0 l 56 28 l 139 28 l 139 689 q 56 750 94 750 l 56 778 l 315 778 l 706 315 l 706 750 l 594 750 l 594 778 l 831 778 l 831 750 l 733 750 l 733 -99 q 569 -350 733 -350 z "},"ŋ":{"ha":868,"x_min":56,"x_max":785,"o":"m 333 639 l 333 567 q 416 628 360 603 q 538 654 472 654 q 785 386 785 654 l 785 0 q 690 -258 785 -182 q 411 -333 594 -333 l 411 -306 q 539 -231 501 -306 q 576 0 576 -156 l 576 417 q 547 557 576 515 q 460 599 518 599 q 333 515 381 599 l 333 28 l 403 28 l 403 0 l 56 0 l 56 28 l 125 28 l 125 611 l 56 611 l 56 639 l 333 639 z "},"Ō":{"ha":864,"x_min":28,"x_max":836,"o":"m 569 982 l 569 913 l 292 913 l 292 982 l 569 982 m 613 390 q 565 667 613 568 q 433 767 517 767 q 300 667 349 767 q 251 388 251 567 q 298 111 251 208 q 432 14 344 14 q 613 390 613 14 m 836 383 q 836 287 836 383 q 724 89 836 192 q 431 -14 611 -14 q 139 88 250 -14 q 28 381 28 190 q 139 683 28 572 q 434 794 250 794 q 727 684 618 794 q 836 383 836 574 z "},"ō":{"ha":783,"x_min":42,"x_max":742,"o":"m 529 843 l 529 774 l 251 774 l 251 843 l 529 843 m 285 84 q 300 49 285 84 q 390 14 315 14 q 497 85 465 14 q 529 319 529 156 q 497 553 529 482 q 390 625 465 625 q 285 553 315 625 q 254 318 254 482 q 285 84 254 154 m 388 -14 q 322 -14 388 -14 q 149 72 256 -14 q 42 317 42 158 q 73 468 42 401 q 156 574 104 535 q 268 633 208 613 q 390 653 328 653 q 513 633 453 653 q 626 574 574 613 q 710 468 678 535 q 742 318 742 401 q 710 169 742 235 q 625 65 678 104 q 388 -14 519 -14 z "},"Ŏ":{"ha":864,"x_min":28,"x_max":836,"o":"m 332 1035 q 432 967 332 967 q 532 1035 532 967 l 560 1035 q 531 906 560 951 q 433 861 503 861 q 304 1035 304 861 l 332 1035 m 613 390 q 565 667 613 568 q 433 767 517 767 q 300 667 349 767 q 251 388 251 567 q 298 111 251 208 q 432 14 344 14 q 613 390 613 14 m 836 383 q 836 287 836 383 q 724 89 836 192 q 431 -14 611 -14 q 139 88 250 -14 q 28 381 28 190 q 139 683 28 572 q 434 794 250 794 q 727 684 618 794 q 836 383 836 574 z "},"ŏ":{"ha":783,"x_min":42,"x_max":742,"o":"m 290 896 q 390 828 290 828 q 490 896 490 828 l 518 896 q 490 767 518 813 q 392 722 461 722 q 263 896 263 722 l 290 896 m 285 84 q 300 49 285 84 q 390 14 315 14 q 497 85 465 14 q 529 319 529 156 q 497 553 529 482 q 390 625 465 625 q 285 553 315 625 q 254 318 254 482 q 285 84 254 154 m 388 -14 q 322 -14 388 -14 q 149 72 256 -14 q 42 317 42 158 q 73 468 42 401 q 156 574 104 535 q 268 633 208 613 q 390 653 328 653 q 513 633 453 653 q 626 574 574 613 q 710 468 678 535 q 742 318 742 401 q 710 169 742 235 q 625 65 678 104 q 388 -14 519 -14 z "},"Ő":{"ha":864,"x_min":28,"x_max":836,"o":"m 319 847 q 326 938 333 886 q 331 1021 318 990 q 369 1067 343 1051 q 419 1075 394 1082 q 467 1038 451 1069 q 469 974 482 1007 q 407 911 457 940 q 342 839 357 882 l 319 847 m 528 847 q 534 938 542 886 q 539 1021 526 990 q 577 1067 551 1051 q 628 1075 603 1082 q 675 1038 660 1069 q 678 974 690 1007 q 615 911 665 940 q 550 839 565 882 l 528 847 m 613 390 q 565 667 613 568 q 433 767 517 767 q 300 667 349 767 q 251 388 251 567 q 298 111 251 208 q 432 14 344 14 q 613 390 613 14 m 836 383 q 836 287 836 383 q 724 89 836 192 q 431 -14 611 -14 q 139 88 250 -14 q 28 381 28 190 q 139 683 28 572 q 434 794 250 794 q 727 684 618 794 q 836 383 836 574 z "},"ő":{"ha":783,"x_min":42,"x_max":742,"o":"m 250 694 q 256 785 264 733 q 261 868 249 838 q 299 914 274 899 q 350 922 325 929 q 397 885 382 917 q 400 821 413 854 q 338 758 388 788 q 272 686 288 729 l 250 694 m 458 694 q 465 785 472 733 q 469 868 457 838 q 508 914 482 899 q 558 922 533 929 q 606 885 590 917 q 608 821 621 854 q 546 758 596 788 q 481 686 496 729 l 458 694 m 285 84 q 300 49 285 84 q 390 14 315 14 q 497 85 465 14 q 529 319 529 156 q 497 553 529 482 q 390 625 465 625 q 285 553 315 625 q 254 318 254 482 q 285 84 254 154 m 388 -14 q 322 -14 388 -14 q 149 72 256 -14 q 42 317 42 158 q 73 468 42 401 q 156 574 104 535 q 268 633 208 613 q 390 653 328 653 q 513 633 453 653 q 626 574 574 613 q 710 468 678 535 q 742 318 742 401 q 710 169 742 235 q 625 65 678 104 q 388 -14 519 -14 z "},"Œ":{"ha":1139,"x_min":40,"x_max":1069,"o":"m 1042 264 l 1069 264 l 1069 0 l 446 0 q 152 94 263 0 q 41 376 42 188 q 151 671 40 564 q 446 778 261 778 l 1056 778 l 1056 542 l 1028 542 q 978 708 1028 665 q 819 750 929 750 l 722 750 l 722 417 l 750 417 q 876 442 850 417 q 903 542 903 467 l 931 542 l 931 264 l 903 264 q 876 365 903 342 q 750 389 850 389 l 722 389 l 722 28 l 833 28 q 1042 264 1042 28 m 514 28 l 514 750 l 446 750 q 313 654 361 750 q 265 382 264 558 q 312 117 265 206 q 446 28 358 28 l 514 28 z "},"œ":{"ha":1214,"x_min":42,"x_max":1168,"o":"m 1168 278 l 744 278 q 935 33 758 33 q 1042 56 982 33 q 1131 118 1103 78 l 1150 104 q 1046 19 1119 53 q 897 -14 972 -14 q 631 69 721 -14 q 392 -14 529 -14 q 149 72 256 -14 q 42 317 42 158 q 73 468 42 401 q 156 574 104 535 q 397 653 263 653 q 631 569 531 653 q 858 653 722 653 q 1081 563 993 653 q 1168 278 1168 474 m 743 306 l 969 306 q 942 529 969 433 q 856 625 915 625 q 769 533 796 625 q 743 321 743 440 l 743 306 m 285 84 q 300 49 285 84 q 390 14 315 14 q 497 85 465 14 q 529 319 529 156 q 497 553 529 482 q 390 625 465 625 q 285 553 315 625 q 254 318 254 482 q 285 84 254 154 z "},"Ŕ":{"ha":879,"x_min":42,"x_max":865,"o":"m 372 846 q 402 932 396 881 q 428 1010 408 983 q 476 1045 447 1038 q 528 1039 506 1053 q 564 992 557 1026 q 550 929 571 958 q 474 885 529 900 q 392 832 418 869 l 372 846 m 319 750 l 319 392 q 506 432 458 392 q 553 567 553 472 q 504 706 553 661 q 319 750 456 750 m 865 -14 l 804 -14 q 563 61 631 -14 q 489 215 508 119 q 471 289 481 256 q 381 364 449 364 l 319 364 l 319 28 l 389 28 l 389 0 l 42 0 l 42 28 l 111 28 l 111 750 l 42 750 l 42 778 l 407 778 q 761 571 761 778 q 701 438 761 489 q 549 386 642 386 l 549 376 q 742 193 688 376 q 798 55 769 96 q 865 14 826 14 l 865 -14 z "},"ŕ":{"ha":671,"x_min":56,"x_max":665,"o":"m 292 710 q 322 796 315 744 q 347 874 328 847 q 396 909 367 901 q 447 903 425 917 q 483 856 476 890 q 469 793 490 822 q 393 749 449 764 q 311 696 338 733 l 292 710 m 403 0 l 56 0 l 56 28 l 125 28 l 125 611 l 56 611 l 56 639 l 333 639 l 333 474 q 378 585 346 542 q 451 642 411 628 q 527 656 490 656 q 598 642 564 656 q 649 590 632 629 q 650 510 665 550 q 597 454 635 471 q 526 450 558 438 q 481 484 494 463 q 461 525 467 506 q 424 576 447 576 q 365 485 397 576 q 333 293 333 394 l 333 28 l 403 28 l 403 0 z "},"Ŗ":{"ha":879,"x_min":42,"x_max":865,"o":"m 525 -200 l 492 -206 q 448 -188 467 -206 q 429 -140 429 -171 q 450 -89 429 -110 q 507 -68 471 -68 q 566 -96 543 -68 q 589 -160 589 -124 q 465 -333 589 -275 l 454 -311 q 540 -214 540 -264 q 525 -200 540 -200 m 319 750 l 319 392 q 506 432 458 392 q 553 567 553 472 q 504 706 553 661 q 319 750 456 750 m 865 -14 l 804 -14 q 563 61 631 -14 q 489 215 508 119 q 471 289 481 256 q 381 364 449 364 l 319 364 l 319 28 l 389 28 l 389 0 l 42 0 l 42 28 l 111 28 l 111 750 l 42 750 l 42 778 l 407 778 q 761 571 761 778 q 701 438 761 489 q 549 386 642 386 l 549 376 q 742 193 688 376 q 798 55 769 96 q 865 14 826 14 l 865 -14 z "},"ŗ":{"ha":671,"x_min":56,"x_max":665,"o":"m 250 -200 l 217 -206 q 173 -188 192 -206 q 154 -140 154 -171 q 175 -89 154 -110 q 232 -68 196 -68 q 291 -96 268 -68 q 314 -160 314 -124 q 190 -333 314 -275 l 179 -311 q 265 -214 265 -264 q 250 -200 265 -200 m 403 0 l 56 0 l 56 28 l 125 28 l 125 611 l 56 611 l 56 639 l 333 639 l 333 474 q 378 585 346 542 q 451 642 411 628 q 527 656 490 656 q 598 642 564 656 q 649 590 632 629 q 650 510 665 550 q 597 454 635 471 q 526 450 558 438 q 481 484 494 463 q 461 525 467 506 q 424 576 447 576 q 365 485 397 576 q 333 293 333 394 l 333 28 l 403 28 l 403 0 z "},"Ř":{"ha":879,"x_min":42,"x_max":865,"o":"m 276 1043 l 399 988 l 521 1043 l 533 1031 l 411 853 l 385 853 l 264 1031 l 276 1043 m 319 750 l 319 392 q 506 432 458 392 q 553 567 553 472 q 504 706 553 661 q 319 750 456 750 m 865 -14 l 804 -14 q 563 61 631 -14 q 489 215 508 119 q 471 289 481 256 q 381 364 449 364 l 319 364 l 319 28 l 389 28 l 389 0 l 42 0 l 42 28 l 111 28 l 111 750 l 42 750 l 42 778 l 407 778 q 761 571 761 778 q 701 438 761 489 q 549 386 642 386 l 549 376 q 742 193 688 376 q 798 55 769 96 q 865 14 826 14 l 865 -14 z "},"ř":{"ha":671,"x_min":56,"x_max":665,"o":"m 235 904 l 357 849 l 479 904 l 492 892 l 369 714 l 343 714 l 222 892 l 235 904 m 403 0 l 56 0 l 56 28 l 125 28 l 125 611 l 56 611 l 56 639 l 333 639 l 333 474 q 378 585 346 542 q 451 642 411 628 q 527 656 490 656 q 598 642 564 656 q 649 590 632 629 q 650 510 665 550 q 597 454 635 471 q 526 450 558 438 q 481 484 494 463 q 461 525 467 506 q 424 576 447 576 q 365 485 397 576 q 333 293 333 394 l 333 28 l 403 28 l 403 0 z "},"Ś":{"ha":713,"x_min":83,"x_max":725,"o":"m 336 835 l 317 849 q 347 935 340 883 q 372 1013 353 986 q 421 1048 392 1040 q 472 1042 450 1056 q 508 995 501 1029 q 494 932 515 961 q 418 888 474 903 q 336 835 363 872 m 111 0 l 83 0 l 83 324 l 111 324 q 205 101 111 193 q 433 10 299 10 q 523 42 489 10 q 557 129 557 75 q 478 233 557 190 q 329 303 435 256 q 181 385 224 351 q 105 561 94 451 q 188 731 115 671 q 351 792 260 792 q 515 767 442 792 q 597 743 588 743 q 625 792 625 743 l 653 792 l 653 538 l 625 538 q 551 701 625 638 q 363 764 478 764 q 282 734 311 764 q 253 668 253 704 q 263 613 253 632 q 297 577 272 593 q 339 551 321 561 q 397 525 357 542 q 451 501 436 508 q 542 460 528 467 q 582 440 556 454 q 622 415 608 426 q 656 388 635 404 q 686 353 676 371 q 706 314 696 336 q 719 210 725 269 q 635 38 708 97 q 439 -21 563 -21 q 218 36 328 -21 q 163 56 181 56 q 111 0 111 56 z "},"ś":{"ha":661,"x_min":36,"x_max":633,"o":"m 292 710 q 322 796 315 744 q 347 874 328 847 q 396 909 367 901 q 447 903 425 917 q 483 856 476 890 q 469 793 490 822 q 393 749 449 764 q 311 696 338 733 l 292 710 m 361 11 q 506 90 506 11 q 456 163 506 135 q 335 210 406 192 q 195 251 264 228 q 81 326 126 275 q 44 461 36 378 q 130 599 53 544 q 320 653 207 653 q 503 617 433 653 q 581 519 572 581 q 569 450 586 482 q 512 417 551 418 q 447 438 472 415 q 422 489 421 460 q 444 541 424 518 q 465 578 465 564 q 420 613 465 601 q 316 625 375 625 q 219 599 257 625 q 182 533 182 572 q 228 467 182 494 q 342 422 275 439 q 474 383 408 404 q 587 314 540 361 q 633 194 633 267 q 565 41 633 99 q 360 -17 497 -17 q 137 25 222 -17 q 43 132 51 67 q 56 201 38 169 q 113 235 74 233 q 177 214 151 236 q 201 163 203 192 q 179 110 200 133 q 158 74 158 88 q 223 28 158 46 q 361 11 288 11 z "},"Ŝ":{"ha":713,"x_min":83,"x_max":725,"o":"m 111 0 l 83 0 l 83 324 l 111 324 q 205 101 111 193 q 433 10 299 10 q 523 42 489 10 q 557 129 557 75 q 478 233 557 190 q 329 303 435 256 q 181 385 224 351 q 105 561 94 451 q 188 731 115 671 q 351 792 260 792 q 515 767 442 792 q 597 743 588 743 q 625 792 625 743 l 653 792 l 653 538 l 625 538 q 551 701 625 638 q 363 764 478 764 q 282 734 311 764 q 253 668 253 704 q 263 613 253 632 q 297 577 272 593 q 339 551 321 561 q 397 525 357 542 q 451 501 436 508 q 542 460 528 467 q 582 440 556 454 q 622 415 608 426 q 656 388 635 404 q 686 353 676 371 q 706 314 696 336 q 719 210 725 269 q 635 38 708 97 q 439 -21 563 -21 q 218 36 328 -21 q 163 56 181 56 q 111 0 111 56 m 265 853 l 253 865 l 374 1043 l 400 1043 l 522 865 l 510 853 l 388 908 l 265 853 z "},"ŝ":{"ha":661,"x_min":36,"x_max":633,"o":"m 207 714 l 194 726 l 315 904 l 342 904 l 464 726 l 451 714 l 329 769 l 207 714 m 361 11 q 506 90 506 11 q 456 163 506 135 q 335 210 406 192 q 195 251 264 228 q 81 326 126 275 q 44 461 36 378 q 130 599 53 544 q 320 653 207 653 q 503 617 433 653 q 581 519 572 581 q 569 450 586 482 q 512 417 551 418 q 447 438 472 415 q 422 489 421 460 q 444 541 424 518 q 465 578 465 564 q 420 613 465 601 q 316 625 375 625 q 219 599 257 625 q 182 533 182 572 q 228 467 182 494 q 342 422 275 439 q 474 383 408 404 q 587 314 540 361 q 633 194 633 267 q 565 41 633 99 q 360 -17 497 -17 q 137 25 222 -17 q 43 132 51 67 q 56 201 38 169 q 113 235 74 233 q 177 214 151 236 q 201 163 203 192 q 179 110 200 133 q 158 74 158 88 q 223 28 158 46 q 361 11 288 11 z "},"Ş":{"ha":713,"x_min":83,"x_max":725,"o":"m 653 538 l 625 538 q 551 701 625 638 q 363 764 478 764 q 282 734 311 764 q 253 668 253 704 q 263 613 253 632 q 297 577 272 593 q 339 551 321 561 q 397 525 357 542 q 451 501 436 508 q 542 460 528 467 q 582 440 556 454 q 622 415 608 426 q 656 388 635 404 q 686 353 676 371 q 706 314 696 336 q 719 210 725 269 q 635 38 708 97 q 439 -21 563 -21 q 406 -19 417 -21 l 357 -107 q 472 -140 426 -108 q 511 -222 517 -171 q 371 -331 500 -336 q 300 -313 331 -329 q 260 -282 269 -297 l 250 -267 l 272 -246 q 355 -298 304 -301 q 417 -237 406 -294 q 390 -158 425 -187 q 308 -128 356 -128 l 369 -15 q 244 25 310 -6 q 163 56 179 56 q 111 0 111 56 l 83 0 l 83 324 l 111 324 q 205 101 111 193 q 433 10 299 10 q 523 42 489 10 q 557 129 557 75 q 478 233 557 190 q 329 303 435 256 q 181 385 224 351 q 105 561 94 451 q 188 731 115 671 q 351 792 260 792 q 515 767 442 792 q 597 743 588 743 q 625 792 625 743 l 653 792 l 653 538 z "},"ş":{"ha":661,"x_min":36,"x_max":633,"o":"m 158 74 q 223 28 158 46 q 361 11 288 11 q 506 90 506 11 q 456 163 506 135 q 335 210 406 192 q 195 251 264 228 q 81 326 126 275 q 44 461 36 378 q 130 599 53 544 q 320 653 207 653 q 503 617 433 653 q 581 519 572 581 q 569 450 586 482 q 512 417 551 418 q 447 438 472 415 q 422 489 421 460 q 444 541 424 518 q 465 578 465 564 q 420 613 465 601 q 316 625 375 625 q 219 599 257 625 q 182 533 182 572 q 228 467 182 494 q 342 422 275 439 q 474 383 408 404 q 587 314 540 361 q 633 185 633 267 q 569 45 633 103 q 379 -17 506 -12 l 329 -107 q 444 -140 399 -108 q 483 -222 489 -171 q 343 -331 472 -336 q 272 -313 303 -329 q 232 -282 242 -297 l 222 -267 l 244 -246 q 327 -298 276 -301 q 389 -237 378 -294 q 363 -158 397 -187 q 281 -128 328 -128 l 340 -17 q 131 28 211 -14 q 43 132 51 69 q 56 201 38 169 q 113 235 74 233 q 177 214 151 236 q 201 163 203 192 q 179 110 200 133 q 158 74 158 88 z "},"Š":{"ha":713,"x_min":83,"x_max":725,"o":"m 111 0 l 83 0 l 83 324 l 111 324 q 205 101 111 193 q 433 10 299 10 q 523 42 489 10 q 557 129 557 75 q 478 233 557 190 q 329 303 435 256 q 181 385 224 351 q 105 561 94 451 q 188 731 115 671 q 351 792 260 792 q 515 767 442 792 q 597 743 588 743 q 625 792 625 743 l 653 792 l 653 538 l 625 538 q 551 701 625 638 q 363 764 478 764 q 282 734 311 764 q 253 668 253 704 q 263 613 253 632 q 297 577 272 593 q 339 551 321 561 q 397 525 357 542 q 451 501 436 508 q 542 460 528 467 q 582 440 556 454 q 622 415 608 426 q 656 388 635 404 q 686 353 676 371 q 706 314 696 336 q 719 210 725 269 q 635 38 708 97 q 439 -21 563 -21 q 218 36 328 -21 q 163 56 181 56 q 111 0 111 56 m 251 1043 l 374 988 l 496 1043 l 508 1031 l 386 853 l 360 853 l 239 1031 l 251 1043 z "},"š":{"ha":661,"x_min":36,"x_max":633,"o":"m 207 904 l 329 849 l 451 904 l 464 892 l 342 714 l 315 714 l 194 892 l 207 904 m 361 11 q 506 90 506 11 q 456 163 506 135 q 335 210 406 192 q 195 251 264 228 q 81 326 126 275 q 44 461 36 378 q 130 599 53 544 q 320 653 207 653 q 503 617 433 653 q 581 519 572 581 q 569 450 586 482 q 512 417 551 418 q 447 438 472 415 q 422 489 421 460 q 444 541 424 518 q 465 578 465 564 q 420 613 465 601 q 316 625 375 625 q 219 599 257 625 q 182 533 182 572 q 228 467 182 494 q 342 422 275 439 q 474 383 408 404 q 587 314 540 361 q 633 194 633 267 q 565 41 633 99 q 360 -17 497 -17 q 137 25 222 -17 q 43 132 51 67 q 56 201 38 169 q 113 235 74 233 q 177 214 151 236 q 201 163 203 192 q 179 110 200 133 q 158 74 158 88 q 223 28 158 46 q 361 11 288 11 z "},"Ţ":{"ha":790,"x_min":28,"x_max":763,"o":"m 428 -200 l 394 -206 q 351 -188 369 -206 q 332 -140 332 -171 q 353 -89 332 -110 q 410 -68 374 -68 q 469 -96 446 -68 q 492 -160 492 -124 q 368 -333 492 -275 l 357 -311 q 443 -214 443 -264 q 428 -200 443 -200 m 735 542 q 694 708 735 665 q 540 750 653 750 l 499 750 l 499 28 l 596 28 l 596 0 l 193 0 l 193 28 l 290 28 l 290 750 l 249 750 q 97 708 138 750 q 56 542 56 665 l 28 542 l 28 778 l 763 778 l 763 542 l 735 542 z "},"ţ":{"ha":501,"x_min":0,"x_max":488,"o":"m 311 611 l 311 272 q 321 127 311 153 q 342 83 331 101 q 415 47 363 47 q 488 61 467 47 l 488 33 q 342 -14 421 -14 q 164 42 225 -14 q 103 240 103 97 l 103 611 l 0 611 l 0 639 l 103 639 q 221 703 169 650 q 292 851 272 757 l 311 851 l 311 639 l 472 639 l 472 611 l 311 611 m 317 -200 l 283 -206 q 240 -188 258 -206 q 221 -140 221 -171 q 242 -89 221 -110 q 299 -68 263 -68 q 358 -96 335 -68 q 381 -160 381 -124 q 257 -333 381 -275 l 246 -311 q 332 -214 332 -264 q 317 -200 332 -200 z "},"Ť":{"ha":790,"x_min":28,"x_max":763,"o":"m 282 1043 l 404 988 l 526 1043 l 539 1031 l 417 853 l 390 853 l 269 1031 l 282 1043 m 735 542 q 694 708 735 665 q 540 750 653 750 l 499 750 l 499 28 l 596 28 l 596 0 l 193 0 l 193 28 l 290 28 l 290 750 l 249 750 q 97 708 138 750 q 56 542 56 665 l 28 542 l 28 778 l 763 778 l 763 542 l 735 542 z "},"ť":{"ha":539,"x_min":0,"x_max":526,"o":"m 311 611 l 311 272 q 321 127 311 153 q 342 83 331 101 q 415 47 363 47 q 488 61 467 47 l 488 33 q 342 -14 421 -14 q 164 42 225 -14 q 103 240 103 97 l 103 611 l 0 611 l 0 639 l 103 639 q 221 703 169 650 q 292 851 272 757 l 311 851 l 311 639 l 472 639 l 472 611 l 311 611 m 454 822 l 417 815 q 369 834 390 815 q 347 887 347 853 q 370 944 347 921 q 433 968 393 968 q 500 937 474 968 q 526 867 526 906 q 382 681 526 746 l 375 697 q 471 806 471 753 q 454 822 471 822 z "},"Ŧ":{"ha":763,"x_min":14,"x_max":749,"o":"m 582 28 l 582 0 l 179 0 l 179 28 l 276 28 l 276 375 l 110 375 l 110 403 l 276 403 l 276 750 q 94 708 147 750 q 42 542 42 667 l 14 542 l 14 778 l 749 778 l 749 542 l 721 542 q 667 708 721 667 q 485 750 614 750 l 485 403 l 651 403 l 651 375 l 485 375 l 485 28 l 582 28 z "},"ŧ":{"ha":529,"x_min":14,"x_max":501,"o":"m 325 375 l 325 272 q 335 127 325 153 q 356 83 344 101 q 428 47 376 47 q 501 61 481 47 l 501 33 q 356 -14 435 -14 q 178 42 239 -14 q 117 240 117 97 l 117 375 l 14 375 l 14 403 l 117 403 l 117 611 l 14 611 l 14 639 l 117 639 q 234 701 182 650 q 306 838 286 753 l 325 838 l 325 639 l 486 639 l 486 611 l 325 611 l 325 403 l 486 403 l 486 375 l 325 375 z "},"Ũ":{"ha":840,"x_min":28,"x_max":826,"o":"m 399 875 l 371 875 q 464 1008 371 1008 q 526 987 490 1008 q 582 965 563 965 q 618 1001 618 965 l 646 1001 q 551 868 646 868 q 488 890 524 868 q 432 913 451 913 q 399 875 399 913 m 757 339 q 454 -21 757 -21 q 192 65 286 -21 q 97 325 97 151 l 97 750 l 28 750 l 28 778 l 389 778 l 389 750 l 319 750 l 319 310 q 514 19 319 19 q 658 98 593 19 q 722 311 722 176 l 722 750 l 613 750 l 613 778 l 826 778 l 826 750 l 757 750 l 757 339 z "},"ũ":{"ha":861,"x_min":14,"x_max":813,"o":"m 292 746 l 264 746 q 357 879 264 879 q 419 858 383 879 q 475 836 456 836 q 511 872 511 836 l 539 872 q 444 739 539 739 q 381 761 417 739 q 325 783 344 783 q 292 746 292 783 m 535 0 l 535 74 q 452 10 508 36 q 331 -15 396 -15 q 83 253 83 -15 l 83 611 l 14 611 l 14 639 l 292 639 l 292 222 q 321 82 292 124 q 408 40 350 40 q 535 124 486 40 l 535 611 l 465 611 l 465 639 l 743 639 l 743 28 l 813 28 l 813 0 l 535 0 z "},"Ū":{"ha":840,"x_min":28,"x_max":826,"o":"m 638 982 l 638 913 l 360 913 l 360 982 l 638 982 m 757 339 q 454 -21 757 -21 q 192 65 286 -21 q 97 325 97 151 l 97 750 l 28 750 l 28 778 l 389 778 l 389 750 l 319 750 l 319 310 q 514 19 319 19 q 658 98 593 19 q 722 311 722 176 l 722 750 l 613 750 l 613 778 l 826 778 l 826 750 l 757 750 l 757 339 z "},"ū":{"ha":861,"x_min":14,"x_max":813,"o":"m 549 843 l 549 774 l 271 774 l 271 843 l 549 843 m 535 0 l 535 74 q 452 10 508 36 q 331 -15 396 -15 q 83 253 83 -15 l 83 611 l 14 611 l 14 639 l 292 639 l 292 222 q 321 82 292 124 q 408 40 350 40 q 535 124 486 40 l 535 611 l 465 611 l 465 639 l 743 639 l 743 28 l 813 28 l 813 0 l 535 0 z "},"Ŭ":{"ha":840,"x_min":28,"x_max":826,"o":"m 397 1035 q 497 967 397 967 q 597 1035 597 967 l 625 1035 q 597 906 625 951 q 499 861 568 861 q 369 1035 369 861 l 397 1035 m 757 339 q 454 -21 757 -21 q 192 65 286 -21 q 97 325 97 151 l 97 750 l 28 750 l 28 778 l 389 778 l 389 750 l 319 750 l 319 310 q 514 19 319 19 q 658 98 593 19 q 722 311 722 176 l 722 750 l 613 750 l 613 778 l 826 778 l 826 750 l 757 750 l 757 339 z "},"ŭ":{"ha":861,"x_min":14,"x_max":813,"o":"m 299 896 q 399 828 299 828 q 499 896 499 828 l 526 896 q 498 767 526 813 q 400 722 469 722 q 271 896 271 722 l 299 896 m 535 0 l 535 74 q 452 10 508 36 q 331 -15 396 -15 q 83 253 83 -15 l 83 611 l 14 611 l 14 639 l 292 639 l 292 222 q 321 82 292 124 q 408 40 350 40 q 535 124 486 40 l 535 611 l 465 611 l 465 639 l 743 639 l 743 28 l 813 28 l 813 0 l 535 0 z "},"Ů":{"ha":840,"x_min":28,"x_max":826,"o":"m 618 947 q 618 924 618 947 q 583 865 618 900 q 501 831 549 831 q 419 865 453 831 q 385 947 385 899 q 419 1031 385 996 q 500 1065 453 1065 q 583 1030 547 1065 q 618 947 618 994 m 458 902 q 466 892 458 902 q 500 882 475 882 q 543 902 525 882 q 561 948 561 922 q 544 992 561 974 q 500 1010 526 1010 q 457 992 474 1010 q 440 948 440 974 q 458 902 440 922 m 757 339 q 454 -21 757 -21 q 192 65 286 -21 q 97 325 97 151 l 97 750 l 28 750 l 28 778 l 389 778 l 389 750 l 319 750 l 319 310 q 514 19 319 19 q 658 98 593 19 q 722 311 722 176 l 722 750 l 613 750 l 613 778 l 826 778 l 826 750 l 757 750 l 757 339 z "},"ů":{"ha":861,"x_min":14,"x_max":813,"o":"m 515 808 q 515 785 515 808 q 481 726 515 761 q 398 692 446 692 q 316 726 350 692 q 282 808 282 760 q 316 892 282 857 q 397 926 350 926 q 480 891 444 926 q 515 808 515 856 m 355 763 q 364 753 355 763 q 397 743 372 743 q 440 763 422 743 q 458 809 458 783 q 441 853 458 835 q 397 871 424 871 q 354 853 371 871 q 338 809 338 835 q 355 763 338 783 m 535 0 l 535 74 q 452 10 508 36 q 331 -15 396 -15 q 83 253 83 -15 l 83 611 l 14 611 l 14 639 l 292 639 l 292 222 q 321 82 292 124 q 408 40 350 40 q 535 124 486 40 l 535 611 l 465 611 l 465 639 l 743 639 l 743 28 l 813 28 l 813 0 l 535 0 z "},"Ű":{"ha":840,"x_min":28,"x_max":826,"o":"m 375 833 q 381 924 389 872 q 386 1007 374 976 q 424 1053 399 1038 q 475 1061 450 1068 q 522 1024 507 1056 q 525 960 538 993 q 463 897 513 926 q 397 825 413 868 l 375 833 m 583 833 q 590 924 597 872 q 594 1007 582 976 q 633 1053 607 1038 q 683 1061 658 1068 q 731 1024 715 1056 q 733 960 746 993 q 671 897 721 926 q 606 825 621 868 l 583 833 m 757 339 q 454 -21 757 -21 q 192 65 286 -21 q 97 325 97 151 l 97 750 l 28 750 l 28 778 l 389 778 l 389 750 l 319 750 l 319 310 q 514 19 319 19 q 658 98 593 19 q 722 311 722 176 l 722 750 l 613 750 l 613 778 l 826 778 l 826 750 l 757 750 l 757 339 z "},"ű":{"ha":861,"x_min":14,"x_max":813,"o":"m 278 694 q 284 785 292 733 q 289 868 276 838 q 327 914 301 899 q 378 922 353 929 q 425 885 410 917 q 428 821 440 854 q 365 758 415 788 q 300 686 315 729 l 278 694 m 486 694 q 492 785 500 733 q 497 868 485 838 q 535 914 510 899 q 586 922 561 929 q 633 885 618 917 q 636 821 649 854 q 574 758 624 788 q 508 686 524 729 l 486 694 m 535 0 l 535 74 q 452 10 508 36 q 331 -15 396 -15 q 83 253 83 -15 l 83 611 l 14 611 l 14 639 l 292 639 l 292 222 q 321 82 292 124 q 408 40 350 40 q 535 124 486 40 l 535 611 l 465 611 l 465 639 l 743 639 l 743 28 l 813 28 l 813 0 l 535 0 z "},"Ų":{"ha":840,"x_min":28,"x_max":826,"o":"m 613 778 l 826 778 l 826 750 l 757 750 l 757 339 q 504 -18 757 11 q 489 -168 433 -126 q 567 -165 532 -197 l 581 -182 q 467 -246 531 -246 q 388 -208 413 -246 q 460 -21 343 -142 l 454 -21 q 192 65 286 -21 q 97 325 97 151 l 97 750 l 28 750 l 28 778 l 389 778 l 389 750 l 319 750 l 319 310 q 514 19 319 19 q 658 98 593 19 q 722 311 722 176 l 722 750 l 613 750 l 613 778 z "},"ų":{"ha":861,"x_min":14,"x_max":813,"o":"m 813 0 l 572 0 q 544 -168 483 -122 q 622 -165 588 -197 l 636 -182 q 522 -246 586 -246 q 440 -206 463 -246 q 461 -89 415 -161 q 536 0 486 -47 l 535 0 l 535 74 q 452 10 508 36 q 331 -15 396 -15 q 83 253 83 -15 l 83 611 l 14 611 l 14 639 l 292 639 l 292 222 q 321 82 292 124 q 408 40 350 40 q 535 124 486 40 l 535 611 l 465 611 l 465 639 l 743 639 l 743 28 l 813 28 l 813 0 z "},"Ŵ":{"ha":1276,"x_min":14,"x_max":1263,"o":"m 551 853 l 539 865 l 660 1043 l 686 1043 l 808 865 l 796 853 l 674 908 l 551 853 m 14 750 l 14 778 l 421 778 l 421 750 l 353 750 l 543 321 l 632 542 l 539 750 l 486 750 l 486 778 l 867 778 l 867 750 l 801 750 l 988 326 l 1135 750 l 1024 750 l 1024 778 l 1263 778 l 1263 750 l 1168 750 l 908 0 l 875 0 l 881 15 l 874 0 l 650 503 l 449 0 l 415 0 l 81 750 l 14 750 z "},"ŵ":{"ha":1153,"x_min":14,"x_max":1139,"o":"m 14 611 l 14 639 l 389 639 l 389 611 l 315 611 l 465 275 l 556 501 l 510 611 l 458 611 l 458 639 l 806 639 l 806 611 l 744 611 l 894 275 l 1024 611 l 913 611 l 913 639 l 1139 639 l 1139 611 l 1056 611 l 821 0 l 792 0 l 572 460 l 390 0 l 361 0 l 79 611 l 14 611 m 499 714 l 486 726 l 607 904 l 633 904 l 756 726 l 743 714 l 621 769 l 499 714 z "},"Ŷ":{"ha":856,"x_min":14,"x_max":842,"o":"m 335 853 l 322 865 l 443 1043 l 469 1043 l 592 865 l 579 853 l 457 908 l 335 853 m 599 0 l 279 0 l 279 28 l 335 28 l 335 321 l 86 750 l 14 750 l 14 778 l 403 778 l 403 750 l 335 750 l 529 400 l 710 750 l 599 750 l 599 778 l 842 778 l 842 750 l 744 750 l 543 358 l 543 28 l 599 28 l 599 0 z "},"ŷ":{"ha":753,"x_min":0,"x_max":767,"o":"m 350 -154 q 271 -270 313 -235 q 160 -306 229 -306 q 51 -276 90 -306 q 13 -197 13 -246 q 41 -118 13 -147 q 110 -89 69 -89 q 178 -104 150 -89 q 217 -137 206 -119 q 274 -186 247 -186 q 322 -139 301 -186 l 381 -1 l 56 611 l 0 611 l 0 639 l 374 639 l 374 611 l 304 611 l 490 244 l 650 611 l 539 611 l 539 639 l 767 639 l 767 611 l 683 611 l 350 -154 m 332 714 l 319 726 l 440 904 l 467 904 l 589 726 l 576 714 l 454 769 l 332 714 z "},"Ÿ":{"ha":856,"x_min":14,"x_max":842,"o":"m 383 1035 q 400 1035 383 1035 q 443 1009 418 1035 q 468 948 468 983 q 443 888 468 913 q 383 863 418 863 q 321 888 347 863 q 294 948 294 913 q 321 1009 294 983 q 383 1035 347 1035 m 621 1035 q 639 1035 621 1035 q 681 1010 657 1035 q 706 948 706 985 q 681 887 706 911 q 621 863 657 863 q 560 888 585 863 q 535 948 535 913 q 560 1009 535 983 q 621 1035 585 1035 m 599 0 l 279 0 l 279 28 l 335 28 l 335 321 l 86 750 l 14 750 l 14 778 l 403 778 l 403 750 l 335 750 l 529 400 l 710 750 l 599 750 l 599 778 l 842 778 l 842 750 l 744 750 l 543 358 l 543 28 l 599 28 l 599 0 z "},"Ź":{"ha":735,"x_min":42,"x_max":679,"o":"m 651 292 l 679 292 l 679 0 l 42 0 l 42 28 l 435 750 l 346 750 q 164 704 217 750 q 111 514 111 658 l 83 514 l 83 778 l 669 778 l 669 750 l 271 28 l 417 28 q 522 37 482 28 q 594 72 563 46 q 651 292 651 122 m 364 835 l 344 849 q 374 935 368 883 q 400 1013 381 986 q 449 1048 419 1040 q 500 1042 478 1056 q 536 995 529 1029 q 522 932 543 961 q 446 888 501 903 q 364 835 390 872 z "},"ź":{"ha":683,"x_min":14,"x_max":642,"o":"m 332 696 l 313 710 q 342 796 336 744 q 368 874 349 847 q 417 909 388 901 q 468 903 446 917 q 504 856 497 890 q 490 793 511 822 q 414 749 469 764 q 332 696 358 733 m 14 0 l 14 21 l 407 611 l 325 611 q 79 382 79 611 l 57 382 l 57 639 l 642 639 l 642 622 l 253 28 l 338 28 q 458 36 413 28 q 542 69 504 44 q 614 276 614 118 l 633 276 l 633 0 l 14 0 z "},"Ż":{"ha":735,"x_min":42,"x_max":679,"o":"m 651 292 l 679 292 l 679 0 l 42 0 l 42 28 l 435 750 l 346 750 q 164 704 217 750 q 111 514 111 658 l 83 514 l 83 778 l 669 778 l 669 750 l 271 28 l 417 28 q 522 37 482 28 q 594 72 563 46 q 651 292 651 122 m 463 948 q 463 930 463 948 q 438 888 463 913 q 377 863 413 863 q 315 888 342 863 q 289 948 289 913 q 315 1009 289 983 q 377 1035 342 1035 q 438 1009 413 1035 q 463 948 463 983 z "},"ż":{"ha":683,"x_min":14,"x_max":642,"o":"m 14 0 l 14 21 l 407 611 l 325 611 q 79 382 79 611 l 57 382 l 57 639 l 642 639 l 642 622 l 253 28 l 338 28 q 458 36 413 28 q 542 69 504 44 q 614 276 614 118 l 633 276 l 633 0 l 14 0 m 366 896 q 384 896 366 896 q 426 870 401 896 q 451 809 451 844 q 426 749 451 774 q 366 724 401 724 q 304 749 331 724 q 278 809 278 774 q 304 870 278 844 q 366 896 331 896 z "},"Ž":{"ha":735,"x_min":42,"x_max":679,"o":"m 651 292 l 679 292 l 679 0 l 42 0 l 42 28 l 435 750 l 346 750 q 164 704 217 750 q 111 514 111 658 l 83 514 l 83 778 l 669 778 l 669 750 l 271 28 l 417 28 q 522 37 482 28 q 594 72 563 46 q 651 292 651 122 m 390 853 l 364 853 l 243 1031 l 256 1043 l 378 988 l 500 1043 l 513 1031 l 390 853 z "},"ž":{"ha":683,"x_min":14,"x_max":642,"o":"m 14 0 l 14 21 l 407 611 l 325 611 q 79 382 79 611 l 57 382 l 57 639 l 642 639 l 642 622 l 253 28 l 338 28 q 458 36 413 28 q 542 69 504 44 q 614 276 614 118 l 633 276 l 633 0 l 14 0 m 249 904 l 371 849 l 493 904 l 506 892 l 383 714 l 357 714 l 236 892 l 249 904 z "},"ƒ":{"ha":806,"x_min":-131,"x_max":903,"o":"m 678 944 q 824 906 765 944 q 892 809 882 867 q 876 723 903 751 q 806 694 849 694 q 731 720 763 694 q 699 801 699 746 l 699 822 q 699 842 699 835 q 699 861 700 850 q 698 878 699 872 q 697 893 697 885 q 693 905 696 901 q 687 913 690 908 q 678 917 683 918 q 667 917 674 917 q 543 639 589 896 l 507 431 l 692 431 l 692 403 l 501 403 l 431 0 q 88 -306 376 -306 q -56 -267 0 -306 q -121 -173 -111 -229 q -99 -86 -131 -117 q -24 -56 -67 -56 q 67 -162 67 -56 l 67 -183 q 66 -203 67 -196 q 66 -222 65 -211 q 67 -240 67 -233 q 69 -254 68 -246 q 72 -266 69 -262 q 78 -274 75 -269 q 87 -278 82 -279 q 99 -278 92 -278 q 222 0 176 -257 l 293 403 l 122 403 l 122 431 l 299 431 l 335 639 q 678 944 389 944 z "},"Ǽ":{"ha":1139,"x_min":0,"x_max":1111,"o":"m 1083 264 l 1111 264 l 1111 0 l 472 0 l 472 28 l 556 28 l 556 263 l 278 263 l 136 28 l 238 28 l 238 0 l 0 0 l 0 28 l 99 28 l 532 749 l 444 749 l 444 778 l 1097 778 l 1097 542 l 1069 542 q 1020 708 1069 665 q 861 750 971 750 l 764 750 l 764 417 l 792 417 q 918 442 892 417 q 944 542 944 467 l 972 542 l 972 264 l 944 264 q 918 365 944 342 q 792 389 892 389 l 764 389 l 764 28 l 875 28 q 1083 264 1083 28 m 556 292 l 556 725 l 294 292 l 556 292 m 671 835 l 651 849 q 681 935 675 883 q 707 1013 688 986 q 756 1048 726 1040 q 807 1042 785 1056 q 843 995 836 1029 q 829 932 850 961 q 753 888 808 903 q 671 835 697 872 z "},"ǽ":{"ha":1100,"x_min":32,"x_max":1056,"o":"m 632 306 l 857 306 q 830 529 857 433 q 743 625 803 625 q 664 552 690 625 q 632 375 638 479 l 632 306 m 340 47 q 467 78 413 47 q 472 81 468 79 q 478 85 476 83 q 424 325 424 168 l 374 318 q 270 269 310 310 q 236 157 231 229 q 275 76 243 104 q 340 47 307 47 m 785 -14 q 494 64 565 -14 q 260 -11 421 -11 q 43 129 61 -11 q 108 271 32 219 q 368 344 183 322 l 424 351 l 424 419 q 406 582 424 540 q 325 624 388 624 q 269 613 292 624 q 251 560 231 592 q 278 483 278 531 q 248 405 278 435 q 175 375 218 375 q 102 403 132 375 q 72 480 72 432 q 111 569 72 528 q 361 650 189 650 q 557 585 492 650 q 644 635 589 617 q 754 653 700 653 q 968 563 881 653 q 1056 278 1056 474 l 632 278 l 632 261 q 681 83 638 132 q 822 33 724 33 q 930 56 869 33 q 1018 118 990 78 l 1038 104 q 933 19 1007 53 q 785 -14 860 -14 m 547 696 l 528 710 q 558 796 551 744 q 583 874 564 847 q 632 909 603 901 q 683 903 661 917 q 719 856 713 890 q 706 793 726 822 q 629 749 685 764 q 547 696 574 733 z "},"Ǿ":{"ha":975,"x_min":83,"x_max":892,"o":"m 792 675 q 892 378 892 564 q 779 89 892 192 q 487 -14 667 -14 q 200 83 307 -14 l 103 -14 l 83 7 l 179 103 q 83 391 83 210 q 194 683 83 572 q 485 794 306 794 q 771 694 664 794 l 871 794 l 892 775 l 792 675 m 488 767 q 356 667 404 767 q 307 390 307 567 q 317 240 307 303 l 651 575 q 488 767 608 767 m 488 14 q 668 390 668 14 q 657 540 668 469 l 324 207 q 488 14 361 14 m 493 835 l 474 849 q 503 935 497 883 q 529 1013 510 986 q 578 1048 549 1040 q 629 1042 607 1056 q 665 995 658 1029 q 651 932 672 961 q 575 888 631 903 q 493 835 519 872 z "},"ǿ":{"ha":783,"x_min":42,"x_max":742,"o":"m 742 317 q 710 169 742 235 q 625 65 678 104 q 385 -14 519 -14 q 150 71 251 -14 l 61 -14 l 42 6 l 131 89 q 42 317 42 178 q 73 468 42 401 q 156 574 104 535 q 397 653 263 653 q 633 568 532 653 l 722 653 l 742 633 l 653 549 q 742 317 742 457 m 390 625 q 285 553 315 625 q 254 317 254 482 q 258 211 254 257 l 521 461 q 478 585 510 546 q 390 625 447 625 m 390 14 q 497 85 465 14 q 529 317 529 156 q 525 428 529 378 l 261 176 q 303 53 272 92 q 390 14 335 14 m 394 696 l 375 710 q 405 796 399 744 q 431 874 411 847 q 479 909 450 901 q 531 903 508 917 q 567 856 560 890 q 553 793 574 822 q 476 749 532 764 q 394 696 421 733 z "},"Ș":{"ha":713,"x_min":83,"x_max":725,"o":"m 111 0 l 83 0 l 83 324 l 111 324 q 205 101 111 193 q 433 10 299 10 q 523 42 489 10 q 557 129 557 75 q 478 233 557 190 q 329 303 435 256 q 181 385 224 351 q 105 561 94 451 q 188 731 115 671 q 351 792 260 792 q 515 767 442 792 q 597 743 588 743 q 625 792 625 743 l 653 792 l 653 538 l 625 538 q 551 701 625 638 q 363 764 478 764 q 282 734 311 764 q 253 668 253 704 q 263 613 253 632 q 297 577 272 593 q 339 551 321 561 q 397 525 357 542 q 451 501 436 508 q 542 460 528 467 q 582 440 556 454 q 622 415 608 426 q 656 388 635 404 q 686 353 676 371 q 706 314 696 336 q 719 210 725 269 q 635 38 708 97 q 439 -21 563 -21 q 218 36 328 -21 q 163 56 181 56 q 111 0 111 56 m 400 -200 l 367 -206 q 323 -188 342 -206 q 304 -140 304 -171 q 325 -89 304 -110 q 382 -68 346 -68 q 441 -96 418 -68 q 464 -160 464 -124 q 340 -333 464 -275 l 329 -311 q 415 -214 415 -264 q 400 -200 415 -200 z "},"ș":{"ha":661,"x_min":36,"x_max":633,"o":"m 332 -200 l 299 -206 q 255 -188 274 -206 q 236 -140 236 -171 q 257 -89 236 -110 q 314 -68 278 -68 q 373 -96 350 -68 q 396 -160 396 -124 q 272 -333 396 -275 l 261 -311 q 347 -214 347 -264 q 332 -200 347 -200 m 361 11 q 506 90 506 11 q 456 163 506 135 q 335 210 406 192 q 195 251 264 228 q 81 326 126 275 q 44 461 36 378 q 130 599 53 544 q 320 653 207 653 q 503 617 433 653 q 581 519 572 581 q 569 450 586 482 q 512 417 551 418 q 447 438 472 415 q 422 489 421 460 q 444 541 424 518 q 465 578 465 564 q 420 613 465 601 q 316 625 375 625 q 219 599 257 625 q 182 533 182 572 q 228 467 182 494 q 342 422 275 439 q 474 383 408 404 q 587 314 540 361 q 633 194 633 267 q 565 41 633 99 q 360 -17 497 -17 q 137 25 222 -17 q 43 132 51 67 q 56 201 38 169 q 113 235 74 233 q 177 214 151 236 q 201 163 203 192 q 179 110 200 133 q 158 74 158 88 q 223 28 158 46 q 361 11 288 11 z "},"ˆ":{"ha":825,"x_min":278,"x_max":547,"o":"m 290 714 l 278 726 l 399 904 l 425 904 l 547 726 l 535 714 l 413 769 l 290 714 z "},"ˇ":{"ha":825,"x_min":278,"x_max":547,"o":"m 290 904 l 413 849 l 535 904 l 547 892 l 425 714 l 399 714 l 278 892 l 290 904 z "},"˘":{"ha":811,"x_min":278,"x_max":533,"o":"m 306 896 q 406 828 306 828 q 506 896 506 828 l 533 896 q 505 767 533 813 q 407 722 476 722 q 278 896 278 722 l 306 896 z "},"˙":{"ha":729,"x_min":278,"x_max":451,"o":"m 366 896 q 384 896 366 896 q 426 870 401 896 q 451 809 451 844 q 426 749 451 774 q 366 724 401 724 q 304 749 331 724 q 278 809 278 774 q 304 870 278 844 q 366 896 331 896 z "},"˚":{"ha":789,"x_min":278,"x_max":511,"o":"m 511 808 q 511 785 511 808 q 476 726 511 761 q 394 692 442 692 q 312 726 346 692 q 278 808 278 760 q 312 892 278 857 q 394 926 346 926 q 476 891 442 926 q 511 808 511 856 m 351 763 q 359 753 351 763 q 393 743 368 743 q 436 763 418 743 q 454 809 454 783 q 437 853 454 835 q 393 871 419 871 q 350 853 367 871 q 333 809 333 835 q 351 763 333 783 z "},"˛":{"ha":761,"x_min":267,"x_max":483,"o":"m 483 -182 q 377 -246 433 -246 q 294 -218 321 -246 q 289 -128 267 -190 q 400 15 311 -65 l 421 1 q 392 -168 331 -122 q 469 -165 435 -197 l 483 -182 z "},"˜":{"ha":831,"x_min":278,"x_max":553,"o":"m 306 746 l 278 746 q 371 879 278 879 q 433 858 397 879 q 489 836 469 836 q 525 872 525 836 l 553 872 q 458 739 553 739 q 394 761 431 739 q 339 783 358 783 q 306 746 306 783 z "},"˝":{"ha":918,"x_min":276,"x_max":649,"o":"m 278 694 q 284 785 292 733 q 289 868 276 838 q 327 914 301 899 q 378 922 353 929 q 425 885 410 917 q 428 821 440 854 q 365 758 415 788 q 300 686 315 729 l 278 694 m 486 694 q 492 785 500 733 q 497 868 485 838 q 535 914 510 899 q 586 922 561 929 q 633 885 618 917 q 636 821 649 854 q 574 758 624 788 q 508 686 524 729 l 486 694 z "},"ँ":{"ha":0,"x_min":-447,"x_max":32,"o":"m -142 1252 q -128 1239 -142 1252 q -114 1185 -114 1225 q -142 1117 -114 1144 q -208 1089 -169 1089 q -276 1117 -247 1089 q -304 1184 -304 1144 q -276 1251 -304 1224 q -209 1279 -249 1279 q -142 1252 -169 1279 m -34 938 q -67 907 -34 938 q -208 876 -100 876 q -382 938 -317 876 q -444 1108 -447 1000 l -442 1111 l -428 1114 l -425 1113 q -356 1035 -414 1064 q -208 1006 -299 1006 q -59 1035 -117 1006 q 10 1113 -1 1064 l 13 1114 l 26 1111 l 29 1108 q -34 938 32 1000 z "},"ं":{"ha":0,"x_min":-303,"x_max":-114,"o":"m -142 1028 q -128 1014 -142 1028 q -114 960 -114 1000 q -142 892 -114 919 q -208 865 -169 865 q -275 892 -247 865 q -303 960 -303 919 q -275 1028 -303 1000 q -208 1056 -247 1056 q -142 1028 -169 1056 z "},"ः":{"ha":301,"x_min":56,"x_max":246,"o":"m 217 687 q 232 673 217 687 q 246 619 246 658 q 218 553 246 581 q 151 525 190 525 q 83 553 111 525 q 56 620 56 581 q 83 688 56 660 q 150 715 111 715 q 217 687 189 715 m 217 270 q 232 256 217 270 q 246 203 246 242 q 218 136 246 164 q 151 108 190 108 q 83 136 111 108 q 56 203 56 164 q 83 271 56 243 q 150 299 111 299 q 217 270 189 299 z "},"अ":{"ha":985,"x_min":13,"x_max":1013,"o":"m 1013 778 l 1013 750 l 874 750 l 874 0 l 679 0 l 679 301 l 576 301 l 576 296 q 489 124 576 182 q 258 65 401 65 q 13 263 13 65 q 43 351 13 317 q 121 386 74 386 q 195 360 168 386 q 222 296 222 333 q 201 236 222 258 q 156 208 181 214 q 90 161 90 190 q 126 115 90 132 q 204 99 161 99 q 375 296 375 99 q 335 426 375 381 q 194 472 294 472 l 174 472 l 174 500 l 194 500 q 340 643 340 500 q 239 750 340 750 q 149 718 189 750 l 138 738 q 320 794 213 794 q 478 754 428 794 q 529 654 529 714 q 365 496 529 531 l 365 490 q 508 444 453 485 q 574 329 564 403 l 679 329 l 679 750 l 600 750 l 600 778 l 1013 778 z "},"आ":{"ha":1401,"x_min":13,"x_max":1429,"o":"m 1429 778 l 1429 750 l 1290 750 l 1290 0 l 1096 0 l 1096 750 l 874 750 l 874 0 l 679 0 l 679 301 l 576 301 l 576 296 q 489 124 576 182 q 258 65 401 65 q 13 263 13 65 q 43 351 13 317 q 121 386 74 386 q 195 360 168 386 q 222 296 222 333 q 201 236 222 258 q 156 208 181 214 q 90 161 90 190 q 126 115 90 132 q 204 99 161 99 q 375 296 375 99 q 335 426 375 381 q 194 472 294 472 l 174 472 l 174 500 l 194 500 q 340 643 340 500 q 239 750 340 750 q 149 718 189 750 l 138 738 q 320 794 213 794 q 478 754 428 794 q 529 654 529 714 q 365 496 529 531 l 365 490 q 508 444 453 485 q 574 329 564 403 l 679 329 l 679 750 l 600 750 l 600 778 l 1429 778 z "},"इ":{"ha":642,"x_min":-28,"x_max":669,"o":"m 503 750 l 503 561 q 331 601 411 601 q 221 583 251 601 q 190 538 190 564 q 220 493 190 513 q 294 461 250 474 q 390 429 339 449 q 486 388 442 410 q 560 323 531 365 q 590 225 590 281 q 506 67 590 124 q 301 10 422 10 q 231 15 258 10 q 126 -129 190 -68 l 104 -111 q 157 -53 128 -92 q 203 19 186 -14 q 97 73 133 36 q 61 156 61 110 q 89 228 61 203 q 161 253 117 253 q 235 222 206 253 q 264 142 264 192 q 242 40 264 93 q 296 38 275 38 q 399 69 358 38 q 440 148 440 100 q 401 226 440 196 q 306 274 363 256 q 194 311 250 292 q 100 369 139 331 q 61 473 61 408 q 126 582 61 538 q 308 629 192 626 l 308 750 l -28 750 l -28 778 l 669 778 l 669 750 l 503 750 z "},"ई":{"ha":649,"x_min":-28,"x_max":669,"o":"m 503 750 l 503 561 q 331 601 411 601 q 221 583 251 601 q 190 538 190 564 q 220 493 190 513 q 294 461 250 474 q 390 429 339 449 q 486 388 442 410 q 560 323 531 365 q 590 225 590 281 q 506 67 590 124 q 301 10 422 10 q 231 15 258 10 q 126 -129 190 -68 l 104 -111 q 157 -53 128 -92 q 203 19 186 -14 q 97 73 133 36 q 61 156 61 110 q 89 228 61 203 q 161 253 117 253 q 235 222 206 253 q 264 142 264 192 q 242 40 264 93 q 296 38 275 38 q 399 69 358 38 q 440 148 440 100 q 401 226 440 196 q 306 274 363 256 q 194 311 250 292 q 100 369 139 331 q 61 473 61 408 q 126 582 61 538 q 308 629 192 626 l 308 750 l -28 750 l -28 778 l 360 778 l 360 783 q 258 847 299 801 q 218 958 218 893 q 267 1067 218 1022 q 393 1113 317 1113 q 521 1069 469 1113 q 572 953 572 1025 l 569 928 l 542 928 q 543 943 543 935 q 517 1017 543 992 q 451 1043 492 1043 q 383 1015 410 1043 q 356 936 356 986 q 408 822 356 865 q 549 778 461 778 l 669 778 l 669 750 l 503 750 z "},"उ":{"ha":647,"x_min":-28,"x_max":676,"o":"m 676 778 l 676 750 l 440 750 q 550 614 550 718 q 374 464 550 489 l 374 458 q 531 396 469 449 q 593 260 593 343 q 502 74 593 139 q 276 10 411 10 q 76 61 140 10 q 11 207 11 113 q 42 296 11 261 q 119 331 72 331 q 194 304 167 331 q 221 240 221 278 q 200 181 221 203 q 156 153 179 158 q 89 106 89 135 q 126 60 89 76 q 214 43 164 43 q 347 99 300 43 q 394 252 393 156 q 340 396 394 349 q 193 443 286 443 l 171 443 l 171 471 l 193 471 q 315 511 271 471 q 360 615 360 551 q 318 715 360 679 q 193 750 276 750 l -28 750 l -28 778 l 676 778 z "},"ऊ":{"ha":935,"x_min":-28,"x_max":963,"o":"m 963 778 l 963 750 l 440 750 q 550 614 550 718 q 374 464 550 489 l 374 458 q 550 376 488 447 q 711 468 601 468 q 860 407 801 468 q 919 243 919 346 q 861 82 919 140 q 710 24 803 24 q 585 65 618 24 l 596 81 q 632 72 607 72 q 731 244 731 72 q 707 358 731 314 q 636 403 683 403 q 567 354 589 403 q 593 260 593 313 q 502 74 593 139 q 276 10 411 10 q 76 61 140 10 q 11 207 11 113 q 42 296 11 261 q 119 331 72 331 q 194 304 167 331 q 221 240 221 278 q 200 181 221 203 q 156 153 179 158 q 89 106 89 135 q 126 60 89 76 q 214 43 164 43 q 347 99 300 43 q 394 252 393 156 q 340 396 394 349 q 193 443 286 443 l 171 443 l 171 471 l 193 471 q 315 511 271 471 q 360 615 360 551 q 318 715 360 679 q 193 750 276 750 l -28 750 l -28 778 l 963 778 z "},"ऋ":{"ha":1214,"x_min":-28,"x_max":1246,"o":"m 693 750 l 693 422 l 800 422 q 788 488 788 451 q 838 603 788 558 q 958 649 888 649 q 1071 618 1029 649 q 1113 533 1113 588 q 1047 413 1113 453 q 1133 319 1107 360 q 1158 226 1158 278 q 1099 99 1158 149 q 943 50 1039 50 q 749 172 800 50 l 774 186 q 829 113 790 142 q 908 83 868 83 q 969 103 947 83 q 992 159 992 122 q 963 233 992 196 q 885 317 935 271 q 815 394 835 364 l 693 394 l 693 0 l 499 0 l 499 361 l 122 72 l 104 94 l 324 264 q 283 338 313 283 q 240 415 254 392 q 200 472 225 438 q 108 533 157 533 q 32 493 60 533 l 11 508 q 211 628 72 628 q 364 551 306 628 q 469 375 414 486 l 499 397 l 499 750 l -28 750 l -28 778 l 1246 778 l 1246 750 l 693 750 m 1082 533 q 1062 588 1082 567 q 1009 608 1042 608 q 957 593 976 608 q 938 552 938 578 q 957 501 938 526 q 1025 433 976 476 q 1082 533 1082 464 z "},"ऌ":{"ha":1043,"x_min":-28,"x_max":1068,"o":"m 1068 750 l 786 750 l 786 608 q 922 519 869 585 q 974 374 974 453 q 944 238 974 294 q 871 145 914 182 q 783 75 828 108 q 681 -89 681 -4 q 715 -162 681 -132 q 791 -193 749 -193 q 833 -171 833 -193 q 813 -129 833 -161 q 792 -60 792 -97 q 820 3 792 -24 q 890 31 849 31 q 959 1 931 31 q 988 -68 988 -28 q 935 -177 988 -137 q 806 -217 883 -217 q 678 -169 729 -217 q 628 -40 628 -122 q 694 135 628 43 q 755 252 738 193 q 772 401 772 311 q 749 541 772 490 q 690 592 726 592 q 610 329 610 592 l 610 240 l 429 240 l 429 329 q 349 592 429 592 q 261 315 261 592 q 287 139 261 189 q 367 89 313 89 q 415 104 394 89 l 429 85 q 306 43 385 43 q 119 125 178 43 q 61 335 61 207 q 136 542 61 464 q 339 619 211 619 q 519 522 467 619 q 592 593 547 568 l 592 750 l -28 750 l -28 778 l 1068 778 l 1068 750 z "},"ऍ":{"ha":783,"x_min":-26,"x_max":813,"o":"m 813 778 l 813 750 l 707 750 l 707 668 q 701 557 707 599 q 678 478 696 515 q 521 410 642 410 q 371 447 425 410 l 383 467 q 425 458 401 458 q 492 501 478 458 q 506 649 506 543 l 506 750 l 306 750 l 306 347 q 343 151 306 208 q 395 107 360 126 q 478 88 431 88 q 548 101 525 88 q 571 131 571 115 q 560 158 571 146 q 537 177 550 169 q 513 203 524 185 q 503 254 503 222 q 531 314 503 286 q 604 342 560 342 q 677 313 649 342 q 706 242 706 283 q 628 106 706 156 q 444 56 550 56 q 115 265 158 56 q 104 447 104 321 l 104 750 l -26 750 l -26 778 l 813 778 m 590 939 q 558 908 590 939 q 415 876 525 876 q 240 939 306 876 q 179 1111 175 1001 l 197 1115 q 266 1032 208 1064 q 417 1000 324 1000 q 566 1033 510 1000 q 633 1115 622 1065 l 651 1111 q 590 939 656 1001 z "},"ऎ":{"ha":783,"x_min":-26,"x_max":813,"o":"m 226 1018 l 444 1038 q 592 994 539 1038 q 644 860 644 950 q 621 778 644 810 l 813 778 l 813 750 l 707 750 l 707 668 q 701 557 707 599 q 678 478 696 515 q 521 410 642 410 q 371 447 425 410 l 383 467 q 425 458 401 458 q 492 501 478 458 q 506 649 506 543 l 506 750 l 306 750 l 306 347 q 343 151 306 208 q 395 107 360 126 q 478 88 431 88 q 548 101 525 88 q 571 131 571 115 q 560 158 571 146 q 537 177 550 169 q 513 203 524 185 q 503 254 503 222 q 531 314 503 286 q 604 342 560 342 q 677 313 649 342 q 706 242 706 283 q 628 106 706 156 q 444 56 550 56 q 115 265 158 56 q 104 447 104 321 l 104 750 l -26 750 l -26 778 l 588 778 q 610 833 610 806 q 488 906 610 906 q 372 895 458 906 q 264 885 286 885 q 65 1035 65 885 q 94 1132 65 1093 q 179 1171 124 1171 q 264 1138 235 1171 l 246 1117 q 184 1143 217 1143 q 133 1128 151 1143 q 115 1085 115 1113 q 226 1018 115 1018 z "},"ए":{"ha":785,"x_min":-26,"x_max":813,"o":"m 813 778 l 813 750 l 707 750 l 707 668 q 701 557 707 599 q 678 478 696 515 q 521 410 642 410 q 371 447 425 410 l 383 467 q 425 458 401 458 q 492 501 478 458 q 506 649 506 543 l 506 750 l 306 750 l 306 347 q 343 151 306 208 q 395 107 360 126 q 478 88 431 88 q 548 101 525 88 q 571 131 571 115 q 560 158 571 146 q 537 177 550 169 q 513 203 524 185 q 503 254 503 222 q 531 314 503 286 q 604 342 560 342 q 677 313 649 342 q 706 242 706 283 q 628 106 706 156 q 444 56 550 56 q 115 265 158 56 q 104 447 104 321 l 104 750 l -26 750 l -26 778 l 813 778 z "},"ऐ":{"ha":783,"x_min":-26,"x_max":813,"o":"m 813 778 l 813 750 l 707 750 l 707 668 q 701 557 707 599 q 678 478 696 515 q 521 410 642 410 q 371 447 425 410 l 383 467 q 425 458 401 458 q 492 501 478 458 q 506 649 506 543 l 506 750 l 306 750 l 306 347 q 343 151 306 208 q 395 107 360 126 q 478 88 431 88 q 548 101 525 88 q 571 131 571 115 q 560 158 571 146 q 537 177 550 169 q 513 203 524 185 q 503 254 503 222 q 531 314 503 286 q 604 342 560 342 q 677 313 649 342 q 706 242 706 283 q 628 106 706 156 q 444 56 550 56 q 115 265 158 56 q 104 447 104 321 l 104 750 l -26 750 l -26 778 l 813 778 m 278 960 q 238 1023 238 988 q 258 1078 238 1058 q 308 1097 279 1097 q 360 1080 336 1097 q 415 1032 385 1063 q 499 944 446 1001 q 604 838 553 888 l 592 818 q 455 878 526 849 q 343 924 383 907 q 278 960 303 942 z "},"ऑ":{"ha":1407,"x_min":13,"x_max":1429,"o":"m 1429 778 l 1429 750 l 1290 750 l 1290 0 l 1096 0 l 1096 750 l 874 750 l 874 0 l 679 0 l 679 301 l 576 301 l 576 296 q 489 124 576 182 q 258 65 401 65 q 13 263 13 65 q 43 351 13 317 q 121 386 74 386 q 195 360 168 386 q 222 296 222 333 q 201 236 222 258 q 156 208 181 214 q 90 161 90 190 q 126 115 90 132 q 204 99 161 99 q 375 296 375 99 q 335 426 375 381 q 194 472 294 472 l 174 472 l 174 500 l 194 500 q 340 643 340 500 q 239 750 340 750 q 149 718 189 750 l 138 738 q 320 794 213 794 q 478 754 428 794 q 529 654 529 714 q 365 496 529 531 l 365 490 q 508 444 453 485 q 574 329 564 403 l 679 329 l 679 750 l 600 750 l 600 778 l 1429 778 m 1172 938 q 1139 907 1172 938 q 997 876 1106 876 q 824 938 889 876 q 761 1108 758 1000 l 764 1111 l 778 1114 l 781 1113 q 849 1035 792 1064 q 998 1006 907 1006 q 1147 1035 1089 1006 q 1215 1113 1204 1064 l 1218 1114 l 1232 1111 l 1235 1108 q 1172 938 1238 1000 z "},"ऒ":{"ha":1407,"x_min":13,"x_max":1429,"o":"m 799 1018 l 1017 1038 q 1164 994 1111 1038 q 1217 860 1217 950 q 1193 778 1217 810 l 1429 778 l 1429 750 l 1290 750 l 1290 0 l 1096 0 l 1096 750 l 874 750 l 874 0 l 679 0 l 679 301 l 576 301 l 576 296 q 489 124 576 182 q 258 65 401 65 q 13 263 13 65 q 43 351 13 317 q 121 386 74 386 q 195 360 168 386 q 222 296 222 333 q 201 236 222 258 q 156 208 181 214 q 90 161 90 190 q 126 115 90 132 q 204 99 161 99 q 375 296 375 99 q 335 426 375 381 q 194 472 294 472 l 174 472 l 174 500 l 194 500 q 340 643 340 500 q 239 750 340 750 q 149 718 189 750 l 138 738 q 320 794 213 794 q 478 754 428 794 q 529 654 529 714 q 365 496 529 531 l 365 490 q 508 444 453 485 q 574 329 564 403 l 679 329 l 679 750 l 600 750 l 600 778 l 1160 778 q 1182 833 1182 806 q 1060 906 1182 906 q 944 895 1031 906 q 836 885 858 885 q 638 1035 638 885 q 667 1132 638 1093 q 751 1171 696 1171 q 836 1138 807 1171 l 818 1117 q 756 1143 789 1143 q 706 1128 724 1143 q 688 1085 688 1113 q 799 1018 688 1018 z "},"ओ":{"ha":1407,"x_min":13,"x_max":1429,"o":"m 1429 778 l 1429 750 l 1290 750 l 1290 0 l 1096 0 l 1096 750 l 874 750 l 874 0 l 679 0 l 679 301 l 576 301 l 576 296 q 489 124 576 182 q 258 65 401 65 q 13 263 13 65 q 43 351 13 317 q 121 386 74 386 q 195 360 168 386 q 222 296 222 333 q 201 236 222 258 q 156 208 181 214 q 90 161 90 190 q 126 115 90 132 q 204 99 161 99 q 375 296 375 99 q 335 426 375 381 q 194 472 294 472 l 174 472 l 174 500 l 194 500 q 340 643 340 500 q 239 750 340 750 q 149 718 189 750 l 138 738 q 320 794 213 794 q 478 754 428 794 q 529 654 529 714 q 365 496 529 531 l 365 490 q 508 444 453 485 q 574 329 564 403 l 679 329 l 679 750 l 600 750 l 600 778 l 1429 778 m 869 960 q 829 1023 829 988 q 850 1078 829 1058 q 899 1097 871 1097 q 952 1080 928 1097 q 1007 1032 976 1063 q 1091 944 1038 1001 q 1196 838 1144 888 l 1183 818 q 1047 878 1118 849 q 935 924 975 907 q 869 960 894 942 z "},"औ":{"ha":1407,"x_min":13,"x_max":1429,"o":"m 1429 778 l 1429 750 l 1290 750 l 1290 0 l 1096 0 l 1096 750 l 874 750 l 874 0 l 679 0 l 679 301 l 576 301 l 576 296 q 489 124 576 182 q 258 65 401 65 q 13 263 13 65 q 43 351 13 317 q 121 386 74 386 q 195 360 168 386 q 222 296 222 333 q 201 236 222 258 q 156 208 181 214 q 90 161 90 190 q 126 115 90 132 q 204 99 161 99 q 375 296 375 99 q 335 426 375 381 q 194 472 294 472 l 174 472 l 174 500 l 194 500 q 340 643 340 500 q 239 750 340 750 q 149 718 189 750 l 138 738 q 320 794 213 794 q 478 754 428 794 q 529 654 529 714 q 365 496 529 531 l 365 490 q 508 444 453 485 q 574 329 564 403 l 679 329 l 679 750 l 600 750 l 600 778 l 1429 778 m 725 974 q 747 1024 725 1004 q 790 1043 768 1043 q 821 1042 811 1043 q 844 1035 831 1040 q 868 1024 857 1029 q 899 1008 879 1019 q 935 986 919 996 q 982 956 951 976 q 1036 921 1013 936 q 1179 826 1128 860 l 1167 799 q 944 858 1067 828 q 788 901 821 889 q 725 974 725 925 m 992 1017 q 975 1034 992 1017 q 958 1081 958 1051 q 978 1130 958 1110 q 1029 1150 999 1150 q 1117 1097 1076 1150 q 1278 840 1158 1043 l 1256 819 q 1140 903 1203 860 q 992 1017 1026 983 z "},"क":{"ha":1129,"x_min":-28,"x_max":1157,"o":"m 369 172 q 468 282 453 175 l 468 750 l -28 750 l -28 778 l 1157 778 l 1157 750 l 663 750 l 663 538 q 843 639 710 639 q 1017 560 953 639 q 1081 365 1081 482 q 1019 176 1081 249 q 858 104 958 104 q 713 144 757 104 l 719 165 q 753 160 731 160 q 849 221 819 161 q 879 367 879 281 q 848 508 879 453 q 769 561 817 563 q 663 453 678 561 l 663 0 l 468 0 l 468 200 q 286 96 421 96 q 110 172 172 96 q 49 365 49 249 q 114 556 49 482 q 292 631 179 631 q 417 590 372 631 l 410 569 q 379 575 399 575 q 282 518 314 574 q 250 372 250 463 q 282 226 250 281 q 369 172 314 172 z "},"ख":{"ha":1071,"x_min":-28,"x_max":1099,"o":"m 1099 778 l 1099 750 l 960 750 l 960 0 l 771 0 l 771 165 q 443 35 665 35 q 284 67 351 35 q 181 146 217 99 q 121 241 146 193 q 72 328 96 289 q 19 375 47 367 l 19 403 q 240 597 240 403 q 203 706 240 661 q 103 750 167 750 l -28 750 l -28 778 l 1099 778 m 771 750 l 321 750 q 425 589 425 710 q 356 453 425 504 q 190 393 288 401 l 190 388 q 331 265 269 367 q 381 187 354 225 q 454 123 408 149 q 563 97 500 97 q 744 181 672 97 q 815 399 815 264 q 719 561 815 561 q 648 524 674 561 q 622 428 622 486 q 649 331 622 371 q 719 292 675 292 q 747 296 733 292 l 754 281 q 700 249 738 261 q 626 236 663 236 q 498 285 550 236 q 446 419 446 335 q 502 558 446 503 q 640 613 558 613 q 771 581 722 613 l 771 750 z "},"ग":{"ha":922,"x_min":-28,"x_max":950,"o":"m 950 778 l 950 750 l 811 750 l 811 0 l 617 0 l 617 750 l 349 750 q 483 651 435 725 q 531 486 531 576 q 449 270 531 357 q 236 183 367 183 q 97 233 153 183 q 42 368 42 282 q 73 456 42 421 q 151 492 104 492 q 224 467 199 492 q 251 407 249 443 q 233 347 251 367 q 192 325 214 328 q 133 271 133 318 q 150 235 133 249 q 196 221 167 221 q 297 297 264 221 q 329 488 329 374 q 283 676 329 601 q 146 750 236 750 l -28 750 l -28 778 l 950 778 z "},"घ":{"ha":865,"x_min":-28,"x_max":893,"o":"m 893 778 l 893 750 l 754 750 l 754 0 l 560 0 l 560 164 q 467 83 531 113 q 308 54 403 54 q 139 108 214 54 q 64 260 64 163 q 107 384 64 332 q 233 451 150 436 l 233 457 q 122 505 163 467 q 82 599 82 543 q 107 694 82 654 q 179 750 132 733 l -28 750 l -28 778 l 893 778 m 560 750 l 436 750 q 317 710 357 750 q 276 606 276 671 q 311 503 276 542 q 407 465 346 465 l 444 465 l 444 438 l 408 438 q 301 392 338 438 q 265 275 265 346 q 308 163 265 204 q 411 121 351 121 q 511 151 471 121 q 560 235 551 181 l 560 750 z "},"ङ":{"ha":760,"x_min":-28,"x_max":788,"o":"m 788 778 l 788 750 l 511 750 l 511 560 q 306 601 425 601 q 217 583 246 601 q 188 536 188 564 q 228 486 188 508 q 328 447 269 464 q 445 406 386 429 q 545 335 504 382 q 586 219 586 288 q 503 58 586 121 q 305 -4 421 -4 q 116 40 189 -4 q 43 157 43 85 q 68 226 43 197 q 135 254 93 254 q 203 231 178 254 q 228 175 228 208 q 198 118 228 142 q 168 81 168 94 q 206 39 168 53 q 302 25 244 25 q 399 58 360 25 q 439 144 439 92 q 400 230 439 197 q 305 280 361 263 q 192 315 249 297 q 97 370 136 333 q 58 473 58 407 q 126 584 58 539 q 317 629 194 629 l 317 750 l -28 750 l -28 778 l 788 778 m 580 526 q 594 540 580 526 q 647 554 608 554 q 715 526 686 554 q 743 458 743 497 q 715 391 743 419 q 647 363 686 363 q 580 391 608 363 q 551 458 551 419 q 580 526 551 497 z "},"च":{"ha":817,"x_min":-28,"x_max":844,"o":"m 844 778 l 844 750 l 706 750 l 706 0 l 511 0 l 511 203 q 319 96 463 96 q 133 165 203 96 q 63 351 63 235 q 108 506 63 442 q 236 592 154 569 l 236 597 l 44 597 l 44 625 l 444 625 l 444 597 l 417 597 q 302 531 340 597 q 264 367 264 464 q 300 220 264 271 q 391 169 336 169 q 475 202 446 169 q 511 282 504 235 l 511 750 l -28 750 l -28 778 l 844 778 z "},"छ":{"ha":931,"x_min":-28,"x_max":958,"o":"m 958 750 l 731 750 l 731 624 q 871 397 871 564 q 767 141 871 229 q 471 53 663 53 q 268 73 354 53 q 124 147 182 93 q 67 276 67 201 q 214 451 67 426 l 214 457 q 114 506 150 468 q 78 599 78 543 q 108 694 78 656 q 192 750 138 733 l -28 750 l -28 778 l 958 778 l 958 750 m 536 750 l 443 750 q 322 710 364 750 q 279 600 279 669 q 381 465 279 483 l 381 438 q 296 390 324 432 q 268 286 268 349 q 326 135 268 188 q 458 83 383 83 q 576 108 533 83 q 639 179 618 133 q 676 372 676 261 q 644 542 676 483 q 543 601 611 601 q 446 521 475 601 l 419 532 q 536 647 450 626 l 536 750 z "},"ज":{"ha":965,"x_min":-28,"x_max":993,"o":"m 993 778 l 993 750 l 854 750 l 854 0 l 660 0 l 660 597 l 360 597 l 360 589 q 513 508 456 576 q 569 340 569 440 q 489 134 569 214 q 256 54 408 54 q 84 103 147 54 q 21 249 21 153 q 53 338 21 300 q 132 376 86 376 q 205 348 178 376 q 232 282 232 319 q 218 225 232 244 q 184 198 204 206 q 144 186 164 190 q 97 151 97 174 q 131 106 97 125 q 210 86 164 86 q 368 340 368 86 q 326 533 368 469 q 179 597 283 596 l 179 625 l 660 625 l 660 750 l -28 750 l -28 778 l 993 778 z "},"झ":{"ha":1021,"x_min":-28,"x_max":1049,"o":"m 1049 778 l 1049 750 l 910 750 l 910 0 l 715 0 l 715 276 l 583 276 q 590 225 590 251 q 506 67 590 124 q 301 10 422 10 q 231 15 258 10 q 126 -129 190 -68 l 104 -111 q 157 -53 128 -92 q 203 19 186 -14 q 97 73 133 36 q 61 156 61 110 q 89 228 61 203 q 161 253 117 253 q 235 222 206 253 q 264 142 264 192 q 242 40 264 93 q 296 38 275 38 q 399 69 358 38 q 440 148 440 100 q 401 226 440 196 q 306 274 363 256 q 194 311 250 292 q 100 369 139 331 q 61 473 61 408 q 126 582 61 538 q 308 629 192 626 l 308 750 l -28 750 l -28 778 l 1049 778 m 715 304 l 715 750 l 503 750 l 503 575 q 336 597 418 597 q 190 539 190 597 q 351 442 190 481 q 480 391 414 426 q 572 304 546 356 l 715 304 z "},"ञ":{"ha":899,"x_min":-28,"x_max":926,"o":"m 926 778 l 926 750 l 788 750 l 788 0 l 593 0 l 593 364 l 472 364 q 403 171 471 244 q 215 97 335 97 q 85 133 138 97 q 21 217 33 169 l 44 226 q 144 156 78 156 q 271 367 271 156 q 256 485 271 436 q 157 579 226 579 q 61 521 99 579 l 39 535 q 226 635 96 635 q 399 568 333 635 q 471 392 464 501 l 593 392 l 593 750 l -28 750 l -28 778 l 926 778 z "},"ट":{"ha":651,"x_min":-28,"x_max":679,"o":"m 540 750 l 540 556 q 457 568 500 568 q 309 499 356 568 q 263 312 263 431 q 315 136 263 193 q 440 79 367 79 q 528 103 486 79 q 594 164 571 128 l 614 150 q 391 33 544 33 q 149 106 238 33 q 61 322 61 179 q 141 513 61 440 q 346 586 221 586 l 346 750 l -28 750 l -28 778 l 679 778 l 679 750 l 540 750 z "},"ठ":{"ha":739,"x_min":-28,"x_max":767,"o":"m 767 750 l 468 750 l 468 600 q 619 505 560 574 q 678 333 678 436 q 583 129 678 204 q 368 54 488 54 q 155 129 249 54 q 61 323 61 204 q 126 512 61 442 q 286 604 190 582 l 286 750 l -28 750 l -28 778 l 767 778 l 767 750 m 285 140 q 295 111 285 140 q 368 82 306 82 q 451 140 431 82 q 471 334 471 197 q 451 528 471 471 q 368 586 431 586 q 285 528 306 586 q 265 334 265 471 q 285 140 265 197 z "},"ड":{"ha":635,"x_min":-28,"x_max":663,"o":"m -28 750 l -28 778 l 663 778 l 663 750 l 511 750 l 511 560 q 306 601 425 601 q 217 583 246 601 q 188 536 188 564 q 228 486 188 508 q 328 447 269 464 q 445 406 386 429 q 545 335 504 382 q 586 219 586 288 q 503 58 586 121 q 305 -4 421 -4 q 116 40 189 -4 q 43 157 43 85 q 68 226 43 197 q 135 254 93 254 q 203 231 178 254 q 228 175 228 208 q 198 118 228 142 q 168 81 168 94 q 206 39 168 53 q 302 25 244 25 q 399 58 360 25 q 439 144 439 92 q 400 230 439 197 q 305 280 361 263 q 192 315 249 297 q 97 370 136 333 q 58 473 58 407 q 126 584 58 539 q 317 629 194 629 l 317 750 l -28 750 z "},"ढ":{"ha":725,"x_min":-28,"x_max":753,"o":"m 540 750 l 540 551 q 449 568 507 568 q 308 499 354 568 q 263 318 263 429 q 294 134 263 207 q 388 61 325 61 q 493 233 493 61 q 476 313 493 281 q 424 346 460 346 q 372 304 389 346 l 351 314 q 503 406 382 406 q 628 357 582 406 q 674 235 674 308 q 592 82 674 131 q 375 33 511 33 q 150 110 239 33 q 61 314 61 188 q 141 513 61 440 q 346 586 221 586 l 346 750 l -28 750 l -28 778 l 753 778 l 753 750 l 540 750 z "},"ण":{"ha":1143,"x_min":-28,"x_max":1168,"o":"m 1168 778 l 1168 750 l 1032 750 l 1032 0 l 838 0 l 838 750 l 668 750 l 668 475 q 597 258 668 325 q 372 190 526 190 q 145 258 217 190 q 74 475 74 325 l 74 750 l -28 750 l -28 778 l 1168 778 m 467 456 l 467 750 l 275 750 l 275 456 q 317 236 275 269 q 366 218 338 218 q 411 226 394 218 q 438 252 428 233 q 455 288 449 271 q 464 339 461 306 q 467 456 467 394 z "},"त":{"ha":782,"x_min":-28,"x_max":807,"o":"m 807 778 l 807 750 l 671 750 l 671 0 l 476 0 l 476 549 q 432 550 465 550 q 363 533 399 550 q 308 494 326 517 q 278 431 289 471 q 264 256 264 374 q 287 87 264 139 q 367 35 310 35 q 400 38 386 35 l 406 13 q 333 1 378 1 q 136 66 210 1 q 63 275 63 131 q 175 518 63 451 q 431 576 274 576 q 476 574 451 576 l 476 750 l -28 750 l -28 778 l 807 778 z "},"थ":{"ha":906,"x_min":53,"x_max":932,"o":"m 932 778 l 932 750 l 794 750 l 794 0 l 600 0 l 600 231 q 503 150 567 178 q 371 122 439 122 q 142 194 232 122 q 53 390 53 265 q 56 435 53 415 q 96 433 69 433 q 324 599 324 433 q 297 679 324 651 q 228 707 271 707 q 163 685 186 707 q 139 626 139 663 q 215 546 139 556 l 213 518 q 129 551 158 521 q 100 626 100 581 q 148 739 100 696 q 285 782 196 782 q 433 733 375 782 q 490 599 490 685 q 425 463 490 514 q 258 406 360 413 q 256 374 256 393 q 297 232 256 292 q 417 172 338 172 q 549 215 497 172 q 600 325 600 257 l 600 750 l 540 750 l 540 778 l 932 778 z "},"द":{"ha":679,"x_min":-28,"x_max":707,"o":"m 540 750 l 540 551 q 449 568 507 568 q 308 499 354 568 q 263 317 263 429 q 308 135 263 206 q 429 64 353 64 q 453 65 444 64 q 411 184 411 125 q 440 274 411 243 q 515 306 468 306 q 591 276 563 306 q 619 201 619 246 q 501 53 619 96 q 658 -57 554 -7 l 644 -82 q 471 43 528 -24 q 386 33 428 33 q 150 108 239 33 q 61 311 61 182 q 141 513 61 440 q 346 586 221 586 l 346 750 l -28 750 l -28 778 l 707 778 l 707 750 l 540 750 z "},"ध":{"ha":867,"x_min":-28,"x_max":894,"o":"m 497 778 l 894 778 l 894 750 l 756 750 l 756 0 l 561 0 l 561 164 q 468 83 532 113 q 310 54 404 54 q 140 108 215 54 q 65 260 65 163 q 108 385 65 333 q 232 451 150 436 l 232 457 q 124 505 165 465 q 83 600 83 544 q 182 750 83 715 l -28 750 l -28 778 l 410 778 l 410 750 q 306 710 335 750 q 278 606 278 671 q 313 503 278 542 q 408 465 347 465 l 446 465 l 446 438 l 410 438 q 303 392 339 438 q 267 275 267 346 q 310 163 267 204 q 413 121 353 121 q 513 151 472 121 q 561 235 553 181 l 561 750 l 497 750 l 497 778 z "},"न":{"ha":776,"x_min":-28,"x_max":804,"o":"m 804 778 l 804 750 l 665 750 l 665 0 l 471 0 l 471 513 q 335 515 371 515 q 277 513 300 515 q 222 506 254 511 q 170 485 190 500 q 150 453 150 471 q 174 426 150 435 q 228 411 199 417 q 281 379 257 406 q 306 305 306 353 q 272 226 306 257 q 183 196 239 196 q 88 236 126 196 q 49 344 49 276 q 126 497 49 451 q 318 543 203 543 l 471 543 l 471 750 l -28 750 l -28 778 l 804 778 z "},"ऩ":{"ha":776,"x_min":-28,"x_max":804,"o":"m 804 778 l 804 750 l 665 750 l 665 0 l 471 0 l 471 513 q 335 515 371 515 q 277 513 300 515 q 222 506 254 511 q 170 485 190 500 q 150 453 150 471 q 174 426 150 435 q 228 411 199 417 q 281 379 257 406 q 306 305 306 353 q 272 226 306 257 q 183 196 239 196 q 88 236 126 196 q 49 344 49 276 q 126 497 49 451 q 318 543 203 543 l 471 543 l 471 750 l -28 750 l -28 778 l 804 778 m 141 106 q 155 119 141 106 q 208 133 169 133 q 276 106 247 133 q 304 38 304 78 q 276 -31 304 -3 q 208 -58 247 -58 q 141 -31 169 -58 q 113 38 113 -3 q 141 106 113 78 z "},"प":{"ha":781,"x_min":-28,"x_max":808,"o":"m 808 778 l 808 750 l 669 750 l 669 0 l 475 0 l 475 279 q 403 213 454 243 q 289 183 351 183 q 180 208 226 183 q 111 278 133 233 q 71 479 71 357 l 71 750 l -28 750 l -28 778 l 808 778 m 475 750 l 274 750 l 274 469 q 283 335 274 361 q 304 292 293 310 q 368 256 325 256 q 439 278 411 256 q 475 331 467 301 l 475 750 z "},"फ":{"ha":1136,"x_min":-28,"x_max":1164,"o":"m 1164 750 l 669 750 l 669 547 q 849 646 717 646 q 1022 567 958 646 q 1086 372 1086 489 q 1025 183 1086 256 q 863 111 964 111 q 718 151 763 111 l 725 172 q 758 167 736 167 q 855 228 825 168 q 885 374 885 288 q 853 515 885 460 q 767 569 822 569 q 703 541 729 568 q 669 469 678 514 l 669 0 l 475 0 l 475 279 q 403 213 454 243 q 289 183 351 183 q 180 208 226 183 q 111 278 133 233 q 71 479 71 357 l 71 750 l -28 750 l -28 778 l 1164 778 l 1164 750 m 475 750 l 274 750 l 274 469 q 283 335 274 361 q 304 292 293 310 q 368 256 325 256 q 439 278 411 256 q 475 331 467 301 l 475 750 z "},"ब":{"ha":783,"x_min":-28,"x_max":811,"o":"m 811 778 l 811 750 l 672 750 l 672 0 l 479 0 l 479 194 q 406 128 458 156 q 293 100 354 100 q 119 167 190 100 q 49 365 49 233 q 119 565 49 496 q 292 633 189 633 q 415 589 368 633 l 400 571 q 358 583 379 583 q 281 519 310 583 l 479 332 l 479 750 l -28 750 l -28 778 l 811 778 m 257 379 q 379 172 257 172 q 447 203 418 172 q 479 268 476 235 l 479 293 l 271 489 q 257 379 257 446 z "},"भ":{"ha":865,"x_min":46,"x_max":893,"o":"m 893 778 l 893 750 l 754 750 l 754 0 l 560 0 l 560 433 l 415 433 q 354 218 410 290 q 206 146 299 146 q 91 185 136 146 q 46 294 46 224 q 96 408 46 364 q 224 458 146 451 l 224 468 q 205 669 224 615 q 146 722 186 722 q 98 699 118 722 q 75 633 78 676 l 49 635 q 94 742 50 703 q 211 782 139 782 q 417 468 417 782 l 417 460 l 560 460 l 560 750 l 465 750 l 465 778 l 893 778 m 139 222 q 224 429 217 222 q 120 385 158 424 q 82 292 82 347 q 97 242 82 261 q 139 222 113 222 z "},"म":{"ha":894,"x_min":-28,"x_max":922,"o":"m 922 778 l 922 750 l 783 750 l 783 0 l 589 0 l 589 433 l 410 433 q 357 213 408 281 q 207 146 306 146 q 88 183 136 146 q 39 292 39 221 q 89 408 39 364 q 217 458 139 451 l 217 750 l -28 750 l -28 778 l 922 778 m 138 222 q 198 276 181 222 q 217 429 215 329 q 113 385 151 424 q 75 292 75 347 q 91 241 75 260 q 138 222 107 222 m 589 460 l 589 750 l 410 750 l 410 460 l 589 460 z "},"य":{"ha":889,"x_min":-28,"x_max":917,"o":"m 917 778 l 917 750 l 778 750 l 778 0 l 583 0 l 583 232 q 487 158 549 183 q 361 133 425 133 q 133 205 222 133 q 43 401 43 276 q 46 446 43 426 q 69 444 60 444 q 249 599 249 444 q 206 717 249 685 q 82 750 164 750 l -28 750 l -28 778 l 917 778 m 247 406 l 246 385 q 287 243 246 303 q 413 183 328 183 q 522 213 475 183 q 583 292 568 242 l 583 750 l 313 750 q 414 690 378 733 q 450 576 450 646 q 397 463 450 507 q 247 410 344 419 l 247 406 z "},"र":{"ha":518,"x_min":-28,"x_max":546,"o":"m 546 778 l 546 750 l 293 750 q 403 684 365 733 q 442 565 442 635 q 364 422 442 472 q 156 364 286 372 l 156 358 q 271 311 226 349 q 333 228 315 274 q 363 139 350 183 q 397 65 375 94 q 452 35 418 35 q 507 47 486 35 l 515 28 q 384 -6 471 -6 q 241 28 297 -6 q 160 113 185 63 q 119 214 136 163 q 15 361 81 343 l 15 389 l 58 389 q 250 565 250 389 q 79 750 250 750 l -28 750 l -28 778 l 546 778 z "},"ऱ":{"ha":518,"x_min":-28,"x_max":546,"o":"m 546 778 l 546 750 l 293 750 q 403 684 365 733 q 442 565 442 635 q 364 422 442 472 q 156 364 286 372 l 156 358 q 271 311 226 349 q 333 228 315 274 q 363 139 350 183 q 397 65 375 94 q 452 35 418 35 q 507 47 486 35 l 515 28 q 384 -6 471 -6 q 241 28 297 -6 q 160 113 185 63 q 119 214 136 163 q 15 361 81 343 l 15 389 l 58 389 q 250 565 250 389 q 79 750 250 750 l -28 750 l -28 778 l 546 778 m 35 -31 q 50 -17 35 -31 q 103 -3 64 -3 q 170 -31 142 -3 q 199 -99 199 -58 q 170 -167 199 -139 q 103 -194 142 -194 q 35 -167 64 -194 q 7 -99 7 -139 q 35 -31 7 -58 z "},"ल":{"ha":1011,"x_min":-28,"x_max":1039,"o":"m 1039 750 l 782 750 l 782 607 q 915 510 865 582 q 964 322 964 438 q 906 125 964 207 q 719 43 847 43 q 596 85 640 43 l 610 104 q 658 89 631 89 q 738 139 713 89 q 764 315 764 189 q 676 592 764 592 q 596 329 596 592 l 596 240 l 415 240 l 415 329 q 335 592 415 592 q 247 315 247 592 q 273 139 247 189 q 353 89 299 89 q 401 104 381 89 l 415 85 q 292 43 371 43 q 106 125 164 43 q 47 335 47 207 q 122 542 47 464 q 323 619 197 619 q 506 525 449 619 q 592 601 538 578 l 592 750 l -28 750 l -28 778 l 1039 778 l 1039 750 z "},"ळ":{"ha":1050,"x_min":-28,"x_max":1099,"o":"m 1099 750 l 835 750 l 835 615 q 959 520 917 590 q 1001 331 1001 450 q 943 126 1001 211 q 761 40 885 40 q 634 76 686 40 q 561 175 582 111 q 306 44 472 44 q 114 133 179 44 q 49 344 49 221 q 116 550 49 468 q 296 632 183 632 q 419 597 368 632 q 489 500 469 563 q 640 614 549 583 l 640 750 l -28 750 l -28 778 l 1099 778 l 1099 750 m 313 71 q 359 117 342 71 q 397 254 376 163 q 467 464 428 394 q 428 547 458 511 q 361 583 397 583 q 303 563 325 583 q 272 499 281 542 q 257 302 257 429 q 267 123 257 175 q 313 71 276 71 m 582 208 q 622 126 590 160 q 690 92 653 92 q 748 113 726 92 q 778 175 769 133 q 793 367 793 242 q 783 547 793 493 q 738 601 772 601 q 691 553 708 601 q 654 417 674 506 q 619 287 635 328 q 582 208 603 246 z "},"ऴ":{"ha":1071,"x_min":-28,"x_max":1099,"o":"m 1099 750 l 835 750 l 835 615 q 959 520 917 590 q 1001 331 1001 450 q 943 126 1001 211 q 761 40 885 40 q 634 76 686 40 q 561 175 582 111 q 306 44 472 44 q 114 133 179 44 q 49 344 49 221 q 116 550 49 468 q 296 632 183 632 q 419 597 368 632 q 489 500 469 563 q 640 614 549 583 l 640 750 l -28 750 l -28 778 l 1099 778 l 1099 750 m 313 71 q 359 117 342 71 q 397 254 376 163 q 467 464 428 394 q 428 547 458 511 q 361 583 397 583 q 303 563 325 583 q 272 499 281 542 q 257 302 257 429 q 267 123 257 175 q 313 71 276 71 m 582 208 q 622 126 590 160 q 690 92 653 92 q 748 113 726 92 q 778 175 769 133 q 793 367 793 242 q 783 547 793 493 q 738 601 772 601 q 691 553 708 601 q 654 417 674 506 q 619 287 635 328 q 582 208 603 246 m 199 -35 q 214 -21 199 -35 q 267 -7 228 -7 q 334 -35 306 -7 q 363 -103 363 -64 q 334 -170 363 -142 q 267 -199 306 -199 q 199 -170 228 -199 q 171 -103 171 -142 q 199 -35 171 -64 z "},"व":{"ha":783,"x_min":-28,"x_max":811,"o":"m 811 778 l 811 750 l 672 750 l 672 0 l 479 0 l 479 194 q 406 128 458 156 q 293 100 354 100 q 119 167 190 100 q 49 365 49 233 q 119 565 49 496 q 292 633 189 633 q 415 589 368 633 l 400 571 q 358 583 379 583 q 285 528 314 583 q 257 379 257 474 q 379 172 257 172 q 447 203 418 172 q 479 268 475 235 l 479 750 l -28 750 l -28 778 l 811 778 z "},"श":{"ha":983,"x_min":-28,"x_max":1008,"o":"m 1008 778 l 1008 750 l 872 750 l 872 0 l 678 0 l 678 750 l 444 750 q 553 563 553 700 q 458 385 553 444 q 233 326 363 326 l 207 326 l 207 321 q 297 282 261 314 q 351 210 333 250 q 386 131 369 169 q 519 38 428 38 q 564 44 550 38 l 571 25 q 424 -6 514 -6 q 147 158 218 -6 q 63 304 99 276 q 28 324 50 314 l 28 351 l 88 351 q 293 410 222 351 q 364 585 364 469 q 331 708 364 667 q 256 750 297 750 q 167 711 167 750 q 225 683 167 694 q 265 659 247 679 q 283 602 283 639 q 259 541 283 565 q 192 517 235 517 q 121 547 150 517 q 92 628 92 576 q 168 750 92 711 l -28 750 l -28 778 l 1008 778 z "},"ष":{"ha":781,"x_min":-28,"x_max":806,"o":"m 806 778 l 806 750 l 669 750 l 669 0 l 475 0 l 475 279 q 403 213 454 243 q 289 183 351 183 q 180 208 226 183 q 111 278 133 233 q 71 479 71 357 l 71 750 l -28 750 l -28 778 l 806 778 m 274 469 q 283 335 274 361 q 304 292 293 310 q 368 256 325 256 q 440 278 411 256 q 475 331 468 300 l 475 422 l 274 613 l 274 469 m 475 750 l 274 750 l 274 650 l 475 460 l 475 750 z "},"स":{"ha":940,"x_min":-28,"x_max":968,"o":"m 968 778 l 968 750 l 829 750 l 829 0 l 635 0 l 635 364 l 149 364 l 149 358 q 264 311 219 349 q 326 228 308 274 q 356 139 343 183 q 390 65 368 94 q 445 35 411 35 q 500 47 479 35 l 508 28 q 377 -6 464 -6 q 234 28 290 -6 q 153 113 178 63 q 114 214 129 163 q 8 361 74 343 l 8 389 l 51 389 q 243 565 243 389 q 72 750 243 750 l -28 750 l -28 778 l 968 778 m 635 392 l 635 750 l 286 750 q 397 684 358 733 q 435 565 435 635 q 296 392 435 442 l 635 392 z "},"ह":{"ha":703,"x_min":-28,"x_max":731,"o":"m 582 750 l 582 553 q 397 583 490 583 q 256 506 256 583 q 382 425 256 425 l 383 425 q 639 285 639 425 q 601 190 639 226 q 486 154 564 154 q 344 201 408 154 l 353 218 q 397 211 369 211 q 447 235 424 211 q 469 302 469 260 q 444 368 469 344 q 368 392 418 392 q 282 346 318 392 q 246 215 246 300 q 299 83 246 129 q 449 36 351 36 q 542 49 499 36 q 601 74 585 63 l 615 49 q 386 -4 547 -4 q 138 54 225 -4 q 51 218 51 113 q 199 397 51 346 q 106 435 143 407 q 68 507 68 463 q 268 618 68 618 l 388 613 l 388 750 l -28 750 l -28 778 l 731 778 l 731 750 l 582 750 z "},"़":{"ha":0,"x_min":-469,"x_max":-278,"o":"m -306 -42 q -292 -56 -306 -42 q -278 -110 -278 -69 q -306 -178 -278 -150 q -374 -206 -333 -206 q -442 -178 -414 -206 q -469 -110 -469 -150 q -442 -42 -469 -69 q -374 -14 -414 -14 q -306 -42 -333 -14 z "},"ऽ":{"ha":671,"x_min":35,"x_max":614,"o":"m 301 38 q 401 70 364 38 q 438 155 438 103 q 399 251 438 207 q 305 328 360 294 q 194 399 250 363 q 100 488 139 435 q 61 615 61 542 q 126 733 61 688 q 308 778 190 778 l 614 778 l 614 750 l 336 750 q 224 683 224 750 q 353 533 224 615 q 461 460 407 500 q 553 360 515 421 q 590 225 590 300 q 509 67 590 124 q 307 10 428 10 q 35 128 163 10 l 51 150 q 301 38 169 38 z "},"ा":{"ha":417,"x_min":-28,"x_max":444,"o":"m 444 778 l 444 750 l 306 750 l 306 0 l 111 0 l 111 750 l -28 750 l -28 778 l 444 778 z "},"ि":{"ha":417,"x_min":-28,"x_max":894,"o":"m 797 1153 q 866 1104 838 1139 q 894 1009 894 1069 q 853 910 894 949 q 733 871 811 871 q 469 915 654 871 q 233 958 285 958 q 133 886 133 958 q 174 806 133 833 q 267 778 215 778 l 444 778 l 444 750 l 306 750 l 306 0 l 111 0 l 111 750 l -28 750 l -28 778 l 156 778 q 75 915 75 818 q 126 1043 75 993 q 279 1093 176 1093 q 514 1051 340 1093 q 765 1010 688 1010 q 843 1058 843 1010 q 788 1126 843 1107 l 797 1153 z "},"ी":{"ha":417,"x_min":-164,"x_max":444,"o":"m 444 778 l 444 750 l 306 750 l 306 0 l 111 0 l 111 750 l -28 750 l -28 778 l 111 778 q 76 959 110 903 q -26 1015 43 1015 q -106 989 -76 1015 q -136 914 -136 963 q -126 868 -136 890 l -153 858 q -164 914 -164 885 q -115 1022 -164 976 q 49 1068 -65 1068 q 233 993 163 1068 q 306 778 304 918 l 444 778 z "},"ु":{"ha":0,"x_min":-549,"x_max":-21,"o":"m -303 -256 q -222 -224 -253 -256 q -190 -141 -190 -192 q -216 -60 -190 -90 q -277 -31 -242 -31 q -335 -45 -312 -31 q -364 -82 -357 -60 l -390 -71 q -320 3 -369 -21 q -214 26 -271 26 q -71 -17 -121 26 q -21 -139 -21 -60 q -83 -268 -21 -218 q -265 -318 -146 -318 q -466 -233 -385 -318 q -549 -21 -547 -147 l -519 -21 q -459 -184 -517 -112 q -303 -256 -401 -256 z "},"ू":{"ha":0,"x_min":-426,"x_max":101,"o":"m -22 -92 q -132 -44 -72 -44 q -226 -76 -192 -44 q -261 -161 -261 -108 q -235 -242 -261 -214 q -174 -269 -208 -269 q -117 -253 -139 -269 q -92 -204 -94 -236 l -64 -211 q -229 -321 -78 -321 q -369 -278 -312 -321 q -426 -159 -426 -235 q -369 -33 -426 -83 q -208 18 -311 18 q 19 -81 -61 18 q 101 -312 99 -181 l 74 -312 q -22 -92 71 -176 z "},"ृ":{"ha":0,"x_min":-517,"x_max":-44,"o":"m -44 -189 q -286 -304 -97 -304 q -450 -258 -383 -304 q -517 -138 -517 -211 q -444 -17 -517 -65 q -217 31 -372 31 q -121 24 -164 31 l -121 0 q -272 -40 -222 -3 q -321 -130 -321 -76 q -290 -219 -321 -183 q -211 -254 -258 -254 q -127 -232 -164 -254 q -68 -175 -90 -210 l -44 -189 z "},"ॄ":{"ha":0,"x_min":-496,"x_max":-68,"o":"m -289 -586 q -438 -538 -381 -586 q -496 -410 -496 -490 q -322 -258 -496 -267 l -322 -250 q -438 -203 -397 -240 q -479 -110 -479 -165 q -231 31 -479 31 q -121 24 -167 31 l -121 0 q -311 -122 -311 -10 q -157 -239 -311 -225 l -157 -267 q -304 -393 -304 -272 q -274 -486 -304 -453 q -187 -519 -244 -519 q -87 -465 -129 -519 l -68 -481 q -289 -586 -129 -586 z "},"ॅ":{"ha":0,"x_min":-447,"x_max":32,"o":"m -34 938 q -67 907 -34 938 q -208 876 -100 876 q -382 938 -317 876 q -444 1108 -447 1000 l -442 1111 l -428 1114 l -425 1113 q -356 1035 -414 1064 q -208 1006 -299 1006 q -59 1035 -117 1006 q 10 1113 -1 1064 l 13 1114 l 26 1111 l 29 1108 q -34 938 32 1000 z "},"ॆ":{"ha":13,"x_min":-708,"x_max":-129,"o":"m -547 1018 l -329 1038 q -182 994 -235 1038 q -129 860 -129 950 q -167 763 -129 797 l -196 769 q -164 833 -164 793 q -286 906 -164 906 q -403 895 -317 906 q -510 885 -489 885 q -708 1035 -708 885 q -679 1132 -708 1093 q -594 1171 -650 1171 q -510 1138 -539 1171 l -528 1117 q -590 1143 -557 1143 q -640 1128 -622 1143 q -658 1085 -658 1113 q -547 1018 -658 1018 z "},"े":{"ha":0,"x_min":-554,"x_max":-187,"o":"m -514 960 q -554 1023 -554 988 q -533 1078 -554 1058 q -484 1097 -512 1097 q -431 1080 -456 1097 q -376 1032 -407 1063 q -292 944 -346 1001 q -187 838 -239 888 l -200 818 q -337 878 -265 849 q -449 924 -408 907 q -514 960 -489 942 z "},"ै":{"ha":0,"x_min":-703,"x_max":-150,"o":"m -703 974 q -681 1024 -703 1004 q -638 1043 -660 1043 q -607 1042 -617 1043 q -584 1035 -597 1040 q -560 1024 -571 1029 q -528 1008 -549 1019 q -492 986 -508 996 q -446 956 -476 976 q -392 921 -415 936 q -249 826 -300 860 l -261 799 q -484 858 -361 828 q -640 901 -607 889 q -703 974 -703 925 m -435 1017 q -452 1034 -435 1017 q -469 1081 -469 1051 q -449 1130 -469 1110 q -399 1150 -429 1150 q -310 1097 -351 1150 q -150 840 -269 1043 l -172 819 q -287 903 -225 860 q -435 1017 -401 983 z "},"ॉ":{"ha":417,"x_min":-31,"x_max":449,"o":"m 444 778 l 444 750 l 306 750 l 306 0 l 111 0 l 111 750 l -28 750 l -28 778 l 444 778 m 383 938 q 350 907 383 938 q 208 876 317 876 q 35 938 100 876 q -28 1108 -31 1000 l -25 1111 l -11 1114 l -8 1113 q 60 1035 3 1064 q 209 1006 118 1006 q 358 1035 300 1006 q 426 1113 415 1064 l 429 1114 l 443 1111 l 446 1108 q 383 938 449 1000 z "},"ॊ":{"ha":417,"x_min":-308,"x_max":444,"o":"m -147 1018 l 71 1038 q 218 994 165 1038 q 271 860 271 950 q 247 778 271 810 l 444 778 l 444 750 l 306 750 l 306 0 l 111 0 l 111 750 l -28 750 l -28 778 l 214 778 q 236 833 236 806 q 114 906 236 906 q -3 895 83 906 q -110 885 -89 885 q -308 1035 -308 885 q -279 1132 -308 1093 q -194 1171 -250 1171 q -110 1138 -139 1171 l -128 1117 q -190 1143 -157 1143 q -240 1128 -222 1143 q -258 1085 -258 1113 q -147 1018 -258 1018 z "},"ो":{"ha":417,"x_min":-143,"x_max":444,"o":"m 444 778 l 444 750 l 306 750 l 306 0 l 111 0 l 111 750 l -28 750 l -28 778 l 444 778 m -103 960 q -143 1023 -143 988 q -122 1078 -143 1058 q -73 1097 -101 1097 q -20 1080 -44 1097 q 35 1032 4 1063 q 119 944 65 1001 q 224 838 172 888 l 211 818 q 74 878 146 849 q -37 924 3 907 q -103 960 -78 942 z "},"ौ":{"ha":417,"x_min":-258,"x_max":444,"o":"m 444 778 l 444 750 l 306 750 l 306 0 l 111 0 l 111 750 l -28 750 l -28 778 l 444 778 m -258 974 q -237 1024 -258 1004 q -194 1043 -215 1043 q -162 1042 -172 1043 q -140 1035 -153 1040 q -115 1024 -126 1029 q -84 1008 -104 1019 q -48 986 -64 996 q -1 956 -32 976 q 53 921 29 936 q 196 826 143 860 l 183 799 q -40 858 83 828 q -196 901 -162 889 q -258 974 -258 925 m 9 1017 q -8 1034 9 1017 q -25 1081 -25 1051 q -5 1130 -25 1110 q 46 1150 15 1150 q 134 1097 93 1150 q 294 840 175 1043 l 272 819 q 157 903 219 860 q 9 1017 43 983 z "},"्":{"ha":0,"x_min":-218,"x_max":126,"o":"m -142 -249 q -193 -133 -175 -192 q -218 -57 -211 -74 l -204 -44 q -144 -92 -187 -57 q -78 -142 -101 -126 q -19 -181 -56 -158 q 122 -228 47 -222 l 126 -244 q -23 -318 57 -318 q -142 -249 -103 -318 z "},"ॐ":{"ha":1333,"x_min":7,"x_max":1299,"o":"m 565 243 q 547 150 565 190 q 603 101 571 101 q 658 156 635 101 q 705 288 682 210 q 763 443 728 365 q 870 575 797 521 q 1048 629 943 629 q 1226 561 1153 629 q 1299 350 1299 493 q 1237 124 1299 207 q 1061 42 1175 42 q 864 161 910 42 q 689 42 794 42 q 533 122 583 42 q 244 1 460 1 q 74 51 142 1 q 7 192 7 101 q 40 281 7 247 q 119 315 72 315 q 192 288 165 315 q 219 219 219 261 q 126 125 219 143 q 95 115 106 121 q 85 97 85 110 q 126 54 85 74 q 221 35 167 35 q 361 249 361 35 q 316 382 361 329 q 167 435 271 435 l 149 435 l 149 463 l 167 463 q 326 614 326 463 q 296 699 326 669 q 217 728 265 728 q 139 699 168 728 l 122 718 q 291 778 182 778 q 463 734 400 778 q 526 629 526 690 q 329 457 526 486 l 329 451 q 565 243 565 425 m 881 194 q 926 118 892 146 q 992 90 960 90 q 1046 113 1025 90 q 1075 178 1067 135 q 1090 354 1090 247 q 1084 516 1090 461 q 1067 587 1078 571 q 1036 603 1057 603 q 987 540 1008 603 q 938 369 965 478 q 881 194 911 260 m 949 758 q 916 727 949 758 q 775 696 883 696 q 601 758 667 696 q 539 928 536 819 l 542 931 l 556 933 l 558 932 q 627 854 569 883 q 776 825 685 825 q 924 854 867 825 q 993 932 982 883 l 996 933 l 1010 931 l 1013 928 q 949 758 1015 819 m 842 936 q 828 922 842 936 q 775 908 814 908 q 708 936 736 908 q 679 1003 679 964 q 707 1071 679 1043 q 774 1099 735 1099 q 842 1072 814 1099 q 869 1004 869 1044 q 842 936 869 964 z "},"॑":{"ha":0,"x_min":-267,"x_max":-169,"o":"m -206 715 q -217 703 -208 703 q -229 715 -226 703 q -244 831 -235 763 q -267 999 -267 974 q -252 1038 -267 1025 q -217 1050 -237 1050 q -183 1038 -197 1050 q -169 1007 -169 1025 q -175 945 -169 989 q -190 833 -181 901 q -206 715 -200 765 z "},"॒":{"ha":0,"x_min":-718,"x_max":-76,"o":"m -718 -206 l -718 -178 l -76 -178 l -76 -206 l -718 -206 z "},"॓":{"ha":0,"x_min":-283,"x_max":0,"o":"m -283 978 q -265 1029 -283 1010 q -215 1049 -246 1049 q -167 1033 -185 1049 q -130 974 -150 1017 q -100 915 -110 931 q -3 833 -62 857 l 0 829 l -4 818 l -8 817 q -283 978 -283 867 z "},"॔":{"ha":0,"x_min":-283,"x_max":0,"o":"m -153 974 q -143 995 -153 974 q -116 1033 -133 1017 q -68 1049 -99 1049 q -19 1029 -37 1049 q 0 977 0 1010 q -26 915 0 944 q -100 867 -51 886 q -275 817 -179 835 l -279 818 l -283 829 l -281 833 q -183 915 -221 857 q -153 974 -174 931 z "},"क़":{"ha":1129,"x_min":-28,"x_max":1157,"o":"m 369 172 q 468 282 453 175 l 468 750 l -28 750 l -28 778 l 1157 778 l 1157 750 l 663 750 l 663 538 q 843 639 710 639 q 1017 560 953 639 q 1081 365 1081 482 q 1019 176 1081 249 q 858 104 958 104 q 713 144 757 104 l 719 165 q 753 160 731 160 q 849 221 819 161 q 879 367 879 281 q 848 508 879 453 q 769 561 817 563 q 663 453 678 561 l 663 0 l 468 0 l 468 200 q 286 96 421 96 q 110 172 172 96 q 49 365 49 249 q 114 556 49 482 q 292 631 179 631 q 417 590 372 631 l 410 569 q 379 575 399 575 q 282 518 314 574 q 250 372 250 463 q 282 226 250 281 q 369 172 314 172 m 139 -11 q 153 3 139 -11 q 207 17 167 17 q 275 -11 247 17 q 303 -79 303 -39 q 275 -147 303 -119 q 207 -175 247 -175 q 139 -147 167 -175 q 111 -79 111 -119 q 139 -11 111 -39 z "},"ख़":{"ha":1078,"x_min":-21,"x_max":1106,"o":"m 1106 778 l 1106 750 l 967 750 l 967 0 l 778 0 l 778 165 q 450 35 672 35 q 291 67 358 35 q 188 146 224 99 q 128 241 153 193 q 78 328 103 289 q 26 375 54 367 l 26 403 q 247 597 247 403 q 210 706 247 661 q 110 750 174 750 l -21 750 l -21 778 l 1106 778 m 778 750 l 328 750 q 432 589 432 710 q 363 453 432 504 q 197 393 294 401 l 197 388 q 336 265 276 367 q 388 187 361 225 q 461 123 415 149 q 569 97 507 97 q 751 181 679 97 q 822 399 822 264 q 726 561 822 561 q 655 524 681 561 q 629 428 629 486 q 656 331 629 371 q 726 292 682 292 q 754 296 739 292 l 761 281 q 707 249 744 261 q 633 236 669 236 q 505 285 557 236 q 453 419 453 335 q 509 558 453 503 q 647 613 565 613 q 778 581 729 613 l 778 750 m 116 -25 q 130 -11 116 -25 q 183 3 144 3 q 251 -25 222 3 q 279 -93 279 -53 q 251 -161 279 -133 q 183 -189 222 -189 q 116 -161 144 -189 q 88 -93 88 -133 q 116 -25 88 -53 z "},"ग़":{"ha":922,"x_min":-28,"x_max":950,"o":"m 950 778 l 950 750 l 811 750 l 811 0 l 617 0 l 617 750 l 349 750 q 483 651 435 725 q 531 486 531 576 q 449 270 531 357 q 236 183 367 183 q 97 233 153 183 q 42 368 42 282 q 73 456 42 421 q 151 492 104 492 q 224 467 199 492 q 251 407 249 443 q 233 347 251 367 q 192 325 214 328 q 133 271 133 318 q 150 235 133 249 q 196 221 167 221 q 297 297 264 221 q 329 488 329 374 q 283 676 329 601 q 146 750 236 750 l -28 750 l -28 778 l 950 778 m 222 36 q 236 50 222 36 q 289 64 250 64 q 356 36 328 64 q 385 -32 385 8 q 356 -100 385 -72 q 289 -128 328 -128 q 222 -100 250 -128 q 193 -32 193 -72 q 222 36 193 8 z "},"ज़":{"ha":965,"x_min":-28,"x_max":993,"o":"m 993 778 l 993 750 l 854 750 l 854 0 l 660 0 l 660 597 l 360 597 l 360 589 q 513 508 456 576 q 569 340 569 440 q 489 134 569 214 q 256 54 408 54 q 84 103 147 54 q 21 249 21 153 q 53 338 21 300 q 132 376 86 376 q 205 348 178 376 q 232 282 232 319 q 218 225 232 244 q 184 198 204 206 q 144 186 164 190 q 97 151 97 174 q 131 106 97 125 q 210 86 164 86 q 368 340 368 86 q 326 533 368 469 q 179 597 283 596 l 179 625 l 660 625 l 660 750 l -28 750 l -28 778 l 993 778 m 200 -69 q 214 -55 200 -69 q 268 -40 228 -40 q 336 -69 308 -40 q 364 -136 364 -97 q 336 -203 364 -175 q 268 -232 308 -232 q 200 -203 228 -232 q 172 -136 172 -175 q 200 -69 172 -97 z "},"ड़":{"ha":635,"x_min":-28,"x_max":663,"o":"m -28 750 l -28 778 l 663 778 l 663 750 l 511 750 l 511 560 q 306 601 425 601 q 217 583 246 601 q 188 536 188 564 q 228 486 188 508 q 328 447 269 464 q 445 406 386 429 q 545 335 504 382 q 586 219 586 288 q 503 58 586 121 q 305 -4 421 -4 q 116 40 189 -4 q 43 157 43 85 q 68 226 43 197 q 135 254 93 254 q 203 231 178 254 q 228 175 228 208 q 198 118 228 142 q 168 81 168 94 q 206 39 168 53 q 302 25 244 25 q 399 58 360 25 q 439 144 439 92 q 400 230 439 197 q 305 280 361 263 q 192 315 249 297 q 97 370 136 333 q 58 473 58 407 q 126 584 58 539 q 317 629 194 629 l 317 750 l -28 750 m 361 -69 q 375 -83 361 -69 q 389 -137 389 -97 q 361 -206 389 -178 q 293 -233 333 -233 q 225 -206 253 -233 q 197 -137 197 -178 q 225 -69 197 -97 q 293 -42 253 -42 q 361 -69 333 -42 z "},"ढ़":{"ha":725,"x_min":-28,"x_max":753,"o":"m 540 750 l 540 551 q 449 568 507 568 q 308 499 354 568 q 263 318 263 429 q 294 134 263 207 q 388 61 325 61 q 493 233 493 61 q 476 313 493 281 q 424 346 460 346 q 372 304 389 346 l 351 314 q 503 406 382 406 q 628 357 582 406 q 674 235 674 308 q 592 82 674 131 q 375 33 511 33 q 150 110 239 33 q 61 314 61 188 q 141 513 61 440 q 346 586 221 586 l 346 750 l -28 750 l -28 778 l 753 778 l 753 750 l 540 750 m 310 -81 q 325 -67 310 -81 q 378 -53 339 -53 q 445 -81 417 -53 q 474 -149 474 -108 q 445 -217 474 -189 q 378 -244 417 -244 q 310 -217 339 -244 q 282 -149 282 -189 q 310 -81 282 -108 z "},"फ़":{"ha":1143,"x_min":-21,"x_max":1171,"o":"m 1171 750 l 676 750 l 676 547 q 856 646 724 646 q 1029 567 965 646 q 1093 372 1093 489 q 1032 183 1093 256 q 870 111 971 111 q 725 151 769 111 l 732 172 q 765 167 743 167 q 862 228 832 168 q 892 374 892 288 q 860 515 892 460 q 774 569 829 569 q 710 541 736 568 q 676 469 685 514 l 676 0 l 482 0 l 482 279 q 410 213 461 243 q 296 183 358 183 q 187 208 233 183 q 117 278 140 233 q 78 479 78 357 l 78 750 l -21 750 l -21 778 l 1171 778 l 1171 750 m 482 750 l 281 750 l 281 469 q 290 335 281 361 q 311 292 300 310 q 375 256 332 256 q 446 278 418 256 q 482 331 474 301 l 482 750 m 194 47 q 208 61 194 47 q 261 75 222 75 q 328 47 300 75 q 357 -21 357 19 q 328 -89 357 -61 q 261 -117 300 -117 q 194 -89 222 -117 q 165 -21 165 -61 q 194 47 165 19 z "},"य़":{"ha":889,"x_min":-28,"x_max":917,"o":"m 917 778 l 917 750 l 778 750 l 778 0 l 583 0 l 583 232 q 487 158 549 183 q 361 133 425 133 q 133 205 222 133 q 43 401 43 276 q 46 446 43 426 q 69 444 60 444 q 249 599 249 444 q 206 717 249 685 q 82 750 164 750 l -28 750 l -28 778 l 917 778 m 247 406 l 246 385 q 287 243 246 303 q 413 183 328 183 q 522 213 475 183 q 583 292 568 242 l 583 750 l 313 750 q 414 690 378 733 q 450 576 450 646 q 397 463 450 507 q 247 410 344 419 l 247 406 m 242 -17 q 256 -3 242 -17 q 310 11 269 11 q 378 -17 350 11 q 406 -85 406 -44 q 378 -153 406 -125 q 310 -181 350 -181 q 242 -153 269 -181 q 214 -85 214 -125 q 242 -17 214 -44 z "}}}
